# Blender v3.0.1 OBJ File: ''
# www.blender.org
mtllib Tree.mtl
o Cube
v -0.059302 0.031278 0.129867
v -0.097576 -0.000000 -0.094548
v 0.081698 0.000000 -0.102128
v 0.094285 0.001185 0.111614
v 0.010363 0.000000 -0.101201
v 0.082482 0.349037 0.467296
v -0.106626 -0.000000 -0.009408
v 0.104631 0.000000 0.000622
v -0.134136 -0.100000 -0.000996
v -0.100000 0.100000 0.000000
v 0.135871 -0.100000 -0.000996
v 0.100000 0.100000 0.000000
v 0.000000 -0.100000 0.000000
v -0.106180 1.031364 0.110531
v 0.000867 -0.100000 -0.135999
v 0.000000 0.100000 -0.100000
v -0.006646 -0.067421 0.138301
v 0.000000 0.100000 0.100000
v 0.071335 0.100000 -0.100927
v 0.097171 -0.100000 -0.137251
v 0.060827 0.080562 0.124930
v 0.056209 -0.059798 0.122828
v -0.096682 0.100000 -0.083317
v -0.129657 -0.100000 -0.113477
v -0.043548 0.077639 0.124665
v -0.047061 -0.056093 0.122396
v -0.112713 -0.100000 0.138513
v -0.084132 0.001185 0.110661
v 0.089654 0.100000 0.103669
v 0.074375 0.024409 0.131512
v 0.000867 -0.100000 0.134007
v -0.000002 0.085382 0.123612
v -0.084132 0.100000 0.103338
v 0.121903 -0.100000 0.138960
v 0.057830 0.097303 0.207643
v 0.036595 0.600877 0.504990
v -0.045129 0.092405 0.206910
v -0.002865 0.122471 0.172943
v 0.000321 0.048202 0.243969
v -0.031403 0.052413 0.239426
v 0.044079 0.124066 0.174495
v -0.035816 0.116200 0.178897
v 0.048053 0.056636 0.238674
v 0.026014 0.366132 0.503317
v -0.020477 0.344138 0.466563
v 0.021787 0.374204 0.432596
v 0.024973 0.287927 0.509842
v -0.006751 0.304146 0.499079
v 0.068731 0.375799 0.434149
v -0.011164 0.367934 0.438550
v 0.072705 0.308370 0.498327
v -0.019874 0.587972 0.505626
v -0.066364 0.595979 0.504256
v -0.024100 0.626045 0.470290
v 0.022844 0.627640 0.471842
v -0.057052 0.619775 0.476244
v 0.055013 0.364483 0.629906
v 0.023895 0.368761 0.626148
v -0.001724 0.361784 0.629501
v 0.023322 0.337425 0.649924
v 0.005840 0.339746 0.647420
v 0.049625 0.342073 0.647005
v 0.017971 0.476465 0.804509
v 0.000564 0.487751 0.804690
v -0.011250 0.475075 0.804301
v 0.001649 0.462529 0.814819
v -0.007355 0.463725 0.813530
v 0.015196 0.464923 0.813317
v 0.012876 0.691477 0.584776
v -0.022204 0.683459 0.585171
v -0.051085 0.688434 0.584320
v -0.024829 0.707112 0.563219
v 0.004334 0.708103 0.564183
v -0.045300 0.703216 0.566918
v -0.040034 0.916886 -0.006585
v 0.072102 0.308394 -0.040376
v -0.073305 0.308394 -0.040376
v -0.061768 0.308394 0.034755
v 0.051262 0.308394 -0.113753
v -0.000601 0.308394 -0.113079
v -0.000601 0.308394 0.032328
v -0.070893 0.308394 -0.100950
v 0.064580 0.308394 0.034995
v -0.000993 0.573487 -0.015565
v -0.078643 0.584356 -0.040732
v -0.086192 0.577916 0.001156
v 0.001268 0.580492 -0.058132
v -0.026551 0.584319 -0.066750
v -0.053085 0.573524 0.010454
v -0.066301 0.588673 -0.072477
v -0.018763 0.568453 0.023152
v -0.001550 0.896325 -0.013965
v -0.078518 0.887250 -0.041797
v -0.079039 0.857011 -0.011164
v -0.006108 0.925261 -0.045716
v -0.033620 0.918584 -0.077529
v -0.046448 0.851173 0.013545
v -0.071897 0.912361 -0.064253
v -0.012181 0.864798 0.013111
v -0.089561 1.033833 0.129313
v -0.131448 1.028894 0.114166
v -0.131732 1.012438 0.130837
v -0.118127 1.015060 0.145541
v -0.095346 1.016676 0.144048
v -0.097846 1.071290 0.012724
v -0.075157 1.073697 0.013427
v -0.115975 1.068884 -0.001333
v -0.077574 1.089042 -0.003411
v -0.087565 1.087178 -0.014982
v -0.112464 1.082201 -0.013242
v -0.165283 1.078101 0.340532
v -0.151836 1.073024 0.361231
v -0.190806 1.075902 0.339290
v -0.193698 1.054740 0.348914
v -0.182585 1.051378 0.365448
v -0.159855 1.052173 0.368005
v -0.117029 1.257327 0.148638
v -0.095722 1.259085 0.140636
v -0.139207 1.255546 0.142556
v -0.103922 1.274626 0.125937
v -0.117617 1.273138 0.119051
v -0.140110 1.268853 0.130162
v -0.084082 1.409547 0.282438
v -0.062775 1.414410 0.275846
v -0.106260 1.410396 0.276158
v -0.070975 1.434590 0.268748
v -0.084670 1.436035 0.261853
v -0.107163 1.427597 0.270257
v -0.087032 0.928535 -0.032600
v -0.081118 0.950965 -0.052658
v -0.018281 0.936642 -0.007739
v -0.053175 0.951982 -0.002196
v -0.022352 0.962488 -0.036100
v -0.045882 0.962304 -0.039161
v 0.018410 1.040820 -0.149802
v 0.045018 1.043079 -0.151051
v 0.064143 1.049787 -0.136915
v 0.012000 1.067656 -0.141742
v 0.052851 1.075666 -0.130231
v 0.036495 1.072678 -0.126064
v 0.034946 1.104346 -0.239823
v 0.055845 1.105075 -0.244241
v 0.073017 1.109507 -0.235538
v 0.032061 1.125952 -0.232546
v 0.066067 1.130562 -0.228719
v 0.053592 1.128803 -0.223327
v 0.038133 1.136878 -0.369404
v 0.059031 1.137607 -0.373821
v 0.076204 1.142039 -0.365119
v 0.035247 1.158484 -0.362126
v 0.069254 1.163094 -0.358299
v 0.056778 1.161334 -0.352907
v -0.079129 1.076546 0.661934
v -0.599157 1.283480 0.187758
v -0.081835 1.499907 -0.285138
v 0.438193 1.292973 0.189038
v -0.391781 1.412102 -0.095452
v 0.230816 1.164352 0.472248
v -0.390161 1.158670 0.471483
v 0.229196 1.417784 -0.094686
v -0.081032 1.531764 0.293544
v -0.082422 1.338070 0.537261
v -0.084042 1.591501 -0.029674
v 0.062473 1.531764 0.293544
v -0.224538 1.531764 0.293544
v 0.006461 1.516230 0.190826
v 0.006461 1.444980 0.350649
v -0.168525 1.516230 0.190826
v -0.168525 1.444980 0.350649
v -0.427613 0.951339 0.506491
v -0.242838 1.056961 0.056651
v 0.210871 0.923721 0.211731
v 0.026095 0.818098 0.661570
v 0.002239 1.000758 0.089828
v -0.218981 0.874302 0.628393
v -0.379969 1.017290 0.266277
v 0.163227 0.857770 0.451944
v -0.074163 1.106136 0.411907
v -0.269723 1.065507 0.480546
v 0.112485 1.048975 0.304097
v -0.037345 1.072295 0.495437
v -0.110982 1.139978 0.328377
v -0.004665 1.047468 0.426686
v -0.112460 1.052347 0.476176
v -0.049561 1.088733 0.324831
v -0.157355 1.093613 0.374322
v -0.062135 0.251986 1.022065
v -0.582163 0.458920 0.547889
v -0.064841 0.675347 0.074993
v 0.455187 0.468413 0.549169
v -0.374787 0.587541 0.264678
v 0.247810 0.339792 0.832379
v -0.373167 0.334109 0.831613
v 0.246190 0.593224 0.265444
v -0.064038 0.707204 0.653675
v -0.065428 0.513509 0.897391
v -0.067048 0.766941 0.330457
v 0.079467 0.707204 0.653675
v -0.207544 0.707204 0.653675
v 0.023455 0.691670 0.550956
v 0.023455 0.620420 0.710779
v -0.151531 0.691670 0.550956
v -0.151531 0.620420 0.710779
v -0.354883 1.142640 -0.004215
v -0.505354 0.766445 -0.738304
v 0.306974 0.828496 -0.936611
v 0.457444 1.204691 -0.202522
v -0.114029 0.760371 -0.909853
v 0.066120 1.210765 -0.030974
v -0.510229 0.948423 -0.351703
v 0.462320 1.022713 -0.589123
v -0.071923 1.255325 -0.600290
v -0.251852 1.266686 -0.293492
v 0.144348 1.078634 -0.851642
v 0.061267 1.314766 -0.525228
v -0.205113 1.195885 -0.675352
v 0.075775 1.207861 -0.606229
v -0.036323 1.260843 -0.449277
v -0.086633 1.135381 -0.697756
v -0.198731 1.188363 -0.540805
vt 0.461643 0.539078
vt 0.460928 0.534295
vt 0.456962 0.498315
vt 0.455747 0.497037
vt 0.319548 0.001231
vt 0.303525 0.069260
vt 0.225679 0.072412
vt 0.228919 0.005864
vt 0.461362 0.451026
vt 0.461837 0.450874
vt 0.463577 0.427945
vt 0.461786 0.417408
vt 0.173239 0.158215
vt 0.163775 0.196306
vt 0.123636 0.198469
vt 0.124383 0.160565
vt 0.473811 0.450735
vt 0.473601 0.428150
vt 0.458700 0.459132
vt 0.457862 0.453619
vt 0.476714 0.539539
vt 0.473539 0.534689
vt 0.169297 0.075541
vt 0.154794 0.009895
vt 0.491037 0.458209
vt 0.473497 0.459718
vt 0.466978 0.489821
vt 0.485698 0.488399
vt 0.347537 0.046325
vt 0.354689 0.092597
vt 0.307989 0.096564
vt 0.308930 0.048251
vt 0.103059 0.236829
vt 0.129510 0.235337
vt 0.133628 0.312325
vt 0.114397 0.313410
vt 0.354689 0.127222
vt 0.307725 0.145438
vt 0.458971 0.541297
vt 0.453300 0.500744
vt 0.302292 0.134614
vt 0.235161 0.138047
vt 0.165698 0.233596
vt 0.159938 0.311060
vt 0.261966 0.101092
vt 0.260926 0.060351
vt 0.390565 0.952666
vt 0.351231 0.961127
vt 0.365536 0.856895
vt 0.395499 0.855249
vt 0.455334 0.458789
vt 0.447887 0.488044
vt 0.259725 0.144813
vt 0.210036 0.434040
vt 0.232863 0.421154
vt 0.231135 0.475488
vt 0.210875 0.470844
vt 0.097186 0.199962
vt 0.180255 0.141032
vt 0.294764 0.294111
vt 0.340073 0.303932
vt 0.323953 0.318553
vt 0.263884 0.324606
vt 0.290178 0.269567
vt 0.273694 0.264553
vt 0.482727 0.450542
vt 0.301176 0.238649
vt 0.283053 0.199106
vt 0.467024 0.457023
vt 0.366965 0.298612
vt 0.378100 0.324606
vt 0.455589 0.268731
vt 0.439812 0.272441
vt 0.134309 0.737708
vt 0.120409 0.735188
vt 0.102694 0.604435
vt 0.120474 0.607253
vt 0.205777 0.674651
vt 0.185517 0.670007
vt 0.259344 0.476035
vt 0.233986 0.675199
vt 0.465142 0.409653
vt 0.480765 0.426022
vt 0.420327 0.959208
vt 0.417533 0.856621
vt 0.268723 0.388064
vt 0.419708 0.625966
vt 0.395359 0.623873
vt 0.393249 0.522283
vt 0.405392 0.523040
vt 0.445605 0.272540
vt 0.438669 0.271324
vt 0.445473 0.220992
vt 0.449335 0.223465
vt 0.108179 0.777478
vt 0.087919 0.772834
vt 0.098085 0.833634
vt 0.085529 0.833545
vt 0.085529 0.737708
vt 0.098085 0.737797
vt 0.103243 0.736792
vt 0.085529 0.606039
vt 0.467443 0.266611
vt 0.403055 0.158992
vt 0.398917 0.149656
vt 0.340123 0.101333
vt 0.355128 0.107435
vt 0.439870 0.137604
vt 0.475600 0.135922
vt 0.420522 0.084123
vt 0.373575 0.089350
vt 0.454829 0.249407
vt 0.447446 0.151766
vt 0.115296 0.836205
vt 0.115296 0.740368
vt 0.136067 0.825598
vt 0.115296 0.822786
vt 0.119684 0.742210
vt 0.136067 0.737708
vt 0.455323 0.217790
vt 0.452471 0.150296
vt 0.445831 0.155253
vt 0.414073 0.384639
vt 0.420327 0.385030
vt 0.267561 0.752553
vt 0.252016 0.752252
vt 0.126649 0.552398
vt 0.134309 0.553787
vt 0.307173 0.651373
vt 0.329919 0.629630
vt 0.314692 0.720188
vt 0.302491 0.718714
vt 0.448674 0.157384
vt 0.455002 0.156826
vt 0.459644 0.153353
vt 0.458958 0.155994
vt 0.376738 0.523190
vt 0.405569 0.385107
vt 0.268723 0.868271
vt 0.260717 0.868115
vt 0.329919 0.828426
vt 0.325787 0.829863
vt 0.420327 0.727953
vt 0.437174 0.723188
vt 0.437174 0.862251
vt 0.428497 0.864706
vt 0.401557 0.097608
vt 0.448095 0.088990
vt 0.344150 0.861490
vt 0.370302 0.859795
vt 0.362662 0.921422
vt 0.346415 0.922475
vt 0.093530 0.843677
vt 0.080944 0.840792
vt 0.399140 0.859795
vt 0.423515 0.863345
vt 0.423515 0.923875
vt 0.408372 0.921669
vt 0.399139 0.861490
vt 0.380577 0.922475
vt 0.214883 0.277116
vt 0.263690 0.274622
vt 0.252556 0.453026
vt 0.224900 0.458851
vt 0.164488 0.415565
vt 0.149798 0.414897
vt 0.180624 0.958118
vt 0.134610 0.960399
vt 0.154295 0.753096
vt 0.180624 0.746436
vt 0.139603 0.414226
vt 0.451683 0.573222
vt 0.445772 0.531810
vt 0.174964 0.279289
vt 0.123693 0.543931
vt 0.152143 0.533149
vt 0.433864 0.621828
vt 0.453484 0.640359
vt 0.090355 0.645144
vt 0.108641 0.601126
vt 0.437372 0.565918
vt 0.119961 0.572980
vt 0.126522 0.760995
vt 0.096527 0.535083
vt 0.203600 0.462983
vt 0.450877 0.512082
vt 0.084675 0.963868
vt 0.073489 0.541248
vt 0.098209 0.551084
vt 0.060751 0.507537
vt 0.051352 0.508197
vt 0.230458 0.700746
vt 0.243113 0.685181
vt 0.270141 0.776141
vt 0.262629 0.785382
vt 0.085721 0.558274
vt 0.045776 0.421051
vt 0.053633 0.404824
vt 0.235162 0.658426
vt 0.254220 0.637417
vt 0.355707 0.734076
vt 0.345335 0.745510
vt 0.158512 0.535572
vt 0.144163 0.538445
vt 0.220995 0.675850
vt 0.123120 0.543231
vt 0.278894 0.506819
vt 0.289967 0.502157
vt 0.308031 0.626645
vt 0.296005 0.629630
vt 0.434791 0.713696
vt 0.423524 0.723188
vt 0.420328 0.557093
vt 0.434791 0.552842
vt 0.050148 0.387259
vt 0.291440 0.391779
vt 0.308031 0.388361
vt 0.053904 0.628599
vt 0.033948 0.418261
vt 0.268995 0.388064
vt 0.268723 0.501997
vt 0.279213 0.629630
vt 0.290529 0.635672
vt 0.281190 0.748375
vt 0.268723 0.746803
vt 0.059925 0.519545
vt 0.055961 0.528628
vt 0.050965 0.444827
vt 0.054474 0.441424
vt 0.091806 0.575784
vt 0.083533 0.843424
vt 0.050133 0.834530
vt 0.067226 0.744463
vt 0.083533 0.742043
vt 0.077529 0.580633
vt 0.423515 0.861667
vt 0.443766 0.859795
vt 0.443766 0.936239
vt 0.429606 0.935519
vt 0.029825 0.279277
vt 0.025230 0.291612
vt 0.015251 0.272834
vt 0.024367 0.269059
vt 0.015589 0.294432
vt 0.011511 0.282856
vt 0.503533 0.753402
vt 0.497836 0.767721
vt 0.286404 0.624958
vt 0.421523 0.384639
vt 0.436303 0.390506
vt 0.436303 0.552842
vt 0.420327 0.550021
vt 0.302492 0.847750
vt 0.289754 0.846691
vt 0.060347 0.400484
vt 0.063024 0.397852
vt 0.372572 0.893712
vt 0.364954 0.902903
vt 0.045948 0.527626
vt 0.045134 0.439155
vt 0.056350 0.432647
vt 0.302492 0.634659
vt 0.291313 0.742981
vt 0.060340 0.389908
vt 0.064665 0.392882
vt 0.055861 0.396624
vt 0.055846 0.392396
vt 0.464368 0.991454
vt 0.461157 1.002980
vt 0.180624 0.828227
vt 0.198067 0.822619
vt 0.198067 0.954112
vt 0.181242 0.963026
vt 0.198465 0.822619
vt 0.212761 0.824138
vt 0.212761 0.984899
vt 0.198067 0.981030
vt 0.055180 0.600787
vt 0.105457 0.606874
vt 0.096584 0.620514
vt 0.171637 0.782030
vt 0.165058 0.764723
vt 0.083533 0.873246
vt 0.045104 0.861024
vt 0.437316 0.982319
vt 0.420327 0.979543
vt 0.422349 0.939158
vt 0.436054 0.938915
vt 0.113111 0.823911
vt 0.107407 0.809975
vt 0.119046 0.617535
vt 0.111091 0.606973
vt 0.223362 0.533149
vt 0.250266 0.538310
vt 0.196544 0.653113
vt 0.180624 0.654853
vt 0.125751 0.583527
vt 0.115910 0.584905
vt 0.105165 0.641367
vt 0.108927 0.642136
vt 0.106553 0.683247
vt 0.103038 0.683100
vt 0.193941 0.735117
vt 0.205416 0.731717
vt 0.250266 0.819219
vt 0.238790 0.822619
vt 0.443766 0.859795
vt 0.459228 0.859848
vt 0.459228 0.903217
vt 0.446288 0.903384
vt 0.113601 0.650754
vt 0.105988 0.697052
vt 0.099440 0.697820
vt 0.096755 0.688859
vt 0.110778 0.691031
vt 0.028991 0.849959
vt 0.023287 0.836023
vt 0.423611 0.864948
vt 0.437316 0.864706
vt 0.098415 0.648413
vt 0.181095 0.734870
vt 0.225945 0.822371
vt 0.965101 0.274925
vt 0.965101 0.513143
vt 0.879619 0.511001
vt 0.751733 0.278675
vt 0.553105 0.386717
vt 0.732990 0.469679
vt 0.822223 0.619186
vt 0.549839 0.662121
vt 0.981756 0.675288
vt 0.981756 0.818964
vt 0.941849 0.813940
vt 0.892898 0.681730
vt 0.799835 0.737891
vt 0.885510 0.799749
vt 0.908067 0.867275
vt 0.771237 0.870100
vt 0.954051 0.862704
vt 0.926346 0.906444
vt 0.918030 0.601865
vt 0.870960 0.690588
vt 0.627833 0.915474
vt 0.778519 0.989962
vt 0.569178 0.058063
vt 0.793362 0.227332
vt 0.764229 0.289938
vt 0.529563 0.287267
vt 0.569178 0.515618
vt 0.700763 0.429994
vt 0.831698 0.366165
vt 0.770029 0.558581
vt 0.787069 0.888765
vt 0.691880 0.831305
vt 0.704484 0.804400
vt 0.787069 0.795717
vt 0.970879 0.053742
vt 0.941229 0.153507
vt 0.831865 0.211833
vt 0.770029 0.010779
vt 0.848693 0.289846
vt 0.904024 0.352360
vt 0.970879 0.511297
vt 0.714266 0.749009
vt 0.770672 0.704528
vt 0.677804 0.807216
vt 0.916264 0.008648
vt 0.916264 0.224397
vt 0.838845 0.222457
vt 0.723022 0.012046
vt 0.543128 0.109897
vt 0.706046 0.185033
vt 0.786863 0.320438
vt 0.540170 0.359323
vt 0.840782 0.223511
vt 0.840782 0.419697
vt 0.786290 0.412837
vt 0.719448 0.232308
vt 0.592373 0.308994
vt 0.709360 0.393459
vt 0.740161 0.485664
vt 0.553322 0.489522
vt 0.802952 0.479423
vt 0.765121 0.539149
vt 0.873633 0.304751
vt 0.831003 0.385105
vt 0.610809 0.588780
vt 0.563267 0.653191
vt 0.668496 0.704528
vt 0.677804 0.831029
vt 0.569533 0.887256
vt 0.543055 0.851851
vt 0.885237 0.383638
vt 0.974527 0.620555
vt 0.722558 0.659695
vt 0.762675 0.491938
vt 0.974527 0.878400
vt 0.756983 0.980240
vt 0.660970 0.760871
vt 0.705475 0.730107
vt 0.965118 0.410471
vt 0.984890 0.573903
vt 0.815043 0.571031
vt 0.855407 0.476134
vt 0.756674 0.570154
vt 0.789457 0.614715
vt 0.630273 0.676095
vt 0.555071 0.622083
vt 0.630860 0.593835
vt 0.521827 0.984495
vt 0.545131 0.851623
vt 0.955324 0.738639
vt 0.677804 0.984449
vt 0.588302 0.953757
vn 0.9344 0.2625 -0.2409
vn -0.9434 0.2915 0.1583
vn 0.9532 0.3012 -0.0264
vn -0.1166 0.2802 -0.9528
vn 0.0400 0.7784 -0.6264
vn 0.9526 0.2903 0.0909
vn -0.0123 0.3297 -0.9440
vn -0.9554 0.2881 -0.0654
vn 0.0377 0.3087 0.9504
vn 0.0000 -1.0000 -0.0000
vn -0.0130 -0.0627 -0.9980
vn 0.9668 0.0732 -0.2449
vn -0.9851 0.0311 0.1690
vn -0.1697 -0.0622 -0.9835
vn 0.2298 -0.6714 0.7046
vn -0.1131 0.0563 -0.9920
vn -0.0389 0.3085 0.9504
vn -0.9496 0.3048 -0.0730
vn 0.9941 0.0504 0.0956
vn -0.0130 0.0107 -0.9999
vn -0.9963 0.0450 -0.0731
vn -0.1298 0.1177 0.9845
vn 0.6449 0.1460 0.7502
vn -0.0581 0.1955 0.9790
vn 0.0054 0.7949 0.6067
vn -0.0239 0.7613 0.6480
vn 0.0473 0.2066 0.9773
vn 0.1216 0.1056 0.9869
vn -0.5333 0.1300 0.8359
vn -0.0014 0.7180 -0.6960
vn 0.3244 -0.7059 0.6297
vn -0.9654 0.2268 -0.1283
vn -0.9626 -0.1432 0.2302
vn 0.9461 -0.1614 0.2809
vn -0.1982 0.7959 -0.5721
vn -0.3337 -0.6473 0.6853
vn -0.9525 -0.1411 0.2698
vn -0.4028 -0.8736 0.2730
vn 0.9793 -0.1018 0.1751
vn -0.9126 -0.1072 -0.3945
vn -0.1970 0.1099 -0.9742
vn 0.9513 0.1713 -0.2564
vn 0.9812 -0.1764 0.0779
vn -0.2538 0.7064 -0.6607
vn -0.3703 -0.6609 0.6528
vn 0.9331 0.3420 -0.1110
vn -0.2536 0.7279 -0.6370
vn 0.3080 -0.0207 0.9512
vn 0.0275 0.1529 -0.9879
vn 0.9515 0.2074 -0.2273
vn -0.3562 -0.1469 0.9228
vn 0.2992 0.8212 -0.4859
vn -0.1882 -0.7942 0.5778
vn -0.9657 -0.2216 0.1351
vn 0.2235 0.9739 -0.0385
vn 0.3572 -0.8889 0.2867
vn -0.3541 0.9341 -0.0457
vn 0.1754 0.4444 0.8785
vn -0.2979 0.4146 0.8599
vn 0.2031 -0.7670 0.6086
vn -0.9638 -0.2446 0.1060
vn -0.4281 0.7364 -0.5239
vn 0.9698 -0.0511 0.2385
vn -0.1055 0.7082 0.6981
vn 0.0560 0.7120 0.6999
vn -0.1320 -0.6364 0.7600
vn -0.9621 0.2512 -0.1065
vn -0.0039 0.7535 -0.6574
vn 0.1526 -0.6304 0.7612
vn -0.9981 -0.0525 0.0311
vn -0.0524 0.1311 -0.9900
vn -0.0681 0.0933 0.9933
vn 0.1066 0.1961 -0.9748
vn 0.9592 0.0756 -0.2724
vn -0.9921 0.1194 -0.0395
vn -0.9766 0.1542 0.1500
vn 0.9837 0.1507 0.0982
vn -0.4563 0.0260 0.8894
vn 0.5894 0.0145 -0.8077
vn 0.9996 0.0124 -0.0249
vn -0.1779 0.0160 0.9839
vn -0.9875 0.0066 -0.1575
vn 0.9364 0.2735 0.2197
vn -0.1514 0.0243 0.9882
vn 0.9605 0.2409 -0.1394
vn 0.0571 -0.1170 0.9915
vn -0.9169 -0.1032 -0.3857
vn 0.3615 0.7678 -0.5290
vn -0.9699 -0.1650 -0.1793
vn -0.0962 -0.0057 -0.9953
vn -0.9944 0.0100 -0.1056
vn -0.9431 -0.0044 -0.3324
vn 0.9188 -0.0036 0.3947
vn 0.0480 -0.9837 0.1731
vn 0.9403 -0.1771 0.2905
vn 0.8855 0.0924 0.4553
vn 0.1807 -0.5755 0.7976
vn -0.0232 0.7241 -0.6893
vn -0.5106 -0.6658 0.5441
vn -0.3097 -0.5932 0.7431
vn 0.4589 0.5591 -0.6905
vn 0.9170 0.3514 0.1886
vn -0.5334 -0.2924 0.7937
vn 0.3596 0.3355 -0.8707
vn 0.1137 0.2699 -0.9562
vn -0.3592 0.6422 0.6771
vn -0.3192 0.6393 0.6996
vn -0.9651 -0.0904 -0.2460
vn 0.2373 0.9644 -0.1170
vn -0.1835 -0.9754 0.1221
vn -0.0997 0.9691 -0.2256
vn -0.1988 -0.6190 0.7598
vn 0.3676 0.5730 -0.7325
vn -0.9900 -0.0288 -0.1379
vn -0.3169 0.5344 -0.7836
vn 0.9704 0.2079 -0.1231
vn 0.1870 -0.5545 0.8109
vn -0.0565 0.5015 0.8633
vn -0.0471 0.5167 0.8549
vn -0.9825 0.0496 0.1797
vn -0.4509 0.6398 -0.6224
vn 0.8998 0.1672 -0.4029
vn 0.3331 -0.6602 0.6732
vn -0.4485 0.7377 0.5046
vn -0.7156 0.0386 -0.6975
vn -0.5175 -0.2899 0.8051
vn 0.1314 -0.0870 0.9875
vn -0.0158 -0.8238 -0.5667
vn -0.9597 -0.1011 -0.2623
vn 0.6983 0.1225 0.7052
vn 0.6167 -0.6563 -0.4347
vn -0.0298 0.6417 0.7664
vn -0.1361 -0.4606 -0.8771
vn -0.0319 0.9696 0.2426
vn 0.3469 -0.9116 -0.2203
vn -0.3722 0.8238 0.4276
vn 0.9217 0.2814 0.2669
vn 0.4999 -0.7536 -0.4269
vn 0.0214 0.8682 0.4957
vn 0.0508 0.5315 -0.8455
vn -0.0144 0.5243 -0.8514
vn -0.9920 -0.1146 -0.0532
vn -0.0177 -0.9696 -0.2439
vn -0.2247 0.9464 0.2321
vn 0.9541 0.2842 0.0948
vn -0.4741 0.8780 -0.0663
vn 0.4632 0.8786 -0.1161
vn 0.4556 0.5494 0.7004
vn -0.4530 0.5087 0.7321
vn -0.2361 0.6890 0.6853
vn -0.2521 0.9652 0.0688
vn 0.4582 0.8866 -0.0635
vn 0.4395 0.5179 0.7339
vn -0.4674 0.5410 0.6992
vn -0.4813 0.8687 -0.1174
vn 0.2346 0.6883 0.6865
vn 0.2488 0.9663 0.0658
vn 0.3399 0.8735 -0.3485
vn 0.7324 0.5274 0.4307
vn -0.0636 0.5959 0.8005
vn -0.4530 0.8909 0.0326
vn -0.2392 0.9471 0.2139
vn 0.3684 0.9261 -0.0810
vn 0.6950 0.5578 0.4537
vn -0.1118 0.5891 0.8003
vn -0.4163 0.9092 0.0071
vn 0.3709 0.8468 -0.3814
vn -0.0625 0.7834 0.6184
vn 0.5606 0.7517 0.3474
vn 0.2771 -0.4100 0.8690
vn -0.5128 -0.7199 0.4678
vn -0.0084 -0.9786 -0.2058
vn 0.7510 -0.6397 0.1640
vn 0.5335 -0.8176 0.2169
vn 0.1681 -0.6340 0.7548
vn -0.4790 -0.7555 0.4469
vn 0.0265 -0.9707 -0.2389
vn 0.7410 -0.6374 0.2112
vn 0.2541 -0.3697 0.8937
vn 0.1520 -0.9884 0.0003
vn -0.2405 -0.8145 0.5280
usemtl Material
s off
f 20/1/1 3/2/1 8/3/1 11/4/1
f 27/5/2 28/6/2 7/7/2 9/8/2
f 30/9/3 21/10/3 41/11/3 35/12/3
f 24/13/4 2/14/4 5/15/4 15/16/4
f 21/10/5 32/17/5 38/18/5 41/11/5
f 11/4/6 8/3/6 4/19/6 34/20/6
f 15/21/7 5/22/7 3/2/7 20/1/7
f 9/8/8 7/7/8 2/23/8 24/24/8
f 33/25/9 18/26/9 81/27/9 78/28/9
f 24/29/10 15/30/10 13/31/10 9/32/10
f 19/33/11 16/34/11 80/35/11 79/36/11
f 15/30/10 20/37/10 11/38/10 13/31/10
f 3/2/12 19/39/12 12/40/12 8/3/12
f 28/6/13 33/41/13 10/42/13 7/7/13
f 16/34/14 23/43/14 82/44/14 80/35/14
f 9/32/10 13/31/10 31/45/10 27/46/10
f 17/47/15 22/48/15 43/49/15 39/50/15
f 2/14/16 23/43/16 16/34/16 5/15/16
f 18/26/17 29/51/17 83/52/17 81/27/17
f 13/31/10 11/38/10 34/53/10 31/45/10
f 25/54/18 1/55/18 37/56/18 42/57/18
f 8/3/19 12/40/19 29/51/19 4/19/19
f 5/15/20 16/34/20 19/33/20 3/58/20
f 7/7/21 10/42/21 23/59/21 2/23/21
f 26/60/22 1/61/22 28/62/22 27/63/22
f 21/10/23 30/9/23 4/19/23 29/51/23
f 17/64/24 26/60/24 27/63/24 31/65/24
f 32/17/25 21/10/25 29/51/25 18/26/25
f 25/66/26 32/17/26 18/26/26 33/25/26
f 22/67/27 17/64/27 31/65/27 34/68/27
f 30/9/28 22/69/28 34/20/28 4/19/28
f 1/61/29 25/70/29 33/71/29 28/62/29
f 41/11/30 38/18/30 46/72/30 49/73/30
f 39/74/31 43/75/31 51/76/31 47/77/31
f 42/57/32 37/56/32 45/78/32 50/79/32
f 37/56/33 40/80/33 48/81/33 45/78/33
f 22/69/34 30/9/34 35/12/34 43/82/34
f 32/17/35 25/66/35 42/83/35 38/18/35
f 26/84/36 17/47/36 39/50/36 40/85/36
f 1/55/37 26/86/37 40/80/37 37/56/37
f 48/87/38 47/88/38 60/89/38 61/90/38
f 51/91/39 6/92/39 57/93/39 62/94/39
f 50/79/40 45/78/40 53/95/40 56/96/40
f 46/97/41 50/98/41 56/99/41 54/100/41
f 35/12/42 41/11/42 49/73/42 6/92/42
f 43/75/43 35/101/43 6/102/43 51/76/43
f 38/18/44 42/83/44 50/103/44 46/72/44
f 40/85/45 39/50/45 47/88/45 48/87/45
f 36/104/46 55/105/46 73/106/46 69/107/46
f 54/108/47 56/109/47 74/110/47 72/111/47
f 44/112/48 6/92/48 36/104/48 52/113/48
f 49/114/49 46/97/49 54/100/49 55/115/49
f 6/92/50 49/73/50 55/105/50 36/104/50
f 45/116/51 44/117/51 52/118/51 53/119/51
f 57/93/52 58/120/52 64/121/52 63/122/52
f 61/90/53 60/89/53 66/123/53 67/124/53
f 45/78/54 48/81/54 61/125/54 59/126/54
f 6/92/55 44/112/55 58/120/55 57/93/55
f 47/77/56 51/76/56 62/127/56 60/128/56
f 44/129/57 45/130/57 59/131/57 58/132/57
f 68/133/58 63/122/58 64/121/58 66/134/58
f 66/134/59 64/121/59 65/135/59 67/136/59
f 60/89/60 62/137/60 68/138/60 66/123/60
f 59/126/61 61/125/61 67/139/61 65/140/61
f 58/132/62 59/131/62 65/141/62 64/142/62
f 62/143/63 57/144/63 63/145/63 68/146/63
f 69/107/64 73/106/64 72/111/64 70/147/64
f 70/147/65 72/111/65 74/110/65 71/148/65
f 53/149/66 52/150/66 70/151/66 71/152/66
f 56/96/67 53/95/67 71/153/67 74/154/67
f 55/155/68 54/156/68 72/157/68 73/158/68
f 52/150/69 36/159/69 69/160/69 70/151/69
f 77/161/70 78/162/70 86/163/70 85/164/70
f 80/35/71 82/44/71 90/165/71 88/166/71
f 78/167/72 81/168/72 89/169/72 86/170/72
f 79/36/73 80/35/73 88/166/73 87/171/73
f 12/40/74 19/39/74 79/172/74 76/173/74
f 23/59/75 10/42/75 77/161/75 82/174/75
f 10/42/76 33/41/76 78/162/76 77/161/76
f 29/51/77 12/40/77 76/173/77 83/52/77
f 86/170/78 89/169/78 97/175/78 94/176/78
f 87/177/79 88/178/79 96/179/79 95/180/79
f 84/181/80 87/177/80 95/180/80 92/182/80
f 89/169/81 91/183/81 99/184/81 97/175/81
f 82/174/82 77/161/82 85/164/82 90/185/82
f 83/52/83 76/173/83 84/181/83 91/186/83
f 81/168/84 83/187/84 91/183/84 89/169/84
f 76/173/85 79/172/85 87/177/85 84/181/85
f 132/188/86 131/189/86 106/190/86 105/191/86
f 130/192/87 129/193/87 107/194/87 110/195/87
f 92/182/88 75/196/88 14/197/88 100/198/88
f 93/199/89 94/200/89 102/201/89 101/202/89
f 88/166/90 90/165/90 98/203/90 96/204/90
f 85/164/91 86/163/91 94/200/91 93/199/91
f 90/185/92 85/164/92 93/199/92 98/205/92
f 91/186/93 84/181/93 92/182/93 99/206/93
f 103/207/94 104/208/94 116/209/94 115/210/94
f 104/211/95 100/212/95 112/213/95 116/214/95
f 99/206/96 92/182/96 100/198/96 104/215/96
f 97/216/97 99/217/97 104/208/97 103/207/97
f 75/196/98 93/218/98 101/219/98 14/197/98
f 94/220/99 97/216/99 103/207/99 102/221/99
f 107/222/100 105/223/100 117/224/100 119/225/100
f 108/226/101 109/227/101 121/228/101 120/229/101
f 131/189/102 133/230/102 108/226/102 106/190/102
f 129/231/103 132/232/103 105/233/103 107/234/103
f 133/230/104 134/235/104 109/227/104 108/226/104
f 134/236/105 130/237/105 110/238/105 109/239/105
f 112/240/106 111/241/106 115/242/106 116/243/106
f 111/241/107 113/244/107 114/245/107 115/242/107
f 101/202/108 102/201/108 114/246/108 113/247/108
f 100/198/109 14/197/109 111/241/109 112/240/109
f 102/221/110 103/207/110 115/210/110 114/248/110
f 14/249/111 101/250/111 113/251/111 111/252/111
f 119/225/112 117/224/112 123/253/112 125/254/112
f 120/229/113 121/228/113 127/255/113 126/256/113
f 110/195/114 107/194/114 119/257/114 122/258/114
f 109/227/115 110/259/115 122/260/115 121/228/115
f 106/190/116 108/226/116 120/229/116 118/261/116
f 105/223/117 106/262/117 118/263/117 117/224/117
f 126/256/118 127/255/118 123/264/118 124/265/118
f 127/255/119 128/266/119 125/267/119 123/264/119
f 122/258/120 119/257/120 125/268/120 128/269/120
f 121/270/121 122/271/121 128/272/121 127/273/121
f 118/261/122 120/229/122 126/256/122 124/265/122
f 117/274/123 118/275/123 124/276/123 123/277/123
f 130/278/124 134/235/124 140/279/124 138/280/124
f 98/205/125 130/192/125 138/281/125 135/282/125
f 93/283/126 75/284/126 132/232/126 129/231/126
f 92/182/102 95/180/102 133/230/102 131/189/102
f 98/205/87 93/199/87 129/193/87 130/192/87
f 75/196/127 92/182/127 131/189/127 132/188/127
f 136/285/128 135/286/128 141/287/128 142/288/128
f 135/282/129 138/281/129 144/289/129 141/290/129
f 133/230/130 95/180/130 137/291/130 139/292/130
f 95/293/131 96/294/131 136/295/131 137/296/131
f 134/235/132 133/230/132 139/292/132 140/279/132
f 96/204/133 98/203/133 135/297/133 136/298/133
f 146/299/134 145/300/134 151/301/134 152/302/134
f 143/303/135 142/304/135 148/305/135 149/306/135
f 138/307/136 140/308/136 146/309/136 144/310/136
f 139/292/137 137/291/137 143/311/137 145/300/137
f 137/296/138 136/295/138 142/304/138 143/303/138
f 140/279/139 139/292/139 145/300/139 146/299/139
f 148/312/140 147/313/140 150/314/140 152/302/140
f 149/315/141 148/312/141 152/302/141 151/301/141
f 141/290/142 144/289/142 150/316/142 147/317/142
f 142/288/143 141/287/143 147/318/143 148/319/143
f 144/320/144 146/299/144 152/302/144 150/314/144
f 145/321/145 143/303/145 149/306/145 151/322/145
f 154/323/146 165/324/146 168/325/146 157/326/146
f 155/327/147 163/328/147 166/329/147 160/330/147
f 156/331/148 164/332/148 167/333/148 158/334/148
f 153/335/149 162/336/149 169/337/149 159/338/149
f 161/339/150 165/340/150 169/337/150 162/336/150
f 163/328/151 168/325/151 165/324/151 161/341/151
f 160/330/152 166/329/152 164/342/152 156/343/152
f 158/334/153 167/333/153 162/336/153 153/335/153
f 159/338/154 169/337/154 165/340/154 154/344/154
f 157/326/155 168/325/155 163/328/155 155/327/155
f 164/332/156 161/339/156 162/336/156 167/333/156
f 166/329/157 163/328/157 161/341/157 164/342/157
f 171/345/158 182/346/158 185/347/158 174/348/158
f 172/349/159 180/350/159 183/351/159 177/352/159
f 173/353/160 181/354/160 184/355/160 175/356/160
f 170/357/161 179/358/161 186/359/161 176/360/161
f 178/361/162 182/346/162 186/359/162 179/358/162
f 180/350/163 185/347/163 182/346/163 178/361/163
f 177/352/164 183/351/164 181/362/164 173/363/164
f 175/356/165 184/355/165 179/364/165 170/365/165
f 176/360/166 186/359/166 182/346/166 171/345/166
f 174/348/167 185/347/167 180/350/167 172/349/167
f 181/354/168 178/366/168 179/364/168 184/355/168
f 183/351/169 180/350/169 178/361/169 181/362/169
f 188/367/146 199/368/146 202/369/146 191/370/146
f 189/371/147 197/372/147 200/373/147 194/374/147
f 190/375/148 198/376/148 201/377/148 192/378/148
f 187/379/149 196/380/149 203/381/149 193/382/149
f 195/383/150 199/384/150 203/381/150 196/380/150
f 197/372/151 202/369/151 199/368/151 195/385/151
f 194/374/152 200/373/152 198/386/152 190/387/152
f 192/378/153 201/377/153 196/380/153 187/379/153
f 193/382/154 203/381/154 199/384/154 188/388/154
f 191/370/155 202/369/155 197/372/155 189/371/155
f 198/376/156 195/383/156 196/380/156 201/377/156
f 200/373/157 197/372/157 195/385/157 198/386/157
f 205/389/170 208/390/170 219/391/170 216/392/170
f 206/393/171 211/394/171 217/395/171 214/396/171
f 207/397/172 209/398/172 218/399/172 215/400/172
f 204/401/173 210/402/173 220/403/173 213/404/173
f 212/405/174 213/404/174 220/403/174 216/406/174
f 214/396/175 212/407/175 216/408/175 219/409/175
f 211/394/176 207/397/176 215/400/176 217/395/176
f 209/398/177 204/410/177 213/411/177 218/399/177
f 210/402/178 205/412/178 216/406/178 220/403/178
f 208/390/179 206/413/179 214/414/179 219/391/179
f 215/400/180 218/399/180 213/411/180 212/407/180
f 217/395/181 215/400/181 212/407/181 214/396/181
