# Blender v3.0.1 OBJ File: ''
# www.blender.org
mtllib SkySphere.mtl
o Sphere
v 0.000000 353.553436 -353.553314
v 0.000000 415.734833 -277.785065
v 54.193199 415.734833 -272.447510
v 68.974854 353.553436 -346.759888
v 0.000000 -353.553314 -353.553436
v 0.000000 -277.785034 -415.734863
v 81.105850 -277.785034 -407.746613
v 68.974854 -353.553314 -346.760010
v 0.000000 277.785187 -415.734772
v 81.105843 277.785187 -407.746521
v 0.000000 -415.734802 -277.785156
v 54.193192 -415.734802 -272.447601
v 0.000000 191.341797 -461.939728
v 90.119980 191.341797 -453.063660
v 0.000035 -461.939728 -191.341660
v 37.328930 -461.939728 -187.665237
v 0.000000 97.545250 -490.392609
v 95.670860 97.545250 -480.969818
v 0.000014 -490.392639 -97.545135
v 19.030127 -490.392639 -95.670929
v 0.000269 0.000059 -499.999359
v 97.545166 0.000058 -490.392639
v 0.000000 490.392670 -97.545082
v -0.000040 500.000000 0.000141
v 19.030127 490.392670 -95.670784
v 0.000000 -500.000000 -0.000037
v 0.000113 -97.545082 -490.392365
v 95.670860 -97.545082 -480.969879
v 0.000000 461.939789 -191.341644
v 37.328930 461.939789 -187.665070
v 0.000098 -191.341629 -461.939636
v 90.119987 -191.341629 -453.063751
v 187.665146 -97.545082 -453.063721
v 176.776718 -191.341629 -426.776733
v 73.223320 461.939789 -176.776627
v 106.303780 415.734833 -256.639893
v 159.094849 -277.785034 -384.088867
v 135.299042 353.553436 -326.640656
v 135.299042 -353.553314 -326.640778
v 159.094818 277.785187 -384.088776
v 106.303764 -415.734802 -256.640015
v 176.776703 191.341797 -426.776642
v 73.223328 -461.939728 -176.776794
v 187.665146 97.545250 -453.063660
v 37.328930 -490.392670 -90.120041
v 191.341736 0.000053 -461.939728
v 37.328934 490.392639 -90.119896
v 154.329147 -415.734802 -230.969910
v 106.303795 -461.939728 -159.094910
v 256.639984 191.341782 -384.088806
v 272.447571 97.545242 -407.746521
v 54.193203 -490.392670 -81.105896
v 277.785126 0.000046 -415.734741
v 54.193207 490.392639 -81.105751
v 272.447571 -97.545090 -407.746582
v 106.303787 461.939789 -159.094742
v 256.640015 -191.341644 -384.088898
v 154.329163 415.734833 -230.969788
v 230.969925 -277.785034 -345.670837
v 196.423767 353.553436 -293.968811
v 196.423767 -353.553314 -293.968933
v 230.969879 277.785187 -345.670746
v 326.640778 -191.341660 -326.640747
v 293.968903 -277.785034 -293.968872
v 196.423767 415.734833 -196.423630
v 250.000000 353.553406 -249.999924
v 250.000000 -353.553345 -250.000046
v 293.968842 277.785187 -293.968811
v 196.423752 -415.734802 -196.423752
v 326.640717 191.341766 -326.640656
v 135.299072 -461.939728 -135.299103
v 346.759949 97.545227 -346.759888
v 68.974861 -490.392670 -68.974899
v 353.553375 0.000036 -353.553284
v 68.974869 490.392639 -68.974754
v 346.759949 -97.545105 -346.759949
v 135.299072 461.939789 -135.298935
v 159.094879 -461.939728 -106.303833
v 81.105858 -490.392670 -54.193241
v 407.746552 97.545219 -272.447479
v 415.734772 0.000023 -277.785004
v 81.105865 490.392639 -54.193089
v 407.746552 -97.545113 -272.447540
v 159.094879 461.939789 -106.303665
v 384.088928 -191.341660 -256.639984
v 230.969910 415.734833 -154.329025
v 345.670837 -277.785065 -230.969864
v 293.968872 353.553406 -196.423645
v 293.968872 -353.553345 -196.423767
v 345.670807 277.785156 -230.969772
v 230.969894 -415.734802 -154.329147
v 384.088837 191.341766 -256.639923
v 256.639984 415.734833 -106.303635
v 326.640717 353.553406 -135.298935
v 384.088837 -277.785065 -159.094803
v 326.640717 -353.553345 -135.299057
v 384.088806 277.785156 -159.094711
v 256.639984 -415.734802 -106.303772
v 426.776642 191.341751 -176.776642
v 176.776764 -461.939758 -73.223358
v 453.063660 97.545204 -187.665054
v 90.119995 -490.392670 -37.328964
v 461.939697 0.000009 -191.341614
v 90.120003 490.392639 -37.328812
v 453.063660 -97.545128 -187.665085
v 176.776749 461.939758 -73.223198
v 426.776733 -191.341675 -176.776672
v 480.969818 97.545189 -95.670792
v 490.392548 -0.000006 -97.545067
v 95.670876 490.392639 -19.030006
v 95.670868 -490.392670 -19.030161
v 480.969818 -97.545143 -95.670822
v 187.665192 461.939758 -37.328793
v 453.063751 -191.341690 -90.119942
v 272.447540 415.734802 -54.193058
v 407.746521 -277.785095 -81.105820
v 346.759949 353.553375 -68.974762
v 346.759949 -353.553375 -68.974884
v 407.746490 277.785126 -81.105736
v 272.447540 -415.734833 -54.193195
v 453.063660 191.341736 -90.119934
v 187.665207 -461.939758 -37.328957
v 415.734741 -277.785095 0.000008
v 353.553345 -353.553375 -0.000035
v 353.553345 353.553375 0.000081
v 415.734711 277.785126 0.000091
v 277.785065 -415.734833 -0.000011
v 461.939697 191.341721 0.000039
v 191.341782 -461.939758 -0.000026
v 490.392578 97.545174 0.000062
v 97.545174 -490.392670 -0.000042
v 499.999847 -0.000022 0.000083
v 97.545181 490.392639 0.000114
v 490.392578 -97.545158 0.000030
v 191.341751 461.939758 0.000135
v 461.939789 -191.341705 0.000044
v 277.785065 415.734802 0.000125
v 95.670876 490.392639 19.030235
v 95.670868 -490.392670 19.030077
v 490.392456 -0.000038 97.545212
v 480.969788 -97.545174 95.670868
v 187.665176 461.939758 37.329060
v 453.063721 -191.341721 90.120026
v 272.447510 415.734802 54.193302
v 407.746490 -277.785095 81.105835
v 346.759918 353.553375 68.974922
v 346.759918 -353.553375 68.974800
v 407.746460 277.785126 81.105911
v 272.447510 -415.734833 54.193165
v 453.063629 191.341705 90.120003
v 187.665207 -461.939758 37.328903
v 480.969788 97.545158 95.670898
v 326.640686 353.553345 135.299088
v 384.088745 277.785095 159.094864
v 326.640686 -353.553406 135.298965
v 256.639893 -415.734863 106.303726
v 426.776611 191.341690 176.776703
v 176.776749 -461.939758 73.223305
v 453.063599 97.545143 187.665161
v 90.119987 -490.392670 37.328876
v 461.939545 -0.000053 191.341721
v 90.119995 490.392639 37.329037
v 453.063599 -97.545189 187.665131
v 176.776733 461.939758 73.223457
v 426.776672 -191.341736 176.776733
v 256.639893 415.734772 106.303864
v 384.088776 -277.785126 159.094788
v 415.734558 -0.000067 277.785095
v 407.746460 -97.545204 272.447510
v 81.105850 490.392639 54.193310
v 159.094849 461.939728 106.303917
v 384.088837 -191.341751 256.640015
v 230.969803 415.734772 154.329208
v 345.670746 -277.785126 230.969833
v 293.968842 353.553345 196.423798
v 293.968842 -353.553406 196.423676
v 345.670715 277.785095 230.969894
v 230.969803 -415.734863 154.329086
v 384.088776 191.341675 256.639984
v 159.094864 -461.939789 106.303772
v 407.746460 97.545128 272.447571
v 81.105843 -490.392670 54.193150
v 249.999985 -353.553406 249.999939
v 196.423660 -415.734863 196.423676
v 293.968781 277.785065 293.968872
v 326.640656 191.341675 326.640717
v 135.299057 -461.939789 135.299042
v 346.759857 97.545120 346.759949
v 68.974846 -490.392670 68.974808
v 353.553131 -0.000080 353.553314
v 68.974854 490.392639 68.974968
v 346.759857 -97.545212 346.759888
v 135.299042 461.939728 135.299194
v 326.640686 -191.341751 326.640747
v 196.423660 415.734772 196.423798
v 293.968811 -277.785156 293.968811
v 249.999985 353.553345 250.000061
v 272.447449 -97.545227 407.746460
v 256.639923 -191.341766 384.088867
v 106.303772 461.939728 159.094971
v 154.329071 415.734772 230.969940
v 230.969803 -277.785156 345.670746
v 196.423721 353.553314 293.968933
v 196.423721 -353.553436 293.968811
v 230.969788 277.785065 345.670776
v 154.329071 -415.734863 230.969818
v 256.639923 191.341660 384.088837
v 106.303787 -461.939789 159.094818
v 272.447449 97.545105 407.746521
v 54.193188 -490.392670 81.105797
v 277.784851 -0.000090 415.734680
v 54.193195 490.392639 81.105965
v 106.303703 -415.734863 256.639893
v 73.223320 -461.939789 176.776688
v 176.776657 191.341644 426.776642
v 187.665024 97.545097 453.063629
v 37.328915 -490.392670 90.119934
v 191.341492 -0.000097 461.939575
v 37.328922 490.392639 90.120102
v 187.665024 -97.545235 453.063568
v 73.223305 461.939728 176.776840
v 176.776627 -191.341782 426.776672
v 106.303703 415.734772 256.640015
v 159.094772 -277.785156 384.088745
v 135.299026 353.553314 326.640778
v 135.299026 -353.553436 326.640656
v 159.094757 277.785065 384.088776
v 37.328911 461.939728 187.665283
v 54.193142 415.734772 272.447601
v 90.119911 -191.341782 453.063690
v 81.105789 -277.785156 407.746429
v 68.974861 353.553314 346.760010
v 68.974861 -353.553436 346.759888
v 81.105797 277.785065 407.746460
v 54.193142 -415.734863 272.447479
v 90.119965 191.341644 453.063660
v 37.328926 -461.939789 187.665131
v 95.670784 97.545097 480.969757
v 19.030115 -490.392700 95.670807
v 97.544975 -0.000102 490.392395
v 19.030119 490.392609 95.670975
v 95.670784 -97.545235 480.969696
v 0.000009 191.341644 461.939697
v -0.000036 97.545097 490.392517
v 0.000001 -461.939789 191.341690
v -0.000001 -490.392700 97.545113
v -0.000133 -0.000103 499.999695
v 0.000001 490.392609 97.545280
v -0.000036 -97.545235 490.392456
v -0.000014 461.939728 191.341843
v -0.000059 -191.341782 461.939728
v -0.000032 415.734772 277.785126
v -0.000021 -277.785156 415.734650
v 0.000023 353.553314 353.553406
v 0.000023 -353.553436 353.553284
v -0.000006 277.785065 415.734680
v -0.000032 -415.734863 277.785004
v -90.120026 -191.341782 453.063660
v -81.105827 -277.785156 407.746399
v -54.193203 415.734772 272.447571
v -68.974808 353.553314 346.759979
v -68.974808 -353.553436 346.759857
v -81.105804 277.785065 407.746429
v -54.193203 -415.734863 272.447449
v -90.119942 191.341644 453.063629
v -37.328922 -461.939789 187.665115
v -95.670860 97.545097 480.969727
v -19.030113 -490.392700 95.670807
v -97.545227 -0.000102 490.392303
v -19.030115 490.392609 95.670975
v -95.670860 -97.545235 480.969666
v -37.328938 461.939728 187.665268
v -73.223312 -461.939789 176.776657
v -37.328911 -490.392670 90.119926
v -187.665085 97.545097 453.063568
v -191.341705 -0.000097 461.939392
v -37.328915 490.392639 90.120094
v -187.665085 -97.545235 453.063507
v -73.223328 461.939728 176.776810
v -176.776718 -191.341782 426.776611
v -106.303757 415.734772 256.639954
v -159.094772 -277.785156 384.088715
v -135.298965 353.553314 326.640747
v -135.298965 -353.553436 326.640625
v -159.094742 277.785065 384.088745
v -106.303757 -415.734863 256.639832
v -176.776611 191.341644 426.776611
v -154.329102 415.734772 230.969849
v -196.423660 353.553314 293.968903
v -230.969772 -277.785156 345.670715
v -196.423660 -353.553436 293.968781
v -230.969757 277.785065 345.670746
v -154.329102 -415.734863 230.969727
v -256.639893 191.341660 384.088806
v -106.303772 -461.939789 159.094772
v -272.447479 97.545105 407.746429
v -54.193176 -490.392670 81.105782
v -277.785034 -0.000090 415.734406
v -54.193184 490.392639 81.105949
v -272.447479 -97.545227 407.746368
v -106.303787 461.939728 159.094925
v -256.639984 -191.341766 384.088776
v -346.759827 97.545120 346.759827
v -353.553223 -0.000080 353.553009
v -68.974838 490.392639 68.974953
v -68.974831 -490.392670 68.974792
v -346.759827 -97.545212 346.759766
v -135.299042 461.939728 135.299118
v -326.640717 -191.341751 326.640625
v -196.423660 415.734772 196.423706
v -293.968781 -277.785156 293.968781
v -249.999893 353.553345 250.000031
v -249.999893 -353.553406 249.999908
v -293.968750 277.785065 293.968842
v -196.423660 -415.734863 196.423584
v -326.640625 191.341675 326.640686
v -135.299026 -461.939789 135.298965
v -345.670715 -277.785126 230.969772
v -293.968811 -353.553406 196.423660
v -293.968811 353.553345 196.423782
v -345.670685 277.785095 230.969864
v -230.969772 -415.734863 154.328995
v -384.088745 191.341675 256.639954
v -159.094818 -461.939789 106.303703
v -407.746399 97.545128 272.447449
v -81.105820 -490.392670 54.193134
v -415.734558 -0.000067 277.784729
v -81.105827 490.392639 54.193302
v -407.746399 -97.545204 272.447388
v -159.094818 461.939728 106.303856
v -384.088837 -191.341751 256.639862
v -230.969772 415.734772 154.329117
v -90.119949 -490.392670 37.328865
v -461.939423 -0.000053 191.341370
v -453.063507 -97.545189 187.664993
v -90.119965 490.392639 37.329033
v -176.776672 461.939758 73.223396
v -426.776642 -191.341736 176.776581
v -256.639832 415.734772 106.303772
v -384.088684 -277.785126 159.094742
v -326.640625 353.553345 135.299088
v -326.640625 -353.553406 135.298965
v -384.088654 277.785095 159.094833
v -256.639832 -415.734863 106.303635
v -426.776550 191.341690 176.776672
v -176.776657 -461.939758 73.223244
v -453.063507 97.545143 187.665024
v -346.759857 -353.553375 68.974808
v -272.447418 -415.734833 54.193089
v -407.746368 277.785126 81.105873
v -453.063568 191.341705 90.119980
v -187.665085 -461.939758 37.328865
v -480.969635 97.545158 95.670792
v -95.670830 -490.392670 19.030066
v -490.392212 -0.000038 97.544876
v -95.670845 490.392639 19.030230
v -480.969635 -97.545174 95.670761
v -187.665100 461.939758 37.329014
v -453.063629 -191.341721 90.119873
v -272.447418 415.734802 54.193226
v -407.746368 -277.785095 81.105774
v -346.759857 353.553375 68.974930
v -97.545143 490.392639 0.000116
v -191.341675 461.939758 0.000098
v -490.392395 -97.545158 -0.000052
v -461.939667 -191.341705 -0.000090
v -277.784943 415.734802 0.000065
v -415.734589 -277.785095 -0.000029
v -353.553253 353.553375 0.000104
v -353.553253 -353.553375 -0.000012
v -415.734589 277.785126 0.000068
v -277.784943 -415.734833 -0.000071
v -461.939606 191.341721 0.000032
v -191.341660 -461.939758 -0.000044
v -490.392395 97.545174 -0.000020
v -97.545128 -490.392670 -0.000046
v -499.999512 -0.000022 -0.000193
v -407.746338 277.785126 -81.105728
v -453.063538 191.341736 -90.119911
v -272.447388 -415.734833 -54.193226
v -187.665054 -461.939758 -37.328953
v -480.969604 97.545189 -95.670837
v -95.670822 -490.392670 -19.030155
v -490.392120 -0.000006 -97.545258
v -95.670837 490.392639 -19.029997
v -480.969604 -97.545143 -95.670868
v -187.665070 461.939758 -37.328808
v -453.063599 -191.341690 -90.120049
v -272.447388 415.734802 -54.193089
v -407.746338 -277.785095 -81.105827
v -346.759827 353.553375 -68.974716
v -346.759827 -353.553375 -68.974838
v -453.063446 -97.545128 -187.665085
v -426.776550 -191.341675 -176.776733
v -176.776611 461.939758 -73.223190
v -256.639801 415.734833 -106.303627
v -384.088654 -277.785065 -159.094772
v -326.640594 353.553406 -135.298874
v -326.640594 -353.553345 -135.298996
v -384.088654 277.785156 -159.094681
v -256.639801 -415.734802 -106.303764
v -426.776520 191.341751 -176.776581
v -176.776611 -461.939758 -73.223328
v -453.063446 97.545204 -187.665054
v -90.119934 -490.392670 -37.328949
v -461.939240 0.000009 -191.341721
v -90.119949 490.392639 -37.328793
v -230.969696 -415.734802 -154.329086
v -159.094742 -461.939728 -106.303772
v -384.088715 191.341766 -256.639832
v -407.746307 97.545219 -272.447418
v -81.105789 -490.392670 -54.193211
v -415.734253 0.000023 -277.785004
v -81.105804 490.392639 -54.193058
v -407.746307 -97.545113 -272.447479
v -159.094742 461.939789 -106.303627
v -384.088715 -191.341660 -256.639984
v -230.969696 415.734833 -154.328964
v -345.670685 -277.785065 -230.969788
v -293.968811 353.553406 -196.423553
v -293.968811 -353.553345 -196.423676
v -345.670685 277.785156 -230.969696
v -135.298935 461.939789 -135.298874
v -196.423538 415.734833 -196.423523
v -326.640594 -191.341660 -326.640686
v -293.968750 -277.785034 -293.968750
v -249.999908 353.553406 -249.999802
v -249.999908 -353.553345 -249.999924
v -293.968750 277.785187 -293.968689
v -196.423538 -415.734802 -196.423645
v -326.640594 191.341766 -326.640564
v -135.298935 -461.939728 -135.299011
v -346.759735 97.545227 -346.759766
v -68.974800 -490.392670 -68.974854
v -353.552856 0.000036 -353.553162
v -68.974808 490.392639 -68.974716
v -346.759735 -97.545105 -346.759827
v -256.639862 191.341782 -384.088684
v -272.447357 97.545242 -407.746338
v -106.303688 -461.939728 -159.094803
v -54.193150 -490.392670 -81.105835
v -277.784607 0.000046 -415.734467
v -54.193153 490.392639 -81.105698
v -272.447357 -97.545090 -407.746399
v -106.303688 461.939789 -159.094666
v -256.639862 -191.341644 -384.088806
v -154.328964 415.734833 -230.969635
v -230.969742 -277.785034 -345.670685
v -196.423645 353.553436 -293.968689
v -196.423645 -353.553314 -293.968811
v -230.969742 277.785187 -345.670624
v -154.328964 -415.734802 -230.969757
v -176.776566 -191.341629 -426.776611
v -159.094711 -277.785034 -384.088623
v -106.303612 415.734833 -256.639679
v -135.298950 353.553436 -326.640503
v -135.298950 -353.553314 -326.640625
v -159.094711 277.785187 -384.088562
v -106.303612 -415.734802 -256.639801
v -176.776581 191.341797 -426.776489
v -73.223244 -461.939728 -176.776657
v -187.664948 97.545250 -453.063446
v -37.328884 -490.392670 -90.119965
v -191.341263 0.000053 -461.939301
v -37.328884 490.392639 -90.119827
v -187.664948 -97.545082 -453.063507
v -73.223236 461.939789 -176.776520
v -37.328865 -461.939728 -187.665085
v -19.030092 -490.392639 -95.670837
v -95.670700 97.545250 -480.969574
v -97.544792 0.000058 -490.392090
v -19.030088 490.392670 -95.670700
v -95.670700 -97.545082 -480.969635
v -37.328854 461.939789 -187.664948
v -90.119858 -191.341629 -453.063599
v -54.193073 415.734833 -272.447235
v -81.105766 -277.785034 -407.746307
v -68.974800 353.553436 -346.759735
v -68.974800 -353.553314 -346.759857
v -81.105766 277.785187 -407.746246
v -54.193073 -415.734802 -272.447357
v -90.119888 191.341797 -453.063477
vt 0.829805 0.458723
vt 0.870748 0.458723
vt 0.870748 0.515408
vt 0.829805 0.515408
vt 0.334712 0.458723
vt 0.416597 0.458723
vt 0.416597 0.515408
vt 0.334712 0.515408
vt 0.788862 0.458723
vt 0.788862 0.515408
vt 0.252827 0.458723
vt 0.252827 0.515408
vt 0.747920 0.458723
vt 0.747920 0.515408
vt 0.170941 0.458723
vt 0.170941 0.515408
vt 0.706977 0.458723
vt 0.706977 0.515408
vt 0.089056 0.458723
vt 0.089056 0.515408
vt 0.662253 0.458723
vt 0.662253 0.515408
vt 0.952633 0.458723
vt 0.993575 0.487065
vt 0.952633 0.515408
vt 0.007171 0.487065
vt 0.580368 0.458723
vt 0.580368 0.515408
vt 0.911690 0.458723
vt 0.911690 0.515408
vt 0.498482 0.458723
vt 0.498482 0.515408
vt 0.580368 0.572094
vt 0.498482 0.572094
vt 0.911690 0.572094
vt 0.870748 0.572094
vt 0.416597 0.572094
vt 0.829805 0.572094
vt 0.334712 0.572094
vt 0.788862 0.572094
vt 0.252827 0.572094
vt 0.747920 0.572094
vt 0.170941 0.572094
vt 0.706977 0.572094
vt 0.089056 0.572094
vt 0.662253 0.572094
vt 0.993575 0.543751
vt 0.952633 0.572094
vt 0.007171 0.543751
vt 0.252827 0.628779
vt 0.170941 0.628779
vt 0.747920 0.628779
vt 0.706977 0.628779
vt 0.089056 0.628779
vt 0.662253 0.628779
vt 0.993575 0.600436
vt 0.952633 0.628779
vt 0.007171 0.600436
vt 0.580368 0.628779
vt 0.911690 0.628779
vt 0.498482 0.628779
vt 0.870748 0.628779
vt 0.416597 0.628779
vt 0.829805 0.628779
vt 0.334712 0.628779
vt 0.788862 0.628779
vt 0.498482 0.685465
vt 0.416597 0.685465
vt 0.870748 0.685465
vt 0.829805 0.685465
vt 0.334712 0.685465
vt 0.788862 0.685465
vt 0.252827 0.685465
vt 0.747920 0.685465
vt 0.170941 0.685465
vt 0.706977 0.685465
vt 0.089056 0.685465
vt 0.662253 0.685465
vt 0.993575 0.657122
vt 0.952633 0.685465
vt 0.007171 0.657122
vt 0.580368 0.685465
vt 0.911690 0.685465
vt 0.170941 0.742150
vt 0.089056 0.742150
vt 0.706977 0.742150
vt 0.662253 0.742150
vt 0.993575 0.713807
vt 0.952633 0.742150
vt 0.007171 0.713807
vt 0.580368 0.742150
vt 0.911690 0.742150
vt 0.498482 0.742150
vt 0.870748 0.742150
vt 0.416597 0.742150
vt 0.829805 0.742150
vt 0.334712 0.742150
vt 0.788862 0.742150
vt 0.252827 0.742150
vt 0.747920 0.742150
vt 0.870748 0.798836
vt 0.829805 0.798836
vt 0.416597 0.798836
vt 0.334712 0.798836
vt 0.788862 0.798836
vt 0.252827 0.798836
vt 0.747920 0.798836
vt 0.170941 0.798836
vt 0.706977 0.798836
vt 0.089056 0.798836
vt 0.662253 0.798836
vt 0.993575 0.770493
vt 0.952633 0.798836
vt 0.007171 0.770493
vt 0.580368 0.798836
vt 0.911690 0.798836
vt 0.498482 0.798836
vt 0.706977 0.855521
vt 0.662253 0.855521
vt 0.993575 0.827178
vt 0.952633 0.855521
vt 0.007171 0.827178
vt 0.089056 0.855521
vt 0.580368 0.855521
vt 0.911690 0.855521
vt 0.498482 0.855521
vt 0.870748 0.855521
vt 0.416597 0.855521
vt 0.829805 0.855521
vt 0.334712 0.855521
vt 0.788862 0.855521
vt 0.252827 0.855521
vt 0.747920 0.855521
vt 0.170941 0.855521
vt 0.416597 0.899722
vt 0.334712 0.899722
vt 0.829805 0.899722
vt 0.788862 0.899722
vt 0.252827 0.899722
vt 0.747920 0.899722
vt 0.170941 0.899722
vt 0.706977 0.899722
vt 0.089056 0.899722
vt 0.662253 0.899722
vt 0.993575 0.883864
vt 0.952633 0.899722
vt 0.007171 0.883864
vt 0.580368 0.899722
vt 0.911690 0.899722
vt 0.498482 0.899722
vt 0.870748 0.899722
vt 0.993575 0.926446
vt 0.952633 0.955110
vt 0.007171 0.926446
vt 0.089056 0.955110
vt 0.662253 0.955110
vt 0.580368 0.955110
vt 0.911690 0.955110
vt 0.498482 0.955110
vt 0.870748 0.955110
vt 0.416597 0.955110
vt 0.829805 0.955110
vt 0.334712 0.955110
vt 0.788862 0.955110
vt 0.252827 0.955110
vt 0.747920 0.955110
vt 0.170941 0.955110
vt 0.706977 0.955110
vt 0.829805 1.012437
vt 0.788862 1.012437
vt 0.334712 1.012437
vt 0.252827 1.012437
vt 0.747920 1.012437
vt 0.170941 1.012437
vt 0.706977 1.012437
vt 0.089056 1.012437
vt 0.662253 1.012437
vt 0.993575 0.983774
vt 0.952633 1.012437
vt 0.007171 0.983774
vt 0.580368 1.012437
vt 0.911690 1.012437
vt 0.498482 1.012437
vt 0.870748 1.012437
vt 0.416597 1.012437
vt 0.662253 1.069764
vt 0.580368 1.069764
vt 0.952633 1.069764
vt 0.911690 1.069764
vt 0.498482 1.069764
vt 0.870748 1.069764
vt 0.416597 1.069764
vt 0.829805 1.069764
vt 0.334712 1.069764
vt 0.788862 1.069764
vt 0.252827 1.069764
vt 0.747920 1.069764
vt 0.170941 1.069764
vt 0.706977 1.069764
vt 0.089056 1.069764
vt 0.993575 1.041101
vt 0.007171 1.041101
vt 0.334712 1.127091
vt 0.252827 1.127091
vt 0.788862 1.127091
vt 0.747920 1.127091
vt 0.170941 1.127091
vt 0.706977 1.127091
vt 0.089056 1.127091
vt 0.662253 1.127091
vt 0.993575 1.098428
vt 0.952633 1.127091
vt 0.007171 1.098428
vt 0.580368 1.127091
vt 0.911690 1.127091
vt 0.498482 1.127091
vt 0.870748 1.127091
vt 0.416597 1.127091
vt 0.829805 1.127091
vt 0.580368 1.184418
vt 0.498482 1.184418
vt 0.911690 1.184418
vt 0.870748 1.184418
vt 0.416597 1.184418
vt 0.829805 1.184418
vt 0.334712 1.184418
vt 0.788862 1.184418
vt 0.252827 1.184418
vt 0.747920 1.184418
vt 0.170941 1.184418
vt 0.706977 1.184418
vt 0.089056 1.184418
vt 0.662253 1.184418
vt 0.993575 1.155755
vt 0.952633 1.184418
vt 0.007171 1.155755
vt 0.252827 1.241745
vt 0.170941 1.241745
vt 0.747920 1.241745
vt 0.706977 1.241745
vt 0.089056 1.241745
vt 0.662253 1.241745
vt 0.993575 1.213082
vt 0.952633 1.241745
vt 0.007171 1.213082
vt 0.580368 1.241745
vt 0.911690 1.241745
vt 0.498482 1.241745
vt 0.870748 1.241745
vt 0.416597 1.241745
vt 0.829805 1.241745
vt 0.334712 1.241745
vt 0.788862 1.241745
vt 0.911690 1.299073
vt 0.870748 1.299073
vt 0.498482 1.299073
vt 0.416597 1.299073
vt 0.829805 1.299073
vt 0.334712 1.299073
vt 0.788862 1.299073
vt 0.252827 1.299073
vt 0.747920 1.299073
vt 0.170941 1.299073
vt 0.706977 1.299073
vt 0.089056 1.299073
vt 0.662253 1.299073
vt 0.993575 1.270409
vt 0.952633 1.299073
vt 0.007171 1.270409
vt 0.580368 1.299073
vt 0.747920 1.356400
vt 0.706977 1.356400
vt 0.170941 1.356400
vt 0.089056 1.356400
vt 0.662253 1.356400
vt 0.993575 1.327736
vt 0.952633 1.356400
vt 0.007171 1.327736
vt 0.580368 1.356400
vt 0.911690 1.356400
vt 0.498482 1.356400
vt 0.870748 1.356400
vt 0.416597 1.356400
vt 0.829805 1.356400
vt 0.334712 1.356400
vt 0.788862 1.356400
vt 0.252827 1.356400
vt 0.498482 1.413727
vt 0.416597 1.413727
vt 0.870748 1.413727
vt 0.829805 1.413727
vt 0.334712 1.413727
vt 0.788862 1.413727
vt 0.252827 1.413727
vt 0.747920 1.413727
vt 0.170941 1.413727
vt 0.706977 1.413727
vt 0.089056 1.413727
vt 0.662253 1.413727
vt 0.993575 1.385063
vt 0.952633 1.413727
vt 0.007171 1.385063
vt 0.580368 1.413727
vt 0.911690 1.413727
vt 0.170941 1.471054
vt 0.089056 1.471054
vt 0.706977 1.471054
vt 0.662253 1.471054
vt 0.993575 1.442390
vt 0.952633 1.471054
vt 0.007171 1.442390
vt 0.580368 1.471054
vt 0.911690 1.471054
vt 0.498482 1.471054
vt 0.870748 1.471054
vt 0.416597 1.471054
vt 0.829805 1.471054
vt 0.334712 1.471054
vt 0.788862 1.471054
vt 0.252827 1.471054
vt 0.747920 1.471054
vt 0.870748 1.528381
vt 0.829805 1.528381
vt 0.416597 1.528381
vt 0.334712 1.528381
vt 0.788862 1.528381
vt 0.252827 1.528381
vt 0.747920 1.528381
vt 0.170941 1.528381
vt 0.706977 1.528381
vt 0.089056 1.528381
vt 0.662253 1.528381
vt 0.993575 1.499717
vt 0.952633 1.528381
vt 0.007171 1.499717
vt 0.580368 1.528381
vt 0.911690 1.528381
vt 0.498482 1.528381
vt 0.706977 1.585708
vt 0.662253 1.585708
vt 0.993575 1.557044
vt 0.952633 1.585708
vt 0.007171 1.557044
vt 0.089056 1.585708
vt 0.580368 1.585708
vt 0.911690 1.585708
vt 0.498482 1.585708
vt 0.870748 1.585708
vt 0.416597 1.585708
vt 0.829805 1.585708
vt 0.334712 1.585708
vt 0.788862 1.585708
vt 0.252827 1.585708
vt 0.747920 1.585708
vt 0.170941 1.585708
vt 0.416597 1.643035
vt 0.334712 1.643035
vt 0.829805 1.643035
vt 0.788862 1.643035
vt 0.252827 1.643035
vt 0.747920 1.643035
vt 0.170941 1.643035
vt 0.706977 1.643035
vt 0.089056 1.643035
vt 0.662253 1.643035
vt 0.993575 1.614371
vt 0.952633 1.643035
vt 0.007171 1.614371
vt 0.580368 1.643035
vt 0.911690 1.643035
vt 0.498482 1.643035
vt 0.870748 1.643035
vt 0.007171 1.671698
vt 0.089056 1.700362
vt 0.662253 1.700362
vt 0.580368 1.700362
vt 0.952633 1.700362
vt 0.911690 1.700362
vt 0.498482 1.700362
vt 0.870748 1.700362
vt 0.416597 1.700362
vt 0.829805 1.700362
vt 0.334712 1.700362
vt 0.788862 1.700362
vt 0.252827 1.700362
vt 0.747920 1.700362
vt 0.170941 1.700362
vt 0.706977 1.700362
vt 0.993575 1.671698
vt 0.334712 1.757689
vt 0.252827 1.757689
vt 0.788862 1.757689
vt 0.747920 1.757689
vt 0.170941 1.757689
vt 0.706977 1.757689
vt 0.089056 1.757689
vt 0.662253 1.757689
vt 0.993575 1.729026
vt 0.952633 1.757689
vt 0.007171 1.729026
vt 0.580368 1.757689
vt 0.911690 1.757689
vt 0.498482 1.757689
vt 0.870748 1.757689
vt 0.416597 1.757689
vt 0.829805 1.757689
vt 0.952633 1.815016
vt 0.911690 1.815016
vt 0.580368 1.815016
vt 0.498482 1.815016
vt 0.870748 1.815016
vt 0.416597 1.815016
vt 0.829805 1.815016
vt 0.334712 1.815016
vt 0.788862 1.815016
vt 0.252827 1.815016
vt 0.747920 1.815016
vt 0.170941 1.815016
vt 0.706977 1.815016
vt 0.089056 1.815016
vt 0.662253 1.815016
vt 0.993575 1.786353
vt 0.007171 1.786353
vt 0.747920 0.005239
vt 0.788862 0.005239
vt 0.788862 0.061924
vt 0.747920 0.061924
vt 0.170941 0.005239
vt 0.252827 0.005239
vt 0.252827 0.061924
vt 0.170941 0.061924
vt 0.706977 0.005239
vt 0.706977 0.061924
vt 0.089056 0.005239
vt 0.089056 0.061924
vt 0.662253 0.005239
vt 0.662253 0.061924
vt 0.952633 0.005239
vt 0.993575 0.033581
vt 0.952633 0.061924
vt 0.007171 0.033581
vt 0.580368 0.005239
vt 0.580368 0.061924
vt 0.911690 0.005239
vt 0.911690 0.061924
vt 0.498482 0.005239
vt 0.498482 0.061924
vt 0.870748 0.005239
vt 0.870748 0.061924
vt 0.416597 0.005239
vt 0.416597 0.061924
vt 0.829805 0.005239
vt 0.829805 0.061924
vt 0.334712 0.005239
vt 0.334712 0.061924
vt 0.580368 0.118610
vt 0.498482 0.118610
vt 0.911690 0.118610
vt 0.870748 0.118610
vt 0.416597 0.118610
vt 0.829805 0.118610
vt 0.334712 0.118610
vt 0.788862 0.118610
vt 0.252827 0.118610
vt 0.747920 0.118610
vt 0.170941 0.118610
vt 0.706977 0.118610
vt 0.089056 0.118610
vt 0.662253 0.118610
vt 0.993575 0.090267
vt 0.952633 0.118610
vt 0.007171 0.090267
vt 0.252827 0.175295
vt 0.170941 0.175295
vt 0.747920 0.175295
vt 0.706977 0.175295
vt 0.089056 0.175295
vt 0.662253 0.175295
vt 0.993575 0.146952
vt 0.952633 0.175295
vt 0.007171 0.146952
vt 0.580368 0.175295
vt 0.911690 0.175295
vt 0.498482 0.175295
vt 0.870748 0.175295
vt 0.416597 0.175295
vt 0.829805 0.175295
vt 0.334712 0.175295
vt 0.788862 0.175295
vt 0.911690 0.231981
vt 0.870748 0.231981
vt 0.498482 0.231981
vt 0.416597 0.231981
vt 0.829805 0.231981
vt 0.334712 0.231981
vt 0.788862 0.231981
vt 0.252827 0.231981
vt 0.747920 0.231981
vt 0.170941 0.231981
vt 0.706977 0.231981
vt 0.089056 0.231981
vt 0.662253 0.231981
vt 0.993575 0.203638
vt 0.952633 0.231981
vt 0.007171 0.203638
vt 0.580368 0.231981
vt 0.747920 0.288666
vt 0.706977 0.288666
vt 0.170941 0.288666
vt 0.089056 0.288666
vt 0.662253 0.288666
vt 0.993575 0.260323
vt 0.952633 0.288666
vt 0.007171 0.260323
vt 0.580368 0.288666
vt 0.911690 0.288666
vt 0.498482 0.288666
vt 0.870748 0.288666
vt 0.416597 0.288666
vt 0.829805 0.288666
vt 0.334712 0.288666
vt 0.788862 0.288666
vt 0.252827 0.288666
vt 0.498482 0.345352
vt 0.416597 0.345352
vt 0.870748 0.345352
vt 0.829805 0.345352
vt 0.334712 0.345352
vt 0.788862 0.345352
vt 0.252827 0.345352
vt 0.747920 0.345352
vt 0.170941 0.345352
vt 0.706977 0.345352
vt 0.089056 0.345352
vt 0.662253 0.345352
vt 0.993575 0.317009
vt 0.952633 0.345352
vt 0.007171 0.317009
vt 0.580368 0.345352
vt 0.911690 0.345352
vt 0.170941 0.402037
vt 0.089056 0.402037
vt 0.706977 0.402037
vt 0.662253 0.402037
vt 0.993575 0.373694
vt 0.952633 0.402037
vt 0.007171 0.373694
vt 0.580368 0.402037
vt 0.911690 0.402037
vt 0.498482 0.402037
vt 0.870748 0.402037
vt 0.416597 0.402037
vt 0.829805 0.402037
vt 0.334712 0.402037
vt 0.788862 0.402037
vt 0.252827 0.402037
vt 0.747920 0.402037
vt 0.993575 0.430380
vt 0.007171 0.430380
vn 0.0624 0.7715 -0.6332
vn 0.0759 -0.6326 -0.7708
vn 0.0759 0.6326 -0.7708
vn 0.0624 -0.7715 -0.6332
vn 0.0865 0.4696 -0.8786
vn 0.0464 -0.8810 -0.4709
vn 0.0938 0.2890 -0.9527
vn 0.0286 -0.9565 -0.2902
vn 0.0975 0.0975 -0.9904
vn 0.0097 0.9951 -0.0980
vn 0.0097 -0.9951 -0.0980
vn 0.0975 -0.0975 -0.9904
vn 0.0286 0.9565 -0.2902
vn 0.0938 -0.2890 -0.9527
vn 0.0464 0.8810 -0.4709
vn 0.0865 -0.4696 -0.8786
vn 0.2779 -0.2890 -0.9161
vn 0.1374 0.8810 -0.4528
vn 0.2563 -0.4696 -0.8448
vn 0.1847 0.7715 -0.6088
vn 0.2248 -0.6326 -0.7412
vn 0.2248 0.6326 -0.7412
vn 0.1847 -0.7715 -0.6088
vn 0.2563 0.4696 -0.8448
vn 0.1374 -0.8810 -0.4528
vn 0.2779 0.2890 -0.9161
vn 0.0846 -0.9565 -0.2790
vn 0.2889 0.0976 -0.9524
vn 0.0286 0.9951 -0.0942
vn 0.0286 -0.9951 -0.0942
vn 0.2889 -0.0975 -0.9524
vn 0.0846 0.9565 -0.2790
vn 0.2230 -0.8810 -0.4173
vn 0.4513 0.2890 -0.8443
vn 0.1374 -0.9565 -0.2571
vn 0.4691 0.0975 -0.8777
vn 0.0464 0.9951 -0.0869
vn 0.0464 -0.9951 -0.0869
vn 0.4691 -0.0975 -0.8777
vn 0.1374 0.9565 -0.2571
vn 0.4513 -0.2890 -0.8443
vn 0.2230 0.8810 -0.4173
vn 0.4162 -0.4696 -0.7786
vn 0.2999 0.7715 -0.5611
vn 0.3651 -0.6326 -0.6831
vn 0.3651 0.6326 -0.6831
vn 0.2999 -0.7715 -0.5611
vn 0.4162 0.4696 -0.7786
vn 0.5601 -0.4696 -0.6825
vn 0.4036 0.7715 -0.4918
vn 0.4913 -0.6326 -0.5987
vn 0.4913 0.6326 -0.5987
vn 0.4036 -0.7715 -0.4918
vn 0.5601 0.4696 -0.6825
vn 0.3002 -0.8810 -0.3658
vn 0.6073 0.2890 -0.7400
vn 0.1850 -0.9565 -0.2254
vn 0.6314 0.0975 -0.7693
vn 0.0625 0.9951 -0.0761
vn 0.0625 -0.9951 -0.0761
vn 0.6314 -0.0975 -0.7693
vn 0.1850 0.9565 -0.2254
vn 0.6073 -0.2890 -0.7400
vn 0.3002 0.8810 -0.3658
vn 0.2254 -0.9565 -0.1850
vn 0.7693 0.0975 -0.6314
vn 0.0761 0.9951 -0.0625
vn 0.0761 -0.9951 -0.0625
vn 0.7693 -0.0975 -0.6314
vn 0.2254 0.9565 -0.1850
vn 0.7400 -0.2890 -0.6073
vn 0.3658 0.8810 -0.3002
vn 0.6825 -0.4696 -0.5601
vn 0.4918 0.7715 -0.4036
vn 0.5987 -0.6326 -0.4913
vn 0.5987 0.6326 -0.4913
vn 0.4918 -0.7715 -0.4036
vn 0.6825 0.4696 -0.5601
vn 0.3658 -0.8810 -0.3002
vn 0.7400 0.2890 -0.6073
vn 0.5611 0.7715 -0.2999
vn 0.6831 -0.6326 -0.3651
vn 0.6831 0.6326 -0.3651
vn 0.5611 -0.7715 -0.2999
vn 0.7786 0.4696 -0.4162
vn 0.4173 -0.8810 -0.2230
vn 0.8443 0.2890 -0.4513
vn 0.2571 -0.9565 -0.1374
vn 0.8777 0.0975 -0.4691
vn 0.0869 0.9951 -0.0464
vn 0.0869 -0.9951 -0.0464
vn 0.8777 -0.0975 -0.4691
vn 0.2571 0.9565 -0.1374
vn 0.8443 -0.2890 -0.4513
vn 0.4173 0.8810 -0.2230
vn 0.7786 -0.4696 -0.4162
vn 0.9524 0.0975 -0.2889
vn 0.0942 0.9951 -0.0286
vn 0.0942 -0.9951 -0.0286
vn 0.9524 -0.0975 -0.2889
vn 0.2790 0.9565 -0.0846
vn 0.9161 -0.2890 -0.2779
vn 0.4528 0.8810 -0.1374
vn 0.8448 -0.4696 -0.2563
vn 0.6088 0.7715 -0.1847
vn 0.7412 -0.6326 -0.2248
vn 0.7412 0.6326 -0.2248
vn 0.6088 -0.7715 -0.1847
vn 0.8448 0.4696 -0.2563
vn 0.4528 -0.8810 -0.1374
vn 0.9161 0.2890 -0.2779
vn 0.2790 -0.9565 -0.0846
vn 0.7708 -0.6326 -0.0759
vn 0.7708 0.6326 -0.0759
vn 0.6332 -0.7715 -0.0624
vn 0.8786 0.4696 -0.0865
vn 0.4709 -0.8810 -0.0464
vn 0.9527 0.2890 -0.0938
vn 0.2902 -0.9565 -0.0286
vn 0.9904 0.0975 -0.0975
vn 0.0980 0.9951 -0.0097
vn 0.0980 -0.9951 -0.0097
vn 0.9904 -0.0975 -0.0975
vn 0.2902 0.9565 -0.0286
vn 0.9527 -0.2890 -0.0938
vn 0.4709 0.8810 -0.0464
vn 0.8786 -0.4696 -0.0865
vn 0.6332 0.7715 -0.0624
vn 0.0980 0.9951 0.0097
vn 0.0980 -0.9951 0.0097
vn 0.9904 -0.0975 0.0976
vn 0.2902 0.9565 0.0286
vn 0.9527 -0.2890 0.0938
vn 0.4709 0.8810 0.0464
vn 0.8786 -0.4696 0.0865
vn 0.6332 0.7715 0.0624
vn 0.7708 -0.6326 0.0759
vn 0.7708 0.6326 0.0759
vn 0.6332 -0.7715 0.0624
vn 0.8786 0.4696 0.0865
vn 0.4709 -0.8810 0.0464
vn 0.9527 0.2890 0.0938
vn 0.2902 -0.9565 0.0286
vn 0.9904 0.0975 0.0976
vn 0.7412 0.6326 0.2248
vn 0.6088 -0.7715 0.1847
vn 0.8448 0.4696 0.2563
vn 0.4528 -0.8810 0.1374
vn 0.9161 0.2890 0.2779
vn 0.2790 -0.9565 0.0846
vn 0.9524 0.0975 0.2889
vn 0.0942 0.9951 0.0286
vn 0.0942 -0.9951 0.0286
vn 0.9524 -0.0975 0.2889
vn 0.2790 0.9565 0.0846
vn 0.9161 -0.2890 0.2779
vn 0.4528 0.8810 0.1374
vn 0.8448 -0.4696 0.2563
vn 0.6088 0.7715 0.1847
vn 0.7412 -0.6326 0.2248
vn 0.8777 -0.0975 0.4691
vn 0.2571 0.9565 0.1374
vn 0.8443 -0.2890 0.4513
vn 0.4173 0.8810 0.2230
vn 0.7786 -0.4696 0.4162
vn 0.5611 0.7715 0.2999
vn 0.6831 -0.6326 0.3651
vn 0.6831 0.6326 0.3651
vn 0.5611 -0.7715 0.2999
vn 0.7786 0.4696 0.4162
vn 0.4173 -0.8810 0.2230
vn 0.8443 0.2890 0.4513
vn 0.2571 -0.9565 0.1374
vn 0.8777 0.0975 0.4691
vn 0.0869 0.9951 0.0464
vn 0.0869 -0.9951 0.0464
vn 0.4918 -0.7715 0.4036
vn 0.6825 0.4696 0.5601
vn 0.3658 -0.8810 0.3002
vn 0.7400 0.2890 0.6073
vn 0.2254 -0.9565 0.1850
vn 0.7693 0.0975 0.6314
vn 0.0761 0.9951 0.0625
vn 0.0761 -0.9951 0.0625
vn 0.7693 -0.0975 0.6314
vn 0.2254 0.9565 0.1850
vn 0.7400 -0.2890 0.6073
vn 0.3658 0.8810 0.3002
vn 0.6825 -0.4696 0.5601
vn 0.4918 0.7715 0.4036
vn 0.5987 -0.6326 0.4913
vn 0.5987 0.6326 0.4913
vn 0.6073 -0.2890 0.7400
vn 0.3002 0.8810 0.3658
vn 0.5601 -0.4696 0.6825
vn 0.4036 0.7715 0.4918
vn 0.4913 -0.6326 0.5987
vn 0.4913 0.6326 0.5987
vn 0.4036 -0.7715 0.4918
vn 0.5601 0.4696 0.6825
vn 0.3002 -0.8810 0.3658
vn 0.6073 0.2890 0.7400
vn 0.1850 -0.9565 0.2254
vn 0.6314 0.0975 0.7693
vn 0.0625 0.9951 0.0761
vn 0.0625 -0.9951 0.0761
vn 0.6314 -0.0975 0.7693
vn 0.1850 0.9565 0.2254
vn 0.2230 -0.8810 0.4173
vn 0.4513 0.2890 0.8443
vn 0.1374 -0.9565 0.2571
vn 0.4691 0.0975 0.8777
vn 0.0464 0.9951 0.0869
vn 0.0464 -0.9951 0.0869
vn 0.4691 -0.0975 0.8777
vn 0.1374 0.9565 0.2571
vn 0.4513 -0.2890 0.8443
vn 0.2231 0.8810 0.4173
vn 0.4162 -0.4696 0.7786
vn 0.2999 0.7715 0.5611
vn 0.3651 -0.6326 0.6831
vn 0.3651 0.6326 0.6831
vn 0.2999 -0.7715 0.5611
vn 0.4162 0.4696 0.7786
vn 0.1374 0.8810 0.4528
vn 0.2563 -0.4696 0.8448
vn 0.1847 0.7715 0.6088
vn 0.2248 -0.6326 0.7412
vn 0.2248 0.6326 0.7412
vn 0.1847 -0.7715 0.6088
vn 0.2563 0.4696 0.8448
vn 0.1374 -0.8810 0.4528
vn 0.2779 0.2890 0.9161
vn 0.0846 -0.9565 0.2790
vn 0.2889 0.0975 0.9524
vn 0.0286 0.9951 0.0942
vn 0.0286 -0.9951 0.0942
vn 0.2889 -0.0975 0.9524
vn 0.0846 0.9565 0.2790
vn 0.2779 -0.2890 0.9161
vn 0.0938 0.2890 0.9527
vn 0.0286 -0.9565 0.2902
vn 0.0975 0.0975 0.9904
vn 0.0097 0.9951 0.0980
vn 0.0097 -0.9951 0.0980
vn 0.0975 -0.0975 0.9904
vn 0.0286 0.9565 0.2902
vn 0.0938 -0.2890 0.9527
vn 0.0464 0.8810 0.4709
vn 0.0865 -0.4696 0.8786
vn 0.0624 0.7715 0.6332
vn 0.0759 -0.6326 0.7708
vn 0.0759 0.6326 0.7708
vn 0.0624 -0.7715 0.6332
vn 0.0865 0.4696 0.8786
vn 0.0464 -0.8810 0.4709
vn -0.0865 -0.4696 0.8786
vn -0.0624 0.7715 0.6332
vn -0.0759 -0.6326 0.7708
vn -0.0759 0.6326 0.7708
vn -0.0624 -0.7715 0.6332
vn -0.0865 0.4696 0.8786
vn -0.0464 -0.8810 0.4709
vn -0.0938 0.2890 0.9527
vn -0.0286 -0.9565 0.2902
vn -0.0976 0.0975 0.9904
vn -0.0097 0.9951 0.0980
vn -0.0097 -0.9951 0.0980
vn -0.0975 -0.0975 0.9904
vn -0.0286 0.9565 0.2902
vn -0.0938 -0.2890 0.9527
vn -0.0464 0.8810 0.4709
vn -0.0846 -0.9565 0.2790
vn -0.2889 0.0975 0.9524
vn -0.0286 0.9951 0.0942
vn -0.0286 -0.9951 0.0942
vn -0.2889 -0.0975 0.9524
vn -0.0846 0.9565 0.2790
vn -0.2779 -0.2890 0.9161
vn -0.1374 0.8810 0.4528
vn -0.2563 -0.4696 0.8448
vn -0.1847 0.7715 0.6088
vn -0.2248 -0.6326 0.7412
vn -0.2248 0.6326 0.7412
vn -0.1847 -0.7715 0.6088
vn -0.2563 0.4696 0.8448
vn -0.1374 -0.8810 0.4528
vn -0.2779 0.2890 0.9161
vn -0.2999 0.7715 0.5611
vn -0.3651 -0.6326 0.6831
vn -0.3651 0.6326 0.6831
vn -0.2999 -0.7715 0.5611
vn -0.4162 0.4696 0.7786
vn -0.2230 -0.8810 0.4173
vn -0.4513 0.2890 0.8443
vn -0.1374 -0.9565 0.2571
vn -0.4691 0.0975 0.8777
vn -0.0464 0.9951 0.0869
vn -0.0464 -0.9951 0.0869
vn -0.4691 -0.0975 0.8777
vn -0.1374 0.9565 0.2571
vn -0.4513 -0.2890 0.8443
vn -0.2231 0.8810 0.4173
vn -0.4162 -0.4696 0.7786
vn -0.6314 0.0975 0.7693
vn -0.0625 0.9951 0.0761
vn -0.0625 -0.9951 0.0761
vn -0.6314 -0.0975 0.7693
vn -0.1850 0.9565 0.2254
vn -0.6073 -0.2890 0.7400
vn -0.3002 0.8810 0.3658
vn -0.5601 -0.4696 0.6825
vn -0.4036 0.7715 0.4918
vn -0.4913 -0.6326 0.5987
vn -0.4913 0.6326 0.5987
vn -0.4036 -0.7715 0.4918
vn -0.5601 0.4696 0.6825
vn -0.3002 -0.8810 0.3658
vn -0.6073 0.2890 0.7400
vn -0.1850 -0.9565 0.2254
vn -0.5987 -0.6326 0.4913
vn -0.5987 0.6326 0.4913
vn -0.4918 -0.7715 0.4036
vn -0.6825 0.4696 0.5601
vn -0.3658 -0.8810 0.3002
vn -0.7400 0.2890 0.6073
vn -0.2254 -0.9565 0.1850
vn -0.7693 0.0975 0.6314
vn -0.0761 0.9951 0.0625
vn -0.0761 -0.9951 0.0625
vn -0.7693 -0.0975 0.6314
vn -0.2254 0.9565 0.1850
vn -0.7400 -0.2890 0.6073
vn -0.3658 0.8810 0.3002
vn -0.6825 -0.4696 0.5601
vn -0.4918 0.7715 0.4036
vn -0.0869 -0.9951 0.0464
vn -0.8777 -0.0975 0.4691
vn -0.2571 0.9565 0.1374
vn -0.8443 -0.2890 0.4513
vn -0.4173 0.8810 0.2231
vn -0.7786 -0.4696 0.4162
vn -0.5611 0.7715 0.2999
vn -0.6831 -0.6326 0.3651
vn -0.6831 0.6326 0.3651
vn -0.5611 -0.7715 0.2999
vn -0.7786 0.4696 0.4162
vn -0.4173 -0.8810 0.2230
vn -0.8443 0.2890 0.4513
vn -0.2571 -0.9565 0.1374
vn -0.8777 0.0975 0.4691
vn -0.0869 0.9951 0.0464
vn -0.6088 -0.7715 0.1847
vn -0.8448 0.4696 0.2563
vn -0.4528 -0.8810 0.1374
vn -0.9161 0.2890 0.2779
vn -0.2790 -0.9565 0.0846
vn -0.9524 0.0975 0.2889
vn -0.0942 0.9951 0.0286
vn -0.0942 -0.9951 0.0286
vn -0.9524 -0.0975 0.2889
vn -0.2790 0.9565 0.0846
vn -0.9161 -0.2890 0.2779
vn -0.4528 0.8810 0.1374
vn -0.8448 -0.4696 0.2563
vn -0.6088 0.7715 0.1847
vn -0.7412 -0.6326 0.2248
vn -0.7412 0.6326 0.2248
vn -0.2902 0.9565 0.0286
vn -0.9527 -0.2890 0.0938
vn -0.4709 0.8810 0.0464
vn -0.8786 -0.4696 0.0865
vn -0.6332 0.7715 0.0624
vn -0.7708 -0.6326 0.0759
vn -0.7708 0.6326 0.0759
vn -0.6332 -0.7715 0.0624
vn -0.8786 0.4696 0.0865
vn -0.4709 -0.8810 0.0464
vn -0.9527 0.2890 0.0938
vn -0.2902 -0.9565 0.0286
vn -0.9904 0.0975 0.0975
vn -0.0980 0.9951 0.0097
vn -0.0980 -0.9951 0.0097
vn -0.9904 -0.0975 0.0975
vn -0.8786 0.4696 -0.0865
vn -0.4709 -0.8810 -0.0464
vn -0.9527 0.2890 -0.0938
vn -0.2902 -0.9565 -0.0286
vn -0.9904 0.0975 -0.0976
vn -0.0980 0.9951 -0.0097
vn -0.0980 -0.9951 -0.0097
vn -0.9904 -0.0975 -0.0976
vn -0.2902 0.9565 -0.0286
vn -0.9527 -0.2890 -0.0938
vn -0.4709 0.8810 -0.0464
vn -0.8786 -0.4696 -0.0865
vn -0.6332 0.7715 -0.0624
vn -0.7708 -0.6326 -0.0759
vn -0.7708 0.6326 -0.0759
vn -0.6332 -0.7715 -0.0624
vn -0.9161 -0.2890 -0.2779
vn -0.4528 0.8810 -0.1374
vn -0.8448 -0.4696 -0.2563
vn -0.6088 0.7715 -0.1847
vn -0.7412 -0.6326 -0.2248
vn -0.7412 0.6326 -0.2248
vn -0.6088 -0.7715 -0.1847
vn -0.8448 0.4696 -0.2563
vn -0.4528 -0.8810 -0.1374
vn -0.9161 0.2890 -0.2779
vn -0.2790 -0.9565 -0.0846
vn -0.9524 0.0975 -0.2889
vn -0.0942 0.9951 -0.0286
vn -0.0942 -0.9951 -0.0286
vn -0.9524 -0.0975 -0.2889
vn -0.2790 0.9565 -0.0846
vn -0.4173 -0.8810 -0.2230
vn -0.8443 0.2890 -0.4513
vn -0.2571 -0.9565 -0.1374
vn -0.8777 0.0975 -0.4691
vn -0.0869 0.9951 -0.0464
vn -0.0869 -0.9951 -0.0464
vn -0.8777 -0.0975 -0.4691
vn -0.2571 0.9565 -0.1374
vn -0.8443 -0.2890 -0.4513
vn -0.4173 0.8810 -0.2230
vn -0.7786 -0.4696 -0.4162
vn -0.5611 0.7715 -0.2999
vn -0.6831 -0.6326 -0.3651
vn -0.6831 0.6326 -0.3651
vn -0.5611 -0.7715 -0.2999
vn -0.7786 0.4696 -0.4162
vn -0.3658 0.8810 -0.3002
vn -0.6825 -0.4696 -0.5601
vn -0.4918 0.7715 -0.4036
vn -0.5987 -0.6326 -0.4913
vn -0.5987 0.6326 -0.4913
vn -0.4918 -0.7715 -0.4036
vn -0.6825 0.4696 -0.5601
vn -0.3658 -0.8810 -0.3002
vn -0.7400 0.2890 -0.6073
vn -0.2254 -0.9565 -0.1850
vn -0.7693 0.0975 -0.6314
vn -0.0761 0.9951 -0.0625
vn -0.0761 -0.9951 -0.0625
vn -0.7693 -0.0975 -0.6314
vn -0.2254 0.9565 -0.1850
vn -0.7400 -0.2890 -0.6073
vn -0.6073 0.2890 -0.7400
vn -0.1850 -0.9565 -0.2254
vn -0.6314 0.0975 -0.7693
vn -0.0625 0.9951 -0.0761
vn -0.0625 -0.9951 -0.0761
vn -0.6314 -0.0975 -0.7693
vn -0.1850 0.9565 -0.2254
vn -0.6073 -0.2890 -0.7400
vn -0.3002 0.8810 -0.3658
vn -0.5601 -0.4696 -0.6825
vn -0.4036 0.7715 -0.4918
vn -0.4913 -0.6326 -0.5987
vn -0.4913 0.6326 -0.5987
vn -0.4036 -0.7715 -0.4918
vn -0.5601 0.4696 -0.6825
vn -0.3002 -0.8810 -0.3658
vn -0.4162 -0.4696 -0.7786
vn -0.2999 0.7715 -0.5611
vn -0.3651 -0.6326 -0.6831
vn -0.3651 0.6326 -0.6831
vn -0.2999 -0.7715 -0.5611
vn -0.4162 0.4696 -0.7786
vn -0.2230 -0.8810 -0.4173
vn -0.4513 0.2890 -0.8443
vn -0.1374 -0.9565 -0.2571
vn -0.4691 0.0975 -0.8777
vn -0.0464 0.9951 -0.0869
vn -0.0464 -0.9951 -0.0869
vn -0.4691 -0.0975 -0.8777
vn -0.1374 0.9565 -0.2571
vn -0.4513 -0.2890 -0.8443
vn -0.2230 0.8810 -0.4173
vn -0.0846 -0.9565 -0.2790
vn -0.2889 0.0975 -0.9524
vn -0.0286 0.9951 -0.0942
vn -0.0286 -0.9951 -0.0942
vn -0.2889 -0.0975 -0.9524
vn -0.0846 0.9565 -0.2790
vn -0.2779 -0.2890 -0.9161
vn -0.1374 0.8810 -0.4528
vn -0.2563 -0.4696 -0.8448
vn -0.1847 0.7715 -0.6088
vn -0.2248 -0.6326 -0.7412
vn -0.2248 0.6326 -0.7412
vn -0.1847 -0.7715 -0.6088
vn -0.2563 0.4696 -0.8448
vn -0.1374 -0.8810 -0.4528
vn -0.2779 0.2890 -0.9161
vn -0.0759 -0.6326 -0.7708
vn -0.0759 0.6326 -0.7708
vn -0.0624 -0.7715 -0.6332
vn -0.0865 0.4696 -0.8786
vn -0.0464 -0.8810 -0.4709
vn -0.0938 0.2890 -0.9527
vn -0.0286 -0.9565 -0.2902
vn -0.0976 0.0975 -0.9904
vn -0.0097 0.9951 -0.0980
vn -0.0097 -0.9951 -0.0980
vn -0.0975 -0.0975 -0.9904
vn -0.0286 0.9565 -0.2902
vn -0.0938 -0.2890 -0.9527
vn -0.0464 0.8810 -0.4709
vn -0.0865 -0.4696 -0.8786
vn -0.0624 0.7715 -0.6332
usemtl Material.001
s 1
f 1/1/1 2/2/1 3/3/1 4/4/1
f 5/5/2 6/6/2 7/7/2 8/8/2
f 9/9/3 1/1/3 4/4/3 10/10/3
f 11/11/4 5/5/4 8/8/4 12/12/4
f 13/13/5 9/9/5 10/10/5 14/14/5
f 15/15/6 11/11/6 12/12/6 16/16/6
f 17/17/7 13/13/7 14/14/7 18/18/7
f 19/19/8 15/15/8 16/16/8 20/20/8
f 21/21/9 17/17/9 18/18/9 22/22/9
f 23/23/10 24/24/10 25/25/10
f 26/26/11 19/19/11 20/20/11
f 27/27/12 21/21/12 22/22/12 28/28/12
f 29/29/13 23/23/13 25/25/13 30/30/13
f 31/31/14 27/27/14 28/28/14 32/32/14
f 2/2/15 29/29/15 30/30/15 3/3/15
f 6/6/16 31/31/16 32/32/16 7/7/16
f 32/32/17 28/28/17 33/33/17 34/34/17
f 3/3/18 30/30/18 35/35/18 36/36/18
f 7/7/19 32/32/19 34/34/19 37/37/19
f 4/4/20 3/3/20 36/36/20 38/38/20
f 8/8/21 7/7/21 37/37/21 39/39/21
f 10/10/22 4/4/22 38/38/22 40/40/22
f 12/12/23 8/8/23 39/39/23 41/41/23
f 14/14/24 10/10/24 40/40/24 42/42/24
f 16/16/25 12/12/25 41/41/25 43/43/25
f 18/18/26 14/14/26 42/42/26 44/44/26
f 20/20/27 16/16/27 43/43/27 45/45/27
f 22/22/28 18/18/28 44/44/28 46/46/28
f 25/25/29 24/47/29 47/48/29
f 26/49/30 20/20/30 45/45/30
f 28/28/31 22/22/31 46/46/31 33/33/31
f 30/30/32 25/25/32 47/48/32 35/35/32
f 43/43/33 41/41/33 48/50/33 49/51/33
f 44/44/34 42/42/34 50/52/34 51/53/34
f 45/45/35 43/43/35 49/51/35 52/54/35
f 46/46/36 44/44/36 51/53/36 53/55/36
f 47/48/37 24/56/37 54/57/37
f 26/58/38 45/45/38 52/54/38
f 33/33/39 46/46/39 53/55/39 55/59/39
f 35/35/40 47/48/40 54/57/40 56/60/40
f 34/34/41 33/33/41 55/59/41 57/61/41
f 36/36/42 35/35/42 56/60/42 58/62/42
f 37/37/43 34/34/43 57/61/43 59/63/43
f 38/38/44 36/36/44 58/62/44 60/64/44
f 39/39/45 37/37/45 59/63/45 61/65/45
f 40/40/46 38/38/46 60/64/46 62/66/46
f 41/41/47 39/39/47 61/65/47 48/50/47
f 42/42/48 40/40/48 62/66/48 50/52/48
f 59/63/49 57/61/49 63/67/49 64/68/49
f 60/64/50 58/62/50 65/69/50 66/70/50
f 61/65/51 59/63/51 64/68/51 67/71/51
f 62/66/52 60/64/52 66/70/52 68/72/52
f 48/50/53 61/65/53 67/71/53 69/73/53
f 50/52/54 62/66/54 68/72/54 70/74/54
f 49/51/55 48/50/55 69/73/55 71/75/55
f 51/53/56 50/52/56 70/74/56 72/76/56
f 52/54/57 49/51/57 71/75/57 73/77/57
f 53/55/58 51/53/58 72/76/58 74/78/58
f 54/57/59 24/79/59 75/80/59
f 26/81/60 52/54/60 73/77/60
f 55/59/61 53/55/61 74/78/61 76/82/61
f 56/60/62 54/57/62 75/80/62 77/83/62
f 57/61/63 55/59/63 76/82/63 63/67/63
f 58/62/64 56/60/64 77/83/64 65/69/64
f 73/77/65 71/75/65 78/84/65 79/85/65
f 74/78/66 72/76/66 80/86/66 81/87/66
f 75/80/67 24/88/67 82/89/67
f 26/90/68 73/77/68 79/85/68
f 76/82/69 74/78/69 81/87/69 83/91/69
f 77/83/70 75/80/70 82/89/70 84/92/70
f 63/67/71 76/82/71 83/91/71 85/93/71
f 65/69/72 77/83/72 84/92/72 86/94/72
f 64/68/73 63/67/73 85/93/73 87/95/73
f 66/70/74 65/69/74 86/94/74 88/96/74
f 67/71/75 64/68/75 87/95/75 89/97/75
f 68/72/76 66/70/76 88/96/76 90/98/76
f 69/73/77 67/71/77 89/97/77 91/99/77
f 70/74/78 68/72/78 90/98/78 92/100/78
f 71/75/79 69/73/79 91/99/79 78/84/79
f 72/76/80 70/74/80 92/100/80 80/86/80
f 88/96/81 86/94/81 93/101/81 94/102/81
f 89/97/82 87/95/82 95/103/82 96/104/82
f 90/98/83 88/96/83 94/102/83 97/105/83
f 91/99/84 89/97/84 96/104/84 98/106/84
f 92/100/85 90/98/85 97/105/85 99/107/85
f 78/84/86 91/99/86 98/106/86 100/108/86
f 80/86/87 92/100/87 99/107/87 101/109/87
f 79/85/88 78/84/88 100/108/88 102/110/88
f 81/87/89 80/86/89 101/109/89 103/111/89
f 82/89/90 24/112/90 104/113/90
f 26/114/91 79/85/91 102/110/91
f 83/91/92 81/87/92 103/111/92 105/115/92
f 84/92/93 82/89/93 104/113/93 106/116/93
f 85/93/94 83/91/94 105/115/94 107/117/94
f 86/94/95 84/92/95 106/116/95 93/101/95
f 87/95/96 85/93/96 107/117/96 95/103/96
f 103/111/97 101/109/97 108/118/97 109/119/97
f 104/113/98 24/120/98 110/121/98
f 26/122/99 102/110/99 111/123/99
f 105/115/100 103/111/100 109/119/100 112/124/100
f 106/116/101 104/113/101 110/121/101 113/125/101
f 107/117/102 105/115/102 112/124/102 114/126/102
f 93/101/103 106/116/103 113/125/103 115/127/103
f 95/103/104 107/117/104 114/126/104 116/128/104
f 94/102/105 93/101/105 115/127/105 117/129/105
f 96/104/106 95/103/106 116/128/106 118/130/106
f 97/105/107 94/102/107 117/129/107 119/131/107
f 98/106/108 96/104/108 118/130/108 120/132/108
f 99/107/109 97/105/109 119/131/109 121/133/109
f 100/108/110 98/106/110 120/132/110 122/134/110
f 101/109/111 99/107/111 121/133/111 108/118/111
f 102/110/112 100/108/112 122/134/112 111/123/112
f 118/130/113 116/128/113 123/135/113 124/136/113
f 119/131/114 117/129/114 125/137/114 126/138/114
f 120/132/115 118/130/115 124/136/115 127/139/115
f 121/133/116 119/131/116 126/138/116 128/140/116
f 122/134/117 120/132/117 127/139/117 129/141/117
f 108/118/118 121/133/118 128/140/118 130/142/118
f 111/123/119 122/134/119 129/141/119 131/143/119
f 109/119/120 108/118/120 130/142/120 132/144/120
f 110/121/121 24/145/121 133/146/121
f 26/147/122 111/123/122 131/143/122
f 112/124/123 109/119/123 132/144/123 134/148/123
f 113/125/124 110/121/124 133/146/124 135/149/124
f 114/126/125 112/124/125 134/148/125 136/150/125
f 115/127/126 113/125/126 135/149/126 137/151/126
f 116/128/127 114/126/127 136/150/127 123/135/127
f 117/129/128 115/127/128 137/151/128 125/137/128
f 133/146/129 24/152/129 138/153/129
f 26/154/130 131/143/130 139/155/130
f 134/148/131 132/144/131 140/156/131 141/157/131
f 135/149/132 133/146/132 138/153/132 142/158/132
f 136/150/133 134/148/133 141/157/133 143/159/133
f 137/151/134 135/149/134 142/158/134 144/160/134
f 123/135/135 136/150/135 143/159/135 145/161/135
f 125/137/136 137/151/136 144/160/136 146/162/136
f 124/136/137 123/135/137 145/161/137 147/163/137
f 126/138/138 125/137/138 146/162/138 148/164/138
f 127/139/139 124/136/139 147/163/139 149/165/139
f 128/140/140 126/138/140 148/164/140 150/166/140
f 129/141/141 127/139/141 149/165/141 151/167/141
f 130/142/142 128/140/142 150/166/142 152/168/142
f 131/143/143 129/141/143 151/167/143 139/155/143
f 132/144/144 130/142/144 152/168/144 140/156/144
f 148/164/145 146/162/145 153/169/145 154/170/145
f 149/165/146 147/163/146 155/171/146 156/172/146
f 150/166/147 148/164/147 154/170/147 157/173/147
f 151/167/148 149/165/148 156/172/148 158/174/148
f 152/168/149 150/166/149 157/173/149 159/175/149
f 139/155/150 151/167/150 158/174/150 160/176/150
f 140/156/151 152/168/151 159/175/151 161/177/151
f 138/153/152 24/178/152 162/179/152
f 26/180/153 139/155/153 160/176/153
f 141/157/154 140/156/154 161/177/154 163/181/154
f 142/158/155 138/153/155 162/179/155 164/182/155
f 143/159/156 141/157/156 163/181/156 165/183/156
f 144/160/157 142/158/157 164/182/157 166/184/157
f 145/161/158 143/159/158 165/183/158 167/185/158
f 146/162/159 144/160/159 166/184/159 153/169/159
f 147/163/160 145/161/160 167/185/160 155/171/160
f 163/181/161 161/177/161 168/186/161 169/187/161
f 164/182/162 162/179/162 170/188/162 171/189/162
f 165/183/163 163/181/163 169/187/163 172/190/163
f 166/184/164 164/182/164 171/189/164 173/191/164
f 167/185/165 165/183/165 172/190/165 174/192/165
f 153/169/166 166/184/166 173/191/166 175/193/166
f 155/171/167 167/185/167 174/192/167 176/194/167
f 154/170/168 153/169/168 175/193/168 177/195/168
f 156/172/169 155/171/169 176/194/169 178/196/169
f 157/173/170 154/170/170 177/195/170 179/197/170
f 158/174/171 156/172/171 178/196/171 180/198/171
f 159/175/172 157/173/172 179/197/172 181/199/172
f 160/176/173 158/174/173 180/198/173 182/200/173
f 161/177/174 159/175/174 181/199/174 168/186/174
f 162/179/175 24/201/175 170/188/175
f 26/202/176 160/176/176 182/200/176
f 178/196/177 176/194/177 183/203/177 184/204/177
f 179/197/178 177/195/178 185/205/178 186/206/178
f 180/198/179 178/196/179 184/204/179 187/207/179
f 181/199/180 179/197/180 186/206/180 188/208/180
f 182/200/181 180/198/181 187/207/181 189/209/181
f 168/186/182 181/199/182 188/208/182 190/210/182
f 170/188/183 24/211/183 191/212/183
f 26/213/184 182/200/184 189/209/184
f 169/187/185 168/186/185 190/210/185 192/214/185
f 171/189/186 170/188/186 191/212/186 193/215/186
f 172/190/187 169/187/187 192/214/187 194/216/187
f 173/191/188 171/189/188 193/215/188 195/217/188
f 174/192/189 172/190/189 194/216/189 196/218/189
f 175/193/190 173/191/190 195/217/190 197/219/190
f 176/194/191 174/192/191 196/218/191 183/203/191
f 177/195/192 175/193/192 197/219/192 185/205/192
f 194/216/193 192/214/193 198/220/193 199/221/193
f 195/217/194 193/215/194 200/222/194 201/223/194
f 196/218/195 194/216/195 199/221/195 202/224/195
f 197/219/196 195/217/196 201/223/196 203/225/196
f 183/203/197 196/218/197 202/224/197 204/226/197
f 185/205/198 197/219/198 203/225/198 205/227/198
f 184/204/199 183/203/199 204/226/199 206/228/199
f 186/206/200 185/205/200 205/227/200 207/229/200
f 187/207/201 184/204/201 206/228/201 208/230/201
f 188/208/202 186/206/202 207/229/202 209/231/202
f 189/209/203 187/207/203 208/230/203 210/232/203
f 190/210/204 188/208/204 209/231/204 211/233/204
f 191/212/205 24/234/205 212/235/205
f 26/236/206 189/209/206 210/232/206
f 192/214/207 190/210/207 211/233/207 198/220/207
f 193/215/208 191/212/208 212/235/208 200/222/208
f 208/230/209 206/228/209 213/237/209 214/238/209
f 209/231/210 207/229/210 215/239/210 216/240/210
f 210/232/211 208/230/211 214/238/211 217/241/211
f 211/233/212 209/231/212 216/240/212 218/242/212
f 212/235/213 24/243/213 219/244/213
f 26/245/214 210/232/214 217/241/214
f 198/220/215 211/233/215 218/242/215 220/246/215
f 200/222/216 212/235/216 219/244/216 221/247/216
f 199/221/217 198/220/217 220/246/217 222/248/217
f 201/223/218 200/222/218 221/247/218 223/249/218
f 202/224/219 199/221/219 222/248/219 224/250/219
f 203/225/220 201/223/220 223/249/220 225/251/220
f 204/226/221 202/224/221 224/250/221 226/252/221
f 205/227/222 203/225/222 225/251/222 227/253/222
f 206/228/223 204/226/223 226/252/223 213/237/223
f 207/229/224 205/227/224 227/253/224 215/239/224
f 223/249/225 221/247/225 228/254/225 229/255/225
f 224/250/226 222/248/226 230/256/226 231/257/226
f 225/251/227 223/249/227 229/255/227 232/258/227
f 226/252/228 224/250/228 231/257/228 233/259/228
f 227/253/229 225/251/229 232/258/229 234/260/229
f 213/237/230 226/252/230 233/259/230 235/261/230
f 215/239/231 227/253/231 234/260/231 236/262/231
f 214/238/232 213/237/232 235/261/232 237/263/232
f 216/240/233 215/239/233 236/262/233 238/264/233
f 217/241/234 214/238/234 237/263/234 239/265/234
f 218/242/235 216/240/235 238/264/235 240/266/235
f 219/244/236 24/267/236 241/268/236
f 26/269/237 217/241/237 239/265/237
f 220/246/238 218/242/238 240/266/238 242/270/238
f 221/247/239 219/244/239 241/268/239 228/254/239
f 222/248/240 220/246/240 242/270/240 230/256/240
f 238/264/241 236/262/241 243/271/241 244/272/241
f 239/265/242 237/263/242 245/273/242 246/274/242
f 240/266/243 238/264/243 244/272/243 247/275/243
f 241/268/244 24/276/244 248/277/244
f 26/278/245 239/265/245 246/274/245
f 242/270/246 240/266/246 247/275/246 249/279/246
f 228/254/247 241/268/247 248/277/247 250/280/247
f 230/256/248 242/270/248 249/279/248 251/281/248
f 229/255/249 228/254/249 250/280/249 252/282/249
f 231/257/250 230/256/250 251/281/250 253/283/250
f 232/258/251 229/255/251 252/282/251 254/284/251
f 233/259/252 231/257/252 253/283/252 255/285/252
f 234/260/253 232/258/253 254/284/253 256/286/253
f 235/261/254 233/259/254 255/285/254 257/287/254
f 236/262/255 234/260/255 256/286/255 243/271/255
f 237/263/256 235/261/256 257/287/256 245/273/256
f 253/283/257 251/281/257 258/288/257 259/289/257
f 254/284/258 252/282/258 260/290/258 261/291/258
f 255/285/259 253/283/259 259/289/259 262/292/259
f 256/286/260 254/284/260 261/291/260 263/293/260
f 257/287/261 255/285/261 262/292/261 264/294/261
f 243/271/262 256/286/262 263/293/262 265/295/262
f 245/273/263 257/287/263 264/294/263 266/296/263
f 244/272/264 243/271/264 265/295/264 267/297/264
f 246/274/265 245/273/265 266/296/265 268/298/265
f 247/275/266 244/272/266 267/297/266 269/299/266
f 248/277/267 24/300/267 270/301/267
f 26/302/268 246/274/268 268/298/268
f 249/279/269 247/275/269 269/299/269 271/303/269
f 250/280/270 248/277/270 270/301/270 272/304/270
f 251/281/271 249/279/271 271/303/271 258/288/271
f 252/282/272 250/280/272 272/304/272 260/290/272
f 268/298/273 266/296/273 273/305/273 274/306/273
f 269/299/274 267/297/274 275/307/274 276/308/274
f 270/301/275 24/309/275 277/310/275
f 26/311/276 268/298/276 274/306/276
f 271/303/277 269/299/277 276/308/277 278/312/277
f 272/304/278 270/301/278 277/310/278 279/313/278
f 258/288/279 271/303/279 278/312/279 280/314/279
f 260/290/280 272/304/280 279/313/280 281/315/280
f 259/289/281 258/288/281 280/314/281 282/316/281
f 261/291/282 260/290/282 281/315/282 283/317/282
f 262/292/283 259/289/283 282/316/283 284/318/283
f 263/293/284 261/291/284 283/317/284 285/319/284
f 264/294/285 262/292/285 284/318/285 286/320/285
f 265/295/286 263/293/286 285/319/286 287/321/286
f 266/296/287 264/294/287 286/320/287 273/305/287
f 267/297/288 265/295/288 287/321/288 275/307/288
f 283/317/289 281/315/289 288/322/289 289/323/289
f 284/318/290 282/316/290 290/324/290 291/325/290
f 285/319/291 283/317/291 289/323/291 292/326/291
f 286/320/292 284/318/292 291/325/292 293/327/292
f 287/321/293 285/319/293 292/326/293 294/328/293
f 273/305/294 286/320/294 293/327/294 295/329/294
f 275/307/295 287/321/295 294/328/295 296/330/295
f 274/306/296 273/305/296 295/329/296 297/331/296
f 276/308/297 275/307/297 296/330/297 298/332/297
f 277/310/298 24/333/298 299/334/298
f 26/335/299 274/306/299 297/331/299
f 278/312/300 276/308/300 298/332/300 300/336/300
f 279/313/301 277/310/301 299/334/301 301/337/301
f 280/314/302 278/312/302 300/336/302 302/338/302
f 281/315/303 279/313/303 301/337/303 288/322/303
f 282/316/304 280/314/304 302/338/304 290/324/304
f 298/332/305 296/330/305 303/339/305 304/340/305
f 299/334/306 24/341/306 305/342/306
f 26/343/307 297/331/307 306/344/307
f 300/336/308 298/332/308 304/340/308 307/345/308
f 301/337/309 299/334/309 305/342/309 308/346/309
f 302/338/310 300/336/310 307/345/310 309/347/310
f 288/322/311 301/337/311 308/346/311 310/348/311
f 290/324/312 302/338/312 309/347/312 311/349/312
f 289/323/313 288/322/313 310/348/313 312/350/313
f 291/325/314 290/324/314 311/349/314 313/351/314
f 292/326/315 289/323/315 312/350/315 314/352/315
f 293/327/316 291/325/316 313/351/316 315/353/316
f 294/328/317 292/326/317 314/352/317 316/354/317
f 295/329/318 293/327/318 315/353/318 317/355/318
f 296/330/319 294/328/319 316/354/319 303/339/319
f 297/331/320 295/329/320 317/355/320 306/344/320
f 313/351/321 311/349/321 318/356/321 319/357/321
f 314/352/322 312/350/322 320/358/322 321/359/322
f 315/353/323 313/351/323 319/357/323 322/360/323
f 316/354/324 314/352/324 321/359/324 323/361/324
f 317/355/325 315/353/325 322/360/325 324/362/325
f 303/339/326 316/354/326 323/361/326 325/363/326
f 306/344/327 317/355/327 324/362/327 326/364/327
f 304/340/328 303/339/328 325/363/328 327/365/328
f 305/342/329 24/366/329 328/367/329
f 26/368/330 306/344/330 326/364/330
f 307/345/331 304/340/331 327/365/331 329/369/331
f 308/346/332 305/342/332 328/367/332 330/370/332
f 309/347/333 307/345/333 329/369/333 331/371/333
f 310/348/334 308/346/334 330/370/334 332/372/334
f 311/349/335 309/347/335 331/371/335 318/356/335
f 312/350/336 310/348/336 332/372/336 320/358/336
f 26/373/337 326/364/337 333/374/337
f 329/369/338 327/365/338 334/375/338 335/376/338
f 330/370/339 328/367/339 336/377/339 337/378/339
f 331/371/340 329/369/340 335/376/340 338/379/340
f 332/372/341 330/370/341 337/378/341 339/380/341
f 318/356/342 331/371/342 338/379/342 340/381/342
f 320/358/343 332/372/343 339/380/343 341/382/343
f 319/357/344 318/356/344 340/381/344 342/383/344
f 321/359/345 320/358/345 341/382/345 343/384/345
f 322/360/346 319/357/346 342/383/346 344/385/346
f 323/361/347 321/359/347 343/384/347 345/386/347
f 324/362/348 322/360/348 344/385/348 346/387/348
f 325/363/349 323/361/349 345/386/349 347/388/349
f 326/364/350 324/362/350 346/387/350 333/374/350
f 327/365/351 325/363/351 347/388/351 334/375/351
f 328/367/352 24/389/352 336/377/352
f 344/385/353 342/383/353 348/390/353 349/391/353
f 345/386/354 343/384/354 350/392/354 351/393/354
f 346/387/355 344/385/355 349/391/355 352/394/355
f 347/388/356 345/386/356 351/393/356 353/395/356
f 333/374/357 346/387/357 352/394/357 354/396/357
f 334/375/358 347/388/358 353/395/358 355/397/358
f 336/377/359 24/398/359 356/399/359
f 26/400/360 333/374/360 354/396/360
f 335/376/361 334/375/361 355/397/361 357/401/361
f 337/378/362 336/377/362 356/399/362 358/402/362
f 338/379/363 335/376/363 357/401/363 359/403/363
f 339/380/364 337/378/364 358/402/364 360/404/364
f 340/381/365 338/379/365 359/403/365 361/405/365
f 341/382/366 339/380/366 360/404/366 362/406/366
f 342/383/367 340/381/367 361/405/367 348/390/367
f 343/384/368 341/382/368 362/406/368 350/392/368
f 358/402/369 356/399/369 363/407/369 364/408/369
f 359/403/370 357/401/370 365/409/370 366/410/370
f 360/404/371 358/402/371 364/408/371 367/411/371
f 361/405/372 359/403/372 366/410/372 368/412/372
f 362/406/373 360/404/373 367/411/373 369/413/373
f 348/390/374 361/405/374 368/412/374 370/414/374
f 350/392/375 362/406/375 369/413/375 371/415/375
f 349/391/376 348/390/376 370/414/376 372/416/376
f 351/393/377 350/392/377 371/415/377 373/417/377
f 352/394/378 349/391/378 372/416/378 374/418/378
f 353/395/379 351/393/379 373/417/379 375/419/379
f 354/396/380 352/394/380 374/418/380 376/420/380
f 355/397/381 353/395/381 375/419/381 377/421/381
f 356/399/382 24/422/382 363/407/382
f 26/423/383 354/396/383 376/420/383
f 357/401/384 355/397/384 377/421/384 365/409/384
f 373/424/385 371/425/385 378/426/385 379/427/385
f 374/428/386 372/429/386 380/430/386 381/431/386
f 375/432/387 373/424/387 379/427/387 382/433/387
f 376/434/388 374/428/388 381/431/388 383/435/388
f 377/436/389 375/432/389 382/433/389 384/437/389
f 363/438/390 24/439/390 385/440/390
f 26/441/391 376/434/391 383/435/391
f 365/442/392 377/436/392 384/437/392 386/443/392
f 364/444/393 363/438/393 385/440/393 387/445/393
f 366/446/394 365/442/394 386/443/394 388/447/394
f 367/448/395 364/444/395 387/445/395 389/449/395
f 368/450/396 366/446/396 388/447/396 390/451/396
f 369/452/397 367/448/397 389/449/397 391/453/397
f 370/454/398 368/450/398 390/451/398 392/455/398
f 371/425/399 369/452/399 391/453/399 378/426/399
f 372/429/400 370/454/400 392/455/400 380/430/400
f 388/447/401 386/443/401 393/456/401 394/457/401
f 389/449/402 387/445/402 395/458/402 396/459/402
f 390/451/403 388/447/403 394/457/403 397/460/403
f 391/453/404 389/449/404 396/459/404 398/461/404
f 392/455/405 390/451/405 397/460/405 399/462/405
f 378/426/406 391/453/406 398/461/406 400/463/406
f 380/430/407 392/455/407 399/462/407 401/464/407
f 379/427/408 378/426/408 400/463/408 402/465/408
f 381/431/409 380/430/409 401/464/409 403/466/409
f 382/433/410 379/427/410 402/465/410 404/467/410
f 383/435/411 381/431/411 403/466/411 405/468/411
f 384/437/412 382/433/412 404/467/412 406/469/412
f 385/440/413 24/470/413 407/471/413
f 26/472/414 383/435/414 405/468/414
f 386/443/415 384/437/415 406/469/415 393/456/415
f 387/445/416 385/440/416 407/471/416 395/458/416
f 403/466/417 401/464/417 408/473/417 409/474/417
f 404/467/418 402/465/418 410/475/418 411/476/418
f 405/468/419 403/466/419 409/474/419 412/477/419
f 406/469/420 404/467/420 411/476/420 413/478/420
f 407/471/421 24/479/421 414/480/421
f 26/481/422 405/468/422 412/477/422
f 393/456/423 406/469/423 413/478/423 415/482/423
f 395/458/424 407/471/424 414/480/424 416/483/424
f 394/457/425 393/456/425 415/482/425 417/484/425
f 396/459/426 395/458/426 416/483/426 418/485/426
f 397/460/427 394/457/427 417/484/427 419/486/427
f 398/461/428 396/459/428 418/485/428 420/487/428
f 399/462/429 397/460/429 419/486/429 421/488/429
f 400/463/430 398/461/430 420/487/430 422/489/430
f 401/464/431 399/462/431 421/488/431 408/473/431
f 402/465/432 400/463/432 422/489/432 410/475/432
f 418/485/433 416/483/433 423/490/433 424/491/433
f 419/486/434 417/484/434 425/492/434 426/493/434
f 420/487/435 418/485/435 424/491/435 427/494/435
f 421/488/436 419/486/436 426/493/436 428/495/436
f 422/489/437 420/487/437 427/494/437 429/496/437
f 408/473/438 421/488/438 428/495/438 430/497/438
f 410/475/439 422/489/439 429/496/439 431/498/439
f 409/474/440 408/473/440 430/497/440 432/499/440
f 411/476/441 410/475/441 431/498/441 433/500/441
f 412/477/442 409/474/442 432/499/442 434/501/442
f 413/478/443 411/476/443 433/500/443 435/502/443
f 414/480/444 24/503/444 436/504/444
f 26/505/445 412/477/445 434/501/445
f 415/482/446 413/478/446 435/502/446 437/506/446
f 416/483/447 414/480/447 436/504/447 423/490/447
f 417/484/448 415/482/448 437/506/448 425/492/448
f 433/500/449 431/498/449 438/507/449 439/508/449
f 434/501/450 432/499/450 440/509/450 441/510/450
f 435/502/451 433/500/451 439/508/451 442/511/451
f 436/504/452 24/512/452 443/513/452
f 26/514/453 434/501/453 441/510/453
f 437/506/454 435/502/454 442/511/454 444/515/454
f 423/490/455 436/504/455 443/513/455 445/516/455
f 425/492/456 437/506/456 444/515/456 446/517/456
f 424/491/457 423/490/457 445/516/457 447/518/457
f 426/493/458 425/492/458 446/517/458 448/519/458
f 427/494/459 424/491/459 447/518/459 449/520/459
f 428/495/460 426/493/460 448/519/460 450/521/460
f 429/496/461 427/494/461 449/520/461 451/522/461
f 430/497/462 428/495/462 450/521/462 452/523/462
f 431/498/463 429/496/463 451/522/463 438/507/463
f 432/499/464 430/497/464 452/523/464 440/509/464
f 448/519/465 446/517/465 453/524/465 454/525/465
f 449/520/466 447/518/466 455/526/466 456/527/466
f 450/521/467 448/519/467 454/525/467 457/528/467
f 451/522/468 449/520/468 456/527/468 458/529/468
f 452/523/469 450/521/469 457/528/469 459/530/469
f 438/507/470 451/522/470 458/529/470 460/531/470
f 440/509/471 452/523/471 459/530/471 461/532/471
f 439/508/472 438/507/472 460/531/472 462/533/472
f 441/510/473 440/509/473 461/532/473 463/534/473
f 442/511/474 439/508/474 462/533/474 464/535/474
f 443/513/475 24/536/475 465/537/475
f 26/538/476 441/510/476 463/534/476
f 444/515/477 442/511/477 464/535/477 466/539/477
f 445/516/478 443/513/478 465/537/478 467/540/478
f 446/517/479 444/515/479 466/539/479 453/524/479
f 447/518/480 445/516/480 467/540/480 455/526/480
f 463/534/481 461/532/481 468/541/481 469/542/481
f 464/535/482 462/533/482 470/543/482 471/544/482
f 465/537/483 24/545/483 472/546/483
f 26/547/484 463/534/484 469/542/484
f 466/539/485 464/535/485 471/544/485 473/548/485
f 467/540/486 465/537/486 472/546/486 474/549/486
f 453/524/487 466/539/487 473/548/487 475/550/487
f 455/526/488 467/540/488 474/549/488 476/551/488
f 454/525/489 453/524/489 475/550/489 477/552/489
f 456/527/490 455/526/490 476/551/490 478/553/490
f 457/528/491 454/525/491 477/552/491 479/554/491
f 458/529/492 456/527/492 478/553/492 480/555/492
f 459/530/493 457/528/493 479/554/493 481/556/493
f 460/531/494 458/529/494 480/555/494 482/557/494
f 461/532/495 459/530/495 481/556/495 468/541/495
f 462/533/496 460/531/496 482/557/496 470/543/496
f 479/554/497 477/552/497 6/6/497 5/5/497
f 480/555/498 478/553/498 1/1/498 9/9/498
f 481/556/499 479/554/499 5/5/499 11/11/499
f 482/557/500 480/555/500 9/9/500 13/13/500
f 468/541/501 481/556/501 11/11/501 15/15/501
f 470/543/502 482/557/502 13/13/502 17/17/502
f 469/542/503 468/541/503 15/15/503 19/19/503
f 471/544/504 470/543/504 17/17/504 21/21/504
f 472/546/505 24/558/505 23/23/505
f 26/559/506 469/542/506 19/19/506
f 473/548/507 471/544/507 21/21/507 27/27/507
f 474/549/508 472/546/508 23/23/508 29/29/508
f 475/550/509 473/548/509 27/27/509 31/31/509
f 476/551/510 474/549/510 29/29/510 2/2/510
f 477/552/511 475/550/511 31/31/511 6/6/511
f 478/553/512 476/551/512 2/2/512 1/1/512
