# Blender 5.0.1
# www.blender.org
mtllib Bench.mtl
o WS2_bwl_field_91.mo.001_WS2_bwl_field_91.md.001
v 0.698906 0.002461 -0.342187
v 0.698906 -0.009062 -0.342187
v 0.698906 0.002461 -0.166133
v 0.698906 -0.009062 -0.166133
v 0.727852 0.002461 -0.342187
v 0.698906 0.002461 -0.342187
v 0.727852 0.002461 -0.166133
v 0.698906 0.002461 -0.166133
v 0.727852 -0.009062 -0.166133
v 0.698906 -0.009062 -0.166133
v 0.727852 -0.009062 -0.342187
v 0.698906 -0.009062 -0.342187
v 0.727852 0.002461 -0.166133
v 0.727852 -0.009062 -0.166133
v 0.727852 0.002461 -0.342187
v 0.727852 -0.009062 -0.342187
v 0.698906 0.002461 0.009883
v 0.698906 -0.009062 0.009883
v 0.727852 0.002461 0.009883
v 0.698906 0.002461 0.009883
v 0.727852 -0.009062 0.009883
v 0.698906 -0.009062 0.009883
v 0.727852 -0.009062 -0.166133
v 0.698906 -0.009062 -0.166133
v 0.727852 -0.009062 -0.166133
v 0.727852 0.002461 -0.166133
v 0.727852 -0.009062 0.009883
v 0.727852 0.002461 0.009883
v 0.698906 0.002461 0.185937
v 0.698906 -0.009062 0.185937
v 0.727852 0.002461 0.185937
v 0.698906 0.002461 0.185937
v 0.698906 -0.009062 0.009883
v 0.727852 -0.009062 0.009883
v 0.698906 -0.009062 0.185937
v 0.727852 -0.009062 0.185937
v 0.727852 0.002461 0.185937
v 0.727852 -0.009062 0.185937
v 0.698906 -0.009062 0.356172
v 0.727852 -0.009062 0.356172
v 0.698906 0.002461 0.356172
v 0.727852 0.002461 0.356172
v 0.727852 -0.009062 -0.342187
v 0.698906 -0.009062 -0.342187
v 0.727852 0.002461 -0.342187
v 0.698906 0.002461 -0.342187
v 0.698906 -0.009062 0.356172
v 0.727852 -0.009062 0.356172
v 0.698906 0.002461 0.356172
v 0.698906 -0.009062 0.356172
v 0.727852 0.002461 0.356172
v 0.698906 0.002461 0.356172
v 0.727852 -0.009062 0.356172
v 0.727852 -0.009062 0.185937
v 0.727852 0.002461 0.356172
v 0.727852 0.002461 0.185937
vn -1.0000 -0.0000 -0.0000
vn -0.0000 1.0000 -0.0000
vn -0.0000 -1.0000 -0.0000
vn 1.0000 -0.0000 -0.0000
vn -0.0000 -0.0000 1.0000
vn -0.0000 -0.0000 -1.0000
vt 0.983887 0.000000
vt 0.516113 0.000000
vt 0.983887 4.000000
vt 0.516113 4.000000
vt 1.000000 16.000000
vt 0.500000 16.000000
vt 1.000000 12.000000
vt 0.500000 12.000000
vt 0.750000 4.000000
vt 0.750000 3.000000
vt 1.000000 4.000000
vt 1.000000 3.000000
vt 0.750000 1.000000
vt 0.750000 0.000000
vt 1.000000 1.000000
vt 1.000000 0.000000
vt 0.983887 8.000000
vt 0.516113 8.000000
vt 1.000000 8.000000
vt 0.500000 8.000000
vt 8.556641 0.012207
vt 0.500000 0.012207
vt 0.983887 12.000000
vt 0.516113 12.000000
vt 0.500000 4.000000
vt 0.500000 3.000000
vt 0.250000 3.000000
vt 0.250000 4.000000
vt -7.556641 0.012207
vt -1.000000 0.000000
vt 0.000000 0.000000
vt -1.000000 1.000000
vt 0.000000 1.000000
vt 2.000000 0.000000
vt 2.000000 1.000000
vt 0.000000 3.000000
vt 0.000000 4.000000
vt 0.983887 16.000000
vt 0.516113 16.000000
vt 0.500000 0.000000
vt 0.250000 0.000000
vt 0.250000 1.000000
s 1
usemtl counter_test_2
f 1/1/1 2/2/1 3/3/1
f 3/3/1 2/2/1 4/4/1
f 5/5/2 6/6/2 7/7/2
f 7/7/2 6/6/2 8/8/2
f 9/9/3 10/10/3 11/11/3
f 11/11/3 10/10/3 12/12/3
f 13/13/4 14/14/4 15/15/4
f 15/15/4 14/14/4 16/16/4
f 3/3/1 4/4/1 17/17/1
f 17/17/1 4/4/1 18/18/1
f 7/7/2 8/8/2 19/19/2
f 19/19/2 8/8/2 20/20/2
f 21/19/3 22/20/3 23/7/3
f 23/7/3 22/20/3 24/8/3
f 25/21/4 26/21/4 27/22/4
f 27/22/4 26/21/4 28/22/4
f 17/17/1 18/18/1 29/23/1
f 29/23/1 18/18/1 30/24/1
f 19/19/2 20/20/2 31/11/2
f 31/11/2 20/20/2 32/25/2
f 33/26/3 34/25/3 35/27/3
f 35/27/3 34/25/3 36/28/3
f 37/29/4 38/29/4 28/22/4
f 28/22/4 38/29/4 27/22/4
f 39/30/5 40/31/5 41/32/5
f 41/32/5 40/31/5 42/33/5
f 43/16/6 44/34/6 45/15/6
f 45/15/6 44/34/6 46/35/6
f 47/36/3 35/27/3 48/37/3
f 48/37/3 35/27/3 36/28/3
f 49/38/1 29/23/1 50/39/1
f 50/39/1 29/23/1 30/24/1
f 51/16/2 31/11/2 52/40/2
f 52/40/2 31/11/2 32/25/2
f 53/31/4 54/41/4 55/33/4
f 55/33/4 54/41/4 56/42/4
