# Blender 5.0.1
# www.blender.org
mtllib Bowling_Alley_Decals.mtl
o WS2_bwl_field_91.mo.026_WS2_bwl_field_91.md.001
v 0.001152 0.000508 -0.228437
v -0.002910 0.000508 -0.228437
v 0.001152 0.000508 0.229453
v -0.002910 0.000508 0.229453
v -0.231699 0.000898 -0.053613
v -0.236387 0.001309 -0.053613
v -0.231699 0.000898 0.051699
v -0.236387 0.001309 0.051699
v 0.011641 0.000605 -0.052656
v 0.006445 0.000605 -0.052656
v 0.011641 0.000605 0.052656
v 0.006445 0.000605 0.052656
v -0.443086 0.000762 -0.052656
v -0.504922 0.000762 -0.052656
v -0.443086 0.000762 0.052656
v -0.504922 0.000762 0.052656
v 0.209180 0.000605 -0.053613
v 0.204707 0.000605 -0.053613
v 0.209180 0.000605 0.051699
v 0.204707 0.000605 0.051699
v 0.189238 0.000605 -0.053613
v 0.184766 0.000605 -0.053613
v 0.189238 0.000605 0.051699
v 0.184766 0.000605 0.051699
v 0.001152 0.000508 0.000508
v 0.006445 0.000605 -0.000000
v 0.187002 0.000605 -0.000957
v -0.000879 0.000508 0.000508
v -0.443086 0.000762 -0.000000
v 0.184766 0.000605 -0.000957
v -0.002910 0.000508 0.000508
v -0.474004 0.000762 0.000000
v -0.231699 0.000898 -0.000957
v -0.504922 0.000762 -0.000000
v -0.234043 0.001103 -0.000957
v 0.209180 0.000605 -0.000957
v -0.236387 0.001309 -0.000957
v 0.206943 0.000605 -0.000957
v 0.011641 0.000605 -0.000000
v 0.204707 0.000605 -0.000957
v 0.009043 0.000605 -0.000000
v 0.189238 0.000605 -0.000957
vn -0.0000 1.0000 -0.0000
vn 0.0870 0.9962 -0.0000
vn 0.0873 0.9962 -0.0000
vt 0.000000 0.038086
vt 0.000000 0.116211
vt 0.996094 0.077148
vt 0.996094 0.038086
vt -0.004465 0.038086
vt 0.996094 0.116211
vt -0.004465 0.116211
vt 0.000000 0.402344
vt 0.000000 0.444702
vt 1.000000 0.423523
vt 1.000000 0.402344
vt 0.003347 0.402344
vt 1.000000 0.444702
vt 0.003347 0.444702
vt 0.000000 0.321289
vt 0.000000 0.371216
vt 1.000000 0.346253
vt 1.000000 0.321289
vt 0.003347 0.321289
vt 1.000000 0.371216
vt 0.003347 0.371216
vt 0.000000 0.463623
vt 0.000000 1.007812
vt 1.000000 0.735717
vt 1.000000 0.463623
vt 0.003347 0.463623
vt 1.000000 1.007812
vt 0.003347 1.007812
vt 0.000000 0.144653
vt 0.000000 0.186890
vt 1.000000 0.165772
vt 1.000000 0.144653
vt 0.003347 0.144653
vt 1.000000 0.186890
vt 0.003347 0.186890
vt 0.000000 0.247070
vt 0.000000 0.289307
vt 1.000000 0.268189
vt 1.000000 0.247070
vt 0.003347 0.247070
vt 1.000000 0.289307
vt 0.003347 0.289307
s 1
usemtl mark_2
f 1/1/1 2/2/1 28/3/1 25/4/1
f 3/5/1 28/3/1 31/6/1 4/7/1
f 5/8/2 6/9/3 35/10/3 33/11/3
f 7/12/3 35/10/3 37/13/3 8/14/2
f 9/15/1 10/16/1 41/17/1 39/18/1
f 11/19/1 41/17/1 26/20/1 12/21/1
f 13/22/1 14/23/1 32/24/1 29/25/1
f 15/26/1 32/24/1 34/27/1 16/28/1
f 17/29/1 18/30/1 38/31/1 36/32/1
f 19/33/1 38/31/1 40/34/1 20/35/1
f 21/36/1 22/37/1 27/38/1 42/39/1
f 23/40/1 27/38/1 30/41/1 24/42/1
f 34/27/1 32/24/1 14/23/1
f 36/32/1 38/31/1 19/33/1
f 40/34/1 38/31/1 18/30/1
f 25/4/1 28/3/1 3/5/1
f 42/39/1 27/38/1 23/40/1
f 30/41/1 27/38/1 22/37/1
f 33/11/3 35/10/3 7/12/3
f 31/6/1 28/3/1 2/2/1
f 37/13/3 35/10/3 6/9/3
f 39/18/1 41/17/1 11/19/1
f 26/20/1 41/17/1 10/16/1
f 29/25/1 32/24/1 15/26/1
