# Blender v3.0.1 OBJ File: ''
# www.blender.org
mtllib Bowling_Alley_GutterBot.mtl
o WS2_bwl_field_91.mo.024_WS2_bwl_field_91.md.001
v -3.465000 -0.000000 0.072945
v -3.465000 -0.001406 0.073570
v -2.599375 -0.000000 0.072945
v -2.599375 -0.001406 0.073570
v -3.465000 -0.002656 0.075132
v -2.599375 -0.002656 0.075132
v -3.465000 -0.003594 0.077632
v -2.599375 -0.003594 0.077632
v -3.465000 -0.004219 0.080757
v -2.599375 -0.004219 0.080757
v -3.465000 -0.004375 0.084194
v -2.599375 -0.004375 0.084194
v -3.465000 -0.004219 0.087476
v -2.599375 -0.004219 0.087476
v -3.465000 -0.003594 0.090601
v -2.599375 -0.003594 0.090601
v -3.465000 -0.002656 0.093101
v -2.599375 -0.002656 0.093101
v -3.465000 -0.001406 0.094664
v -2.599375 -0.001406 0.094664
v -3.465000 -0.000000 0.095133
v -2.599375 -0.000000 0.095133
v -2.051875 -0.000000 0.072945
v -2.051875 -0.001406 0.073570
v -2.051875 -0.002656 0.075132
v -2.051875 -0.003594 0.077632
v -2.051875 -0.004219 0.080757
v -2.051875 -0.004375 0.084194
v -2.051875 -0.004219 0.087476
v -2.051875 -0.003594 0.090601
v -2.051875 -0.002656 0.093101
v -2.051875 -0.001406 0.094664
v -2.051875 -0.000000 0.095133
v -1.537344 -0.000000 0.072945
v -1.537344 -0.001406 0.073570
v -1.537344 -0.002656 0.075132
v -1.537344 -0.003594 0.077632
v -1.537344 -0.004219 0.080757
v -1.537344 -0.004375 0.084194
v -1.537344 -0.004219 0.087476
v -1.537344 -0.003594 0.090601
v -1.537344 -0.002656 0.093101
v -1.537344 -0.001406 0.094664
v -1.537344 -0.000000 0.095133
v -1.152969 -0.000000 0.072945
v -1.152969 -0.001406 0.073570
v -1.152969 -0.002656 0.075132
v -1.152969 -0.003594 0.077632
v -1.152969 -0.004219 0.080757
v -1.152969 -0.004375 0.084194
v -1.152969 -0.004219 0.087476
v -1.152969 -0.003594 0.090601
v -1.152969 -0.002656 0.093101
v -1.152969 -0.001406 0.094664
v -1.152969 -0.000000 0.095133
v -0.768594 -0.000000 0.072945
v -0.768594 -0.001406 0.073570
v -0.768594 -0.002656 0.075132
v -0.768594 -0.003594 0.077632
v -0.768594 -0.004219 0.080757
v -0.768594 -0.004375 0.084194
v -0.768594 -0.004219 0.087476
v -0.768594 -0.003594 0.090601
v -0.768594 -0.002656 0.093101
v -0.768594 -0.001406 0.094664
v -0.768594 -0.000000 0.095133
v -0.384375 -0.000000 0.072945
v -0.384375 -0.001406 0.073570
v -0.384375 -0.002656 0.075132
v -0.384375 -0.003594 0.077632
v -0.384375 -0.004219 0.080757
v -0.384375 -0.004375 0.084194
v -0.384375 -0.004219 0.087476
v -0.384375 -0.003594 0.090601
v -0.384375 -0.002656 0.093101
v -0.384375 -0.001406 0.094664
v -0.384375 -0.000000 0.095133
v 0.000000 -0.000000 0.095133
v 0.000000 -0.001406 0.094664
v 0.000000 -0.000000 0.084194
v 0.000000 -0.002656 0.093101
v 0.000000 -0.003594 0.090601
v 0.000000 -0.004219 0.087476
v 0.000000 -0.004375 0.084194
v 0.000000 -0.004219 0.080757
v 0.000000 -0.000000 0.072945
v 0.000000 -0.001406 0.073570
v 0.000000 -0.002656 0.075132
v 0.000000 -0.003594 0.077632
v -3.465000 0.000000 -0.093900
v -3.465000 -0.001406 -0.093431
v -2.599375 0.000000 -0.093900
v -2.599375 -0.001406 -0.093431
v -3.465000 -0.002656 -0.091712
v -2.599375 -0.002656 -0.091712
v -3.465000 -0.003594 -0.089368
v -2.599375 -0.003594 -0.089368
v -3.465000 -0.004219 -0.086243
v -2.599375 -0.004219 -0.086243
v -3.465000 -0.004375 -0.082806
v -2.599375 -0.004375 -0.082806
v -3.465000 -0.004219 -0.079369
v -2.599375 -0.004219 -0.079369
v -3.465000 -0.003594 -0.076243
v -2.599375 -0.003594 -0.076243
v -3.465000 -0.002656 -0.073900
v -2.599375 -0.002656 -0.073900
v -3.465000 -0.001406 -0.072337
v -2.599375 -0.001406 -0.072337
v -3.465000 0.000000 -0.071712
v -2.599375 0.000000 -0.071712
v -2.051875 0.000000 -0.093900
v -2.051875 -0.001406 -0.093431
v -2.051875 -0.002656 -0.091712
v -2.051875 -0.003594 -0.089368
v -2.051875 -0.004219 -0.086243
v -2.051875 -0.004375 -0.082806
v -2.051875 -0.004219 -0.079369
v -2.051875 -0.003594 -0.076243
v -2.051875 -0.002656 -0.073900
v -2.051875 -0.001406 -0.072337
v -2.051875 0.000000 -0.071712
v -1.537344 0.000000 -0.093900
v -1.537344 -0.001406 -0.093431
v -1.537344 -0.002656 -0.091712
v -1.537344 -0.003594 -0.089368
v -1.537344 -0.004219 -0.086243
v -1.537344 -0.004375 -0.082806
v -1.537344 -0.004219 -0.079369
v -1.537344 -0.003594 -0.076243
v -1.537344 -0.002656 -0.073900
v -1.537344 -0.001406 -0.072337
v -1.537344 0.000000 -0.071712
v -1.152969 0.000000 -0.093900
v -1.152969 -0.001406 -0.093431
v -1.152969 -0.002656 -0.091712
v -1.152969 -0.003594 -0.089368
v -1.152969 -0.004219 -0.086243
v -1.152969 -0.004375 -0.082806
v -1.152969 -0.004219 -0.079369
v -1.152969 -0.003594 -0.076243
v -1.152969 -0.002656 -0.073900
v -1.152969 -0.001406 -0.072337
v -1.152969 0.000000 -0.071712
v -0.768594 0.000000 -0.093900
v -0.768594 -0.001406 -0.093431
v -0.768594 -0.002656 -0.091712
v -0.768594 -0.003594 -0.089368
v -0.768594 -0.004219 -0.086243
v -0.768594 -0.004375 -0.082806
v -0.768594 -0.004219 -0.079369
v -0.768594 -0.003594 -0.076243
v -0.768594 -0.002656 -0.073900
v -0.768594 -0.001406 -0.072337
v -0.768594 0.000000 -0.071712
v -0.384375 0.000000 -0.093900
v -0.384375 -0.001406 -0.093431
v -0.384375 -0.002656 -0.091712
v -0.384375 -0.003594 -0.089368
v -0.384375 -0.004219 -0.086243
v -0.384375 -0.004375 -0.082806
v -0.384375 -0.004219 -0.079369
v -0.384375 -0.003594 -0.076243
v -0.384375 -0.002656 -0.073900
v -0.384375 -0.001406 -0.072337
v -0.384375 0.000000 -0.071712
v 0.000000 0.000000 -0.071712
v 0.000000 -0.001406 -0.072337
v 0.000000 0.000000 -0.082806
v 0.000000 -0.002656 -0.073900
v 0.000000 -0.003594 -0.076243
v 0.000000 -0.004219 -0.079369
v 0.000000 -0.004375 -0.082806
v 0.000000 -0.004219 -0.086243
v 0.000000 0.000000 -0.093900
v 0.000000 -0.001406 -0.093431
v 0.000000 -0.002656 -0.091712
v 0.000000 -0.003594 -0.089368
vt -0.001953 64.000000
vt 0.085938 64.000000
vt -0.001953 61.583984
vt 0.085938 61.583984
vt 0.185547 64.000000
vt 0.185547 61.583984
vt 0.279297 64.000000
vt 0.279297 61.583984
vt 0.384766 64.000000
vt 0.384766 61.583984
vt 0.500000 64.000000
vt 0.500000 61.583984
vt 0.384766 64.000000
vt 0.384766 61.583984
vt 0.279297 64.000000
vt 0.279297 61.583984
vt 0.183594 64.000000
vt 0.183594 61.583984
vt 0.085938 64.000000
vt 0.085938 61.583984
vt 0.000000 64.000000
vt 0.000000 61.583984
vt -0.001953 57.599609
vt 0.085938 57.599609
vt 0.185547 57.599609
vt 0.279297 57.599609
vt 0.384766 57.599609
vt 0.500000 57.599609
vt 0.384766 57.599609
vt 0.279297 57.599609
vt 0.183594 57.599609
vt 0.085938 57.599609
vt 0.000000 57.599609
vt -0.001953 51.199219
vt 0.085938 51.199219
vt 0.185547 51.199219
vt 0.279297 51.199219
vt 0.384766 51.199219
vt 0.500000 51.199219
vt 0.384766 51.199219
vt 0.279297 51.199219
vt 0.183594 51.199219
vt 0.085938 51.199219
vt 0.000000 51.199219
vt -0.001953 38.400391
vt 0.085938 38.400391
vt 0.185547 38.400391
vt 0.279297 38.400391
vt 0.384766 38.400391
vt 0.500000 38.400391
vt 0.384766 38.400391
vt 0.279297 38.400391
vt 0.183594 38.400391
vt 0.085938 38.400391
vt 0.000000 38.400391
vt -0.001953 25.599609
vt 0.085938 25.599609
vt 0.185547 25.599609
vt 0.279297 25.599609
vt 0.384766 25.599609
vt 0.500000 25.599609
vt 0.384766 25.599609
vt 0.279297 25.599609
vt 0.183594 25.599609
vt 0.085938 25.599609
vt 0.000000 25.599609
vt -0.001953 12.800781
vt 0.085938 12.800781
vt 0.185547 12.800781
vt 0.279297 12.800781
vt 0.384766 12.800781
vt 0.500000 12.800781
vt 0.384766 12.800781
vt 0.279297 12.800781
vt 0.183594 12.800781
vt 0.085938 12.800781
vt 0.000000 12.800781
vt 0.000000 0.000000
vt 0.085938 0.000000
vt 0.500000 0.000000
vt 0.183594 0.000000
vt 0.279297 0.000000
vt 0.384766 0.000000
vt 0.500000 0.000000
vt 0.384766 0.000000
vt -0.001953 0.000000
vt 0.085938 0.000000
vt 0.185547 0.000000
vt 0.279297 0.000000
vt -0.001953 64.000000
vt 0.085938 64.000000
vt -0.001953 61.583984
vt 0.085938 61.583984
vt 0.185547 64.000000
vt 0.185547 61.583984
vt 0.279297 64.000000
vt 0.279297 61.583984
vt 0.384766 64.000000
vt 0.384766 61.583984
vt 0.500000 64.000000
vt 0.500000 61.583984
vt 0.384766 64.000000
vt 0.384766 61.583984
vt 0.279297 64.000000
vt 0.279297 61.583984
vt 0.183594 64.000000
vt 0.183594 61.583984
vt 0.085938 64.000000
vt 0.085938 61.583984
vt 0.000000 64.000000
vt 0.000000 61.583984
vt -0.001953 57.599609
vt 0.085938 57.599609
vt 0.185547 57.599609
vt 0.279297 57.599609
vt 0.384766 57.599609
vt 0.500000 57.599609
vt 0.384766 57.599609
vt 0.279297 57.599609
vt 0.183594 57.599609
vt 0.085938 57.599609
vt 0.000000 57.599609
vt -0.001953 51.199219
vt 0.085938 51.199219
vt 0.185547 51.199219
vt 0.279297 51.199219
vt 0.384766 51.199219
vt 0.500000 51.199219
vt 0.384766 51.199219
vt 0.279297 51.199219
vt 0.183594 51.199219
vt 0.085938 51.199219
vt 0.000000 51.199219
vt -0.001953 38.400391
vt 0.085938 38.400391
vt 0.185547 38.400391
vt 0.279297 38.400391
vt 0.384766 38.400391
vt 0.500000 38.400391
vt 0.384766 38.400391
vt 0.279297 38.400391
vt 0.183594 38.400391
vt 0.085938 38.400391
vt 0.000000 38.400391
vt -0.001953 25.599609
vt 0.085938 25.599609
vt 0.185547 25.599609
vt 0.279297 25.599609
vt 0.384766 25.599609
vt 0.500000 25.599609
vt 0.384766 25.599609
vt 0.279297 25.599609
vt 0.183594 25.599609
vt 0.085938 25.599609
vt 0.000000 25.599609
vt -0.001953 12.800781
vt 0.085938 12.800781
vt 0.185547 12.800781
vt 0.279297 12.800781
vt 0.384766 12.800781
vt 0.500000 12.800781
vt 0.384766 12.800781
vt 0.279297 12.800781
vt 0.183594 12.800781
vt 0.085938 12.800781
vt 0.000000 12.800781
vt 0.000000 0.000000
vt 0.085938 0.000000
vt 0.500000 0.000000
vt 0.183594 0.000000
vt 0.279297 0.000000
vt 0.384766 0.000000
vt 0.500000 0.000000
vt 0.384766 0.000000
vt -0.001953 0.000000
vt 0.085938 0.000000
vt 0.185547 0.000000
vt 0.279297 0.000000
vn 0.0000 0.4062 0.9138
vn 0.0000 0.6108 0.7918
vn 0.0000 0.8693 0.4942
vn 0.0000 0.9616 0.2746
vn 0.0000 0.9926 0.1210
vn 0.0000 1.0000 -0.0011
vn 0.0000 0.9925 -0.1221
vn 0.0000 0.9616 -0.2746
vn 0.0000 0.8694 -0.4941
vn 0.0000 0.5721 -0.8202
vn 0.0000 0.3164 -0.9486
vn -0.6225 0.2474 -0.7425
vn -0.6486 0.4355 -0.6243
vn -1.0000 0.0000 0.0000
vn -0.6734 0.6428 -0.3653
vn -0.6895 0.6965 -0.1986
vn -0.6906 0.7178 -0.0883
vn -0.6968 0.7173 -0.0008
vn -0.6904 0.7181 0.0876
vn -0.5916 0.3275 0.7367
vn -0.6575 0.4602 0.5965
vn -0.6734 0.6427 0.3654
vn -0.6894 0.6966 0.1989
vn 0.0000 0.3164 0.9486
vn 0.0000 0.5908 0.8068
vn 0.0000 0.8753 0.4835
vn 0.0000 0.9585 0.2850
vn 0.0000 0.9587 0.2846
vn 0.0000 0.9926 0.1211
vn 0.0000 1.0000 0.0000
vn 0.0000 0.9926 -0.1210
vn 0.0000 0.9585 -0.2851
vn 0.0000 0.8640 -0.5035
vn 0.0000 0.6109 -0.7917
vn 0.0000 0.4062 -0.9138
vn 0.0000 0.9586 0.2847
vn -0.0000 0.9587 -0.2845
vn 0.0000 0.9587 0.2843
vn 0.0000 0.9586 -0.2846
vn -0.5916 0.3275 -0.7368
vn -0.6575 0.4603 -0.5965
vn -0.6756 0.6370 -0.3712
vn -0.6871 0.6965 -0.2071
vn -0.6904 0.7181 -0.0876
vn -0.6970 0.7170 0.0000
vn -0.6223 0.2477 0.7425
vn -0.6444 0.4517 0.6169
vn -0.6803 0.6416 0.3544
vn -0.6871 0.6964 0.2071
usemtl gater_2
s 1
f 1/1/1 2/2/2 3/3/1
f 3/3/1 2/2/2 4/4/2
f 2/2/2 5/5/3 4/4/2
f 4/4/2 5/5/3 6/6/3
f 5/5/3 7/7/4 6/6/3
f 6/6/3 7/7/4 8/8/4
f 7/7/4 9/9/5 8/8/4
f 8/8/4 9/9/5 10/10/5
f 9/9/5 11/11/6 10/10/5
f 10/10/5 11/11/6 12/12/6
f 11/11/6 13/13/7 12/12/6
f 12/12/6 13/13/7 14/14/7
f 13/13/7 15/15/8 14/14/7
f 14/14/7 15/15/8 16/16/8
f 15/15/8 17/17/9 16/16/8
f 16/16/8 17/17/9 18/18/9
f 17/17/9 19/19/10 18/18/9
f 18/18/9 19/19/10 20/20/10
f 19/19/10 21/21/11 20/20/10
f 20/20/10 21/21/11 22/22/11
f 3/3/1 4/4/2 23/23/1
f 23/23/1 4/4/2 24/24/2
f 4/4/2 6/6/3 24/24/2
f 24/24/2 6/6/3 25/25/3
f 6/6/3 8/8/4 25/25/3
f 25/25/3 8/8/4 26/26/4
f 8/8/4 10/10/5 26/26/4
f 26/26/4 10/10/5 27/27/5
f 10/10/5 12/12/6 27/27/5
f 27/27/5 12/12/6 28/28/6
f 12/12/6 14/14/7 28/28/6
f 28/28/6 14/14/7 29/29/7
f 14/14/7 16/16/8 29/29/7
f 29/29/7 16/16/8 30/30/8
f 16/16/8 18/18/9 30/30/8
f 30/30/8 18/18/9 31/31/9
f 18/18/9 20/20/10 31/31/9
f 31/31/9 20/20/10 32/32/10
f 20/20/10 22/22/11 32/32/10
f 32/32/10 22/22/11 33/33/11
f 23/23/1 24/24/2 34/34/1
f 34/34/1 24/24/2 35/35/2
f 24/24/2 25/25/3 35/35/2
f 35/35/2 25/25/3 36/36/3
f 25/25/3 26/26/4 36/36/3
f 36/36/3 26/26/4 37/37/4
f 26/26/4 27/27/5 37/37/4
f 37/37/4 27/27/5 38/38/5
f 27/27/5 28/28/6 38/38/5
f 38/38/5 28/28/6 39/39/6
f 28/28/6 29/29/7 39/39/6
f 39/39/6 29/29/7 40/40/7
f 29/29/7 30/30/8 40/40/7
f 40/40/7 30/30/8 41/41/8
f 30/30/8 31/31/9 41/41/8
f 41/41/8 31/31/9 42/42/9
f 31/31/9 32/32/10 42/42/9
f 42/42/9 32/32/10 43/43/10
f 32/32/10 33/33/11 43/43/10
f 43/43/10 33/33/11 44/44/11
f 34/34/1 35/35/2 45/45/1
f 45/45/1 35/35/2 46/46/2
f 35/35/2 36/36/3 46/46/2
f 46/46/2 36/36/3 47/47/3
f 36/36/3 37/37/4 47/47/3
f 47/47/3 37/37/4 48/48/4
f 37/37/4 38/38/5 48/48/4
f 48/48/4 38/38/5 49/49/5
f 38/38/5 39/39/6 49/49/5
f 49/49/5 39/39/6 50/50/6
f 39/39/6 40/40/7 50/50/6
f 50/50/6 40/40/7 51/51/7
f 40/40/7 41/41/8 51/51/7
f 51/51/7 41/41/8 52/52/8
f 41/41/8 42/42/9 52/52/8
f 52/52/8 42/42/9 53/53/9
f 42/42/9 43/43/10 53/53/9
f 53/53/9 43/43/10 54/54/10
f 43/43/10 44/44/11 54/54/10
f 54/54/10 44/44/11 55/55/11
f 45/45/1 46/46/2 56/56/1
f 56/56/1 46/46/2 57/57/2
f 46/46/2 47/47/3 57/57/2
f 57/57/2 47/47/3 58/58/3
f 47/47/3 48/48/4 58/58/3
f 58/58/3 48/48/4 59/59/4
f 48/48/4 49/49/5 59/59/4
f 59/59/4 49/49/5 60/60/5
f 49/49/5 50/50/6 60/60/5
f 60/60/5 50/50/6 61/61/6
f 50/50/6 51/51/7 61/61/6
f 61/61/6 51/51/7 62/62/7
f 51/51/7 52/52/8 62/62/7
f 62/62/7 52/52/8 63/63/8
f 52/52/8 53/53/9 63/63/8
f 63/63/8 53/53/9 64/64/9
f 53/53/9 54/54/10 64/64/9
f 64/64/9 54/54/10 65/65/10
f 54/54/10 55/55/11 65/65/10
f 65/65/10 55/55/11 66/66/11
f 56/56/1 57/57/2 67/67/1
f 67/67/1 57/57/2 68/68/2
f 57/57/2 58/58/3 68/68/2
f 68/68/2 58/58/3 69/69/3
f 58/58/3 59/59/4 69/69/3
f 69/69/3 59/59/4 70/70/4
f 59/59/4 60/60/5 70/70/4
f 70/70/4 60/60/5 71/71/5
f 60/60/5 61/61/6 71/71/5
f 71/71/5 61/61/6 72/72/6
f 61/61/6 62/62/7 72/72/6
f 72/72/6 62/62/7 73/73/7
f 62/62/7 63/63/8 73/73/7
f 73/73/7 63/63/8 74/74/8
f 63/63/8 64/64/9 74/74/8
f 74/74/8 64/64/9 75/75/9
f 64/64/9 65/65/10 75/75/9
f 75/75/9 65/65/10 76/76/10
f 65/65/10 66/66/11 76/76/10
f 76/76/10 66/66/11 77/77/11
f 77/77/11 78/78/12 76/76/10
f 76/76/10 78/78/12 79/79/13
f 78/78/12 80/80/14 79/79/13
f 79/79/13 80/80/14 81/81/15
f 80/80/14 82/82/16 81/81/15
f 81/81/15 82/82/16 74/74/8
f 82/82/16 73/73/7 74/74/8
f 82/82/16 80/80/14 83/83/17
f 83/83/17 80/80/14 84/84/18
f 80/80/14 85/85/19 84/84/18
f 84/84/18 85/85/19 71/71/5
f 85/85/19 70/70/4 71/71/5
f 86/86/20 87/87/21 80/80/14
f 80/80/14 87/87/21 88/88/22
f 87/87/21 68/68/2 88/88/22
f 88/88/22 68/68/2 69/69/3
f 82/82/16 83/83/17 73/73/7
f 73/73/7 83/83/17 72/72/6
f 83/83/17 84/84/18 72/72/6
f 72/72/6 84/84/18 71/71/5
f 80/80/14 89/89/23 85/85/19
f 85/85/19 89/89/23 70/70/4
f 89/89/23 69/69/3 70/70/4
f 76/76/10 79/79/13 75/75/9
f 75/75/9 79/79/13 81/81/15
f 86/86/20 67/67/1 87/87/21
f 87/87/21 67/67/1 68/68/2
f 80/80/14 88/88/22 89/89/23
f 89/89/23 88/88/22 69/69/3
f 81/81/15 74/74/8 75/75/9
f 90/90/24 91/91/25 92/92/24
f 92/92/24 91/91/25 93/93/25
f 91/91/25 94/94/26 93/93/25
f 93/93/25 94/94/26 95/95/26
f 94/94/26 96/96/27 95/95/26
f 95/95/26 96/96/27 97/97/28
f 96/96/27 98/98/29 97/97/28
f 97/97/28 98/98/29 99/99/29
f 98/98/29 100/100/30 99/99/29
f 99/99/29 100/100/30 101/101/30
f 100/100/30 102/102/31 101/101/30
f 101/101/30 102/102/31 103/103/31
f 102/102/31 104/104/32 103/103/31
f 103/103/31 104/104/32 105/105/32
f 104/104/32 106/106/33 105/105/32
f 105/105/32 106/106/33 107/107/33
f 106/106/33 108/108/34 107/107/33
f 107/107/33 108/108/34 109/109/34
f 108/108/34 110/110/35 109/109/34
f 109/109/34 110/110/35 111/111/35
f 92/92/24 93/93/25 112/112/24
f 112/112/24 93/93/25 113/113/25
f 93/93/25 95/95/26 113/113/25
f 113/113/25 95/95/26 114/114/26
f 95/95/26 97/97/28 114/114/26
f 114/114/26 97/97/28 115/115/36
f 97/97/28 99/99/29 115/115/36
f 115/115/36 99/99/29 116/116/29
f 99/99/29 101/101/30 116/116/29
f 116/116/29 101/101/30 117/117/30
f 101/101/30 103/103/31 117/117/30
f 117/117/30 103/103/31 118/118/31
f 103/103/31 105/105/32 118/118/31
f 118/118/31 105/105/32 119/119/37
f 105/105/32 107/107/33 119/119/37
f 119/119/37 107/107/33 120/120/33
f 107/107/33 109/109/34 120/120/33
f 120/120/33 109/109/34 121/121/34
f 109/109/34 111/111/35 121/121/34
f 121/121/34 111/111/35 122/122/35
f 112/112/24 113/113/25 123/123/24
f 123/123/24 113/113/25 124/124/25
f 113/113/25 114/114/26 124/124/25
f 124/124/25 114/114/26 125/125/26
f 114/114/26 115/115/36 125/125/26
f 125/125/26 115/115/36 126/126/38
f 115/115/36 116/116/29 126/126/38
f 126/126/38 116/116/29 127/127/29
f 116/116/29 117/117/30 127/127/29
f 127/127/29 117/117/30 128/128/30
f 117/117/30 118/118/31 128/128/30
f 128/128/30 118/118/31 129/129/31
f 118/118/31 119/119/37 129/129/31
f 129/129/31 119/119/37 130/130/32
f 119/119/37 120/120/33 130/130/32
f 130/130/32 120/120/33 131/131/33
f 120/120/33 121/121/34 131/131/33
f 131/131/33 121/121/34 132/132/34
f 121/121/34 122/122/35 132/132/34
f 132/132/34 122/122/35 133/133/35
f 123/123/24 124/124/25 134/134/24
f 134/134/24 124/124/25 135/135/25
f 124/124/25 125/125/26 135/135/25
f 135/135/25 125/125/26 136/136/26
f 125/125/26 126/126/38 136/136/26
f 136/136/26 126/126/38 137/137/27
f 126/126/38 127/127/29 137/137/27
f 137/137/27 127/127/29 138/138/29
f 127/127/29 128/128/30 138/138/29
f 138/138/29 128/128/30 139/139/30
f 128/128/30 129/129/31 139/139/30
f 139/139/30 129/129/31 140/140/31
f 129/129/31 130/130/32 140/140/31
f 140/140/31 130/130/32 141/141/32
f 130/130/32 131/131/33 141/141/32
f 141/141/32 131/131/33 142/142/33
f 131/131/33 132/132/34 142/142/33
f 142/142/33 132/132/34 143/143/34
f 132/132/34 133/133/35 143/143/34
f 143/143/34 133/133/35 144/144/35
f 134/134/24 135/135/25 145/145/24
f 145/145/24 135/135/25 146/146/25
f 135/135/25 136/136/26 146/146/25
f 146/146/25 136/136/26 147/147/26
f 136/136/26 137/137/27 147/147/26
f 147/147/26 137/137/27 148/148/27
f 137/137/27 138/138/29 148/148/27
f 148/148/27 138/138/29 149/149/29
f 138/138/29 139/139/30 149/149/29
f 149/149/29 139/139/30 150/150/30
f 139/139/30 140/140/31 150/150/30
f 150/150/30 140/140/31 151/151/31
f 140/140/31 141/141/32 151/151/31
f 151/151/31 141/141/32 152/152/37
f 141/141/32 142/142/33 152/152/37
f 152/152/37 142/142/33 153/153/33
f 142/142/33 143/143/34 153/153/33
f 153/153/33 143/143/34 154/154/34
f 143/143/34 144/144/35 154/154/34
f 154/154/34 144/144/35 155/155/35
f 145/145/24 146/146/25 156/156/24
f 156/156/24 146/146/25 157/157/25
f 146/146/25 147/147/26 157/157/25
f 157/157/25 147/147/26 158/158/26
f 147/147/26 148/148/27 158/158/26
f 158/158/26 148/148/27 159/159/38
f 148/148/27 149/149/29 159/159/38
f 159/159/38 149/149/29 160/160/29
f 149/149/29 150/150/30 160/160/29
f 160/160/29 150/150/30 161/161/30
f 150/150/30 151/151/31 161/161/30
f 161/161/30 151/151/31 162/162/31
f 151/151/31 152/152/37 162/162/31
f 162/162/31 152/152/37 163/163/39
f 152/152/37 153/153/33 163/163/39
f 163/163/39 153/153/33 164/164/33
f 153/153/33 154/154/34 164/164/33
f 164/164/33 154/154/34 165/165/34
f 154/154/34 155/155/35 165/165/34
f 165/165/34 155/155/35 166/166/35
f 166/166/35 167/167/40 165/165/34
f 165/165/34 167/167/40 168/168/41
f 167/167/40 169/169/14 168/168/41
f 168/168/41 169/169/14 170/170/42
f 169/169/14 171/171/43 170/170/42
f 170/170/42 171/171/43 163/163/39
f 171/171/43 162/162/31 163/163/39
f 171/171/43 169/169/14 172/172/44
f 172/172/44 169/169/14 173/173/45
f 169/169/14 174/174/19 173/173/45
f 173/173/45 174/174/19 160/160/29
f 174/174/19 159/159/38 160/160/29
f 175/175/46 176/176/47 169/169/14
f 169/169/14 176/176/47 177/177/48
f 176/176/47 157/157/25 177/177/48
f 177/177/48 157/157/25 158/158/26
f 171/171/43 172/172/44 162/162/31
f 162/162/31 172/172/44 161/161/30
f 172/172/44 173/173/45 161/161/30
f 161/161/30 173/173/45 160/160/29
f 169/169/14 178/178/49 174/174/19
f 174/174/19 178/178/49 159/159/38
f 178/178/49 158/158/26 159/159/38
f 165/165/34 168/168/41 164/164/33
f 164/164/33 168/168/41 170/170/42
f 175/175/46 156/156/24 176/176/47
f 176/176/47 156/156/24 157/157/25
f 169/169/14 177/177/48 178/178/49
f 178/178/49 177/177/48 158/158/26
f 170/170/42 163/163/39 164/164/33
