# Blender 5.0.1
# www.blender.org
mtllib BallsStandee.mtl
o WS2_bwl_field_91.mo.004_WS2_bwl_field_91.md.001
v 0.667500 0.001523 0.011992
v 0.670547 0.009531 0.011992
v 0.667500 0.001523 0.007930
v 0.670547 0.009531 0.007930
v 0.673633 0.015703 0.011992
v 0.673633 0.015703 0.007930
v 0.698867 0.019336 0.007930
v 0.682852 0.019336 0.007930
v 0.667500 0.001523 -0.226562
v 0.670547 0.009531 -0.226562
v 0.667500 0.001523 -0.230625
v 0.670547 0.009531 -0.230625
v 0.673633 0.015703 -0.226562
v 0.673633 0.015703 -0.230625
v 0.698867 0.019336 -0.230625
v 0.682852 0.019336 -0.230625
v 0.667500 0.001523 -0.108555
v 0.670547 0.009531 -0.108555
v 0.667500 0.001523 -0.112656
v 0.670547 0.009531 -0.112656
v 0.673633 0.015703 -0.108555
v 0.673633 0.015703 -0.112656
v 0.698867 0.019336 -0.112656
v 0.682852 0.019336 -0.112656
v 0.698867 -0.010000 0.011992
v 0.698867 0.001523 0.011992
v 0.665273 -0.010000 0.011992
v 0.667500 0.001523 0.011992
v 0.698867 0.009531 0.011992
v 0.670547 0.009531 0.011992
v 0.673633 0.015703 0.011992
v 0.698867 -0.010000 -0.226562
v 0.698867 0.001523 -0.226562
v 0.665273 -0.010000 -0.226562
v 0.667500 0.001523 -0.226562
v 0.698867 0.009531 -0.226562
v 0.670547 0.009531 -0.226562
v 0.673633 0.015703 -0.226562
v 0.698867 -0.010000 -0.108555
v 0.698867 0.001523 -0.108555
v 0.665273 -0.010000 -0.108555
v 0.667500 0.001523 -0.108555
v 0.698867 0.009531 -0.108555
v 0.670547 0.009531 -0.108555
v 0.673633 0.015703 -0.108555
v 0.667500 0.001523 0.007930
v 0.670547 0.009531 0.007930
v 0.698867 0.001523 0.007930
v 0.698867 0.009766 0.007930
v 0.673633 0.015703 0.007930
v 0.682852 0.019336 0.007930
v 0.667500 0.001523 -0.112656
v 0.670547 0.009531 -0.112656
v 0.698867 0.001523 -0.112656
v 0.698867 0.009766 -0.112656
v 0.673633 0.015703 -0.112656
v 0.682852 0.019336 -0.112656
v 0.667500 0.001523 -0.230625
v 0.670547 0.009531 -0.230625
v 0.698867 0.001523 -0.230625
v 0.698867 0.009766 -0.230625
v 0.673633 0.015703 -0.230625
v 0.682852 0.019336 -0.230625
v 0.698867 -0.010000 0.007930
v 0.665273 -0.010000 0.007930
v 0.667500 0.001523 0.007930
v 0.665273 -0.010000 0.007930
v 0.667500 0.001523 0.011992
v 0.665273 -0.010000 0.011992
v 0.698867 -0.010000 -0.112656
v 0.665273 -0.010000 -0.112656
v 0.667500 0.001523 -0.112656
v 0.665273 -0.010000 -0.112656
v 0.667500 0.001523 -0.108555
v 0.665273 -0.010000 -0.108555
v 0.673164 -0.001250 -0.228555
v 0.673164 -0.001250 0.008594
v 0.671328 0.000664 -0.228555
v 0.671328 0.000664 0.008594
v 0.673164 -0.001250 0.008594
v 0.673164 -0.001250 -0.228555
v 0.698867 -0.001250 0.008594
v 0.698867 -0.001250 -0.228555
v 0.673164 0.002539 0.008594
v 0.673164 0.002539 -0.228555
v 0.698867 0.002539 0.008594
v 0.698867 0.002539 -0.228555
v 0.673164 0.002539 0.008594
v 0.673164 0.002539 -0.228555
v 0.698867 -0.010000 -0.230625
v 0.665273 -0.010000 -0.230625
v 0.667500 0.001523 -0.230625
v 0.665273 -0.010000 -0.230625
v 0.667500 0.001523 -0.226562
v 0.665273 -0.010000 -0.226562
v 0.698867 0.019336 0.011992
v 0.682852 0.019336 0.011992
v 0.698867 0.019336 -0.108555
v 0.682852 0.019336 -0.108555
v 0.698867 0.019336 -0.226562
v 0.682852 0.019336 -0.226562
v 0.682852 0.019336 0.011992
v 0.698867 0.019336 0.011992
v 0.682852 0.019336 -0.108555
v 0.698867 0.019336 -0.108555
v 0.682852 0.019336 -0.226562
v 0.698867 0.019336 -0.226562
v 0.698867 0.019336 -0.112656
v 0.698867 0.019336 -0.230625
v 0.698867 0.019336 0.007930
vn -0.9346 0.3556 -0.0000
vn -0.9157 0.4019 -0.0000
vn -0.5929 0.8011 -0.0821
vn -0.5831 0.8081 0.0832
vn -0.0365 0.9993 0.0038
vn -0.0000 -0.0000 1.0000
vn -0.5930 0.8010 -0.0820
vn -0.0369 0.9993 0.0039
vn -0.0000 -0.0000 -1.0000
vn -0.9818 0.1898 -0.0000
vn -0.7216 -0.6923 -0.0000
vn -0.7217 -0.6922 -0.0000
vn -1.0000 0.0051 -0.0000
vn -1.0000 0.0052 -0.0000
vn -0.0000 -1.0000 -0.0000
vn -0.7145 0.6997 -0.0000
vn -0.7145 0.6996 -0.0000
vn -0.0000 1.0000 -0.0000
vn -0.1983 0.5909 -0.7820
vn -0.1995 0.5946 -0.7789
vn -0.1984 0.5910 -0.7819
vt 0.187500 0.734375
vt -3.685791 0.405518
vt 4.685791 0.405518
vt -3.685791 0.500000
vt 4.685791 0.500000
vt 4.282715 0.000000
vt -3.282715 0.000000
vt 4.282715 1.000000
vt -3.282715 1.000000
vt 4.685791 0.594482
vt -3.685791 0.594482
s 1
usemtl ball_stand_2_2
f 1/1/1 2/1/2 3/1/1
f 3/1/1 2/1/2 4/1/2
f 2/1/2 5/1/3 4/1/2
f 4/1/2 5/1/3 6/1/4
f 5/1/3 7/1/5 6/1/4
f 6/1/4 7/1/5 8/1/6
f 9/1/1 10/1/2 11/1/1
f 11/1/1 10/1/2 12/1/2
f 10/1/2 13/1/3 12/1/2
f 12/1/2 13/1/3 14/1/4
f 13/1/3 15/1/5 14/1/4
f 14/1/4 15/1/5 16/1/6
f 17/1/1 18/1/2 19/1/1
f 19/1/1 18/1/2 20/1/2
f 18/1/2 21/1/7 20/1/2
f 20/1/2 21/1/7 22/1/4
f 21/1/7 23/1/8 22/1/4
f 22/1/4 23/1/8 24/1/6
f 25/1/6 26/1/6 27/1/6
f 27/1/6 26/1/6 28/1/6
f 26/1/6 29/1/6 28/1/6
f 28/1/6 29/1/6 30/1/6
f 29/1/6 31/1/6 30/1/6
f 32/1/6 33/1/6 34/1/6
f 34/1/6 33/1/6 35/1/6
f 33/1/6 36/1/6 35/1/6
f 35/1/6 36/1/6 37/1/6
f 36/1/6 38/1/6 37/1/6
f 39/1/6 40/1/6 41/1/6
f 41/1/6 40/1/6 42/1/6
f 40/1/6 43/1/6 42/1/6
f 42/1/6 43/1/6 44/1/6
f 43/1/6 45/1/6 44/1/6
f 46/1/9 47/1/9 48/1/9
f 48/1/9 47/1/9 49/1/9
f 47/1/9 50/1/9 49/1/9
f 49/1/9 50/1/9 51/1/9
f 52/1/9 53/1/9 54/1/9
f 54/1/9 53/1/9 55/1/9
f 53/1/9 56/1/9 55/1/9
f 55/1/9 56/1/9 57/1/9
f 58/1/9 59/1/9 60/1/9
f 60/1/9 59/1/9 61/1/9
f 59/1/9 62/1/9 61/1/9
f 61/1/9 62/1/9 63/1/9
f 64/1/9 65/1/9 48/1/9
f 48/1/9 65/1/9 46/1/9
f 66/1/10 67/1/10 68/1/10
f 68/1/10 67/1/10 69/1/10
f 70/1/9 71/1/9 54/1/9
f 54/1/9 71/1/9 52/1/9
f 72/1/10 73/1/10 74/1/10
f 74/1/10 73/1/10 75/1/10
f 76/2/11 77/3/12 78/4/13
f 78/4/13 77/3/12 79/5/14
f 80/6/15 81/7/15 82/8/15
f 82/8/15 81/7/15 83/9/15
f 84/10/16 85/11/17 79/5/14
f 79/5/14 85/11/17 78/4/13
f 86/8/18 87/9/18 88/6/18
f 88/6/18 87/9/18 89/7/18
f 90/1/9 91/1/9 60/1/9
f 60/1/9 91/1/9 58/1/9
f 92/1/10 93/1/10 94/1/10
f 94/1/10 93/1/10 95/1/10
f 29/1/6 96/1/6 31/1/6
f 31/1/6 96/1/6 97/1/6
f 43/1/6 98/1/6 45/1/6
f 45/1/6 98/1/6 99/1/6
f 36/1/6 100/1/6 38/1/6
f 38/1/6 100/1/6 101/1/6
f 5/1/3 102/1/19 7/1/5
f 7/1/5 102/1/19 103/1/18
f 21/1/7 104/1/20 23/1/8
f 23/1/8 104/1/20 105/1/18
f 13/1/3 106/1/21 15/1/5
f 15/1/5 106/1/21 107/1/18
f 55/1/9 57/1/9 108/1/9
f 61/1/9 63/1/9 109/1/9
f 49/1/9 51/1/9 110/1/9
