# Blender 5.0.1
# www.blender.org
mtllib Balls.mtl
o WS2_bwl_field_91.mo.018_WS2_bwl_field_91.md.001
v 0.685564 0.019564 -0.212839
v 0.679723 0.017756 -0.209464
v 0.685564 0.017756 -0.206089
v 0.679723 0.012814 -0.202714
v 0.673877 0.012814 -0.212839
v 0.673877 0.006064 -0.206089
v 0.673877 0.006064 -0.219589
v 0.673877 -0.000686 -0.212839
v 0.679723 -0.000686 -0.222964
v 0.679723 -0.005627 -0.216214
v 0.685564 -0.005627 -0.219589
v 0.685564 -0.007436 -0.212839
v 0.685564 0.019564 -0.212839
v 0.679723 0.017756 -0.216214
v 0.679723 0.012814 -0.222964
v 0.685564 0.006064 -0.226339
v 0.685564 -0.007436 -0.212839
v 0.685564 -0.005627 -0.206089
v 0.679723 -0.005627 -0.209464
v 0.679723 -0.000686 -0.202714
v 0.685564 0.006064 -0.199339
v 0.685564 -0.007436 -0.212839
v 0.685564 0.019564 -0.212839
v 0.685564 0.017756 -0.219589
v 0.685565 0.019564 -0.184672
v 0.679725 0.017756 -0.181297
v 0.685565 0.017756 -0.177922
v 0.679725 0.012814 -0.174547
v 0.673879 0.012814 -0.184672
v 0.673879 0.006064 -0.177922
v 0.673879 0.006064 -0.191422
v 0.673879 -0.000686 -0.184672
v 0.679725 -0.000686 -0.194797
v 0.679725 -0.005627 -0.188047
v 0.685565 -0.005627 -0.191422
v 0.685565 -0.007436 -0.184672
v 0.685565 0.019564 -0.184672
v 0.679725 0.017756 -0.188047
v 0.679725 0.012814 -0.194797
v 0.685565 0.006064 -0.198172
v 0.685565 -0.007436 -0.184672
v 0.685565 -0.005627 -0.177922
v 0.679725 -0.005627 -0.181297
v 0.679725 -0.000686 -0.174547
v 0.685565 0.006064 -0.171172
v 0.685565 -0.007436 -0.184672
v 0.685565 0.019564 -0.184672
v 0.685565 0.017756 -0.191422
vn -0.1479 0.9553 0.2559
vn -0.4803 0.8321 0.2773
vn -0.1668 0.8098 0.5625
vn -0.4265 0.4541 0.7822
vn -0.8930 0.4501 -0.0000
vn -0.8660 -0.0000 0.5000
vn -0.8660 -0.0000 -0.5000
vn -0.8929 -0.4502 -0.0000
vn -0.4264 -0.4542 -0.7822
vn -0.4803 -0.8321 -0.2773
vn -0.1668 -0.8098 -0.5625
vn -0.1479 -0.9553 -0.2560
vn -0.2957 0.9553 -0.0000
vn -0.4803 0.8321 -0.2773
vn -0.4265 0.4541 -0.7822
vn -0.2636 -0.0000 -0.9646
vn -0.1479 -0.9553 0.2560
vn -0.1668 -0.8098 0.5625
vn -0.4803 -0.8321 0.2773
vn -0.4264 -0.4542 0.7822
vn -0.2636 -0.0000 0.9646
vn -0.2958 -0.9552 -0.0000
vn -0.1479 0.9553 -0.2559
vn -0.1668 0.8098 -0.5625
vn -0.1480 -0.9553 -0.2560
vn -0.2637 -0.0000 -0.9646
vn -0.1480 -0.9553 0.2560
vn -0.2637 -0.0000 0.9646
vn -0.2959 -0.9552 -0.0000
vt 0.819672 1.000000
vt 0.666687 0.933014
vt 1.000031 0.933014
vt 0.833374 0.750000
vt 0.500031 0.750000
vt 0.666687 0.500000
vt 0.333374 0.500000
vt 0.500031 0.250000
vt 0.166687 0.250000
vt 0.333374 0.066986
vt 0.000031 0.066986
vt 0.166687 0.000000
vt 0.500031 1.000000
vt 0.333374 0.933014
vt 0.166687 0.750000
vt 0.000031 0.500000
vt 0.833374 0.000000
vt 1.000031 0.066986
vt 0.666687 0.066986
vt 0.833374 0.250000
vt 1.000031 0.500000
vt 0.500031 0.000000
vt 0.166687 1.000000
vt 0.000031 0.933014
s 1
usemtl bwg_ball_alpha_yellow_2
f 1/1/1 2/2/2 3/3/3
f 3/3/3 2/2/2 4/4/4
f 2/2/2 5/5/5 4/4/4
f 4/4/4 5/5/5 6/6/6
f 5/5/5 7/7/7 6/6/6
f 6/6/6 7/7/7 8/8/8
f 7/7/7 9/9/9 8/8/8
f 8/8/8 9/9/9 10/10/10
f 9/9/9 11/11/11 10/10/10
f 10/10/10 11/11/11 12/12/12
f 13/13/13 14/14/14 2/2/2
f 2/2/2 14/14/14 5/5/5
f 14/14/14 15/15/15 5/5/5
f 5/5/5 15/15/15 7/7/7
f 15/15/15 16/16/16 7/7/7
f 7/7/7 16/16/16 9/9/9
f 16/16/16 11/11/11 9/9/9
f 17/17/17 18/18/18 19/19/19
f 19/19/19 18/18/18 20/20/20
f 18/18/18 21/21/21 20/20/20
f 20/20/20 21/21/21 6/6/6
f 21/21/21 4/4/4 6/6/6
f 22/22/22 19/19/19 10/10/10
f 10/10/10 19/19/19 8/8/8
f 19/19/19 20/20/20 8/8/8
f 8/8/8 20/20/20 6/6/6
f 23/23/23 24/24/24 14/14/14
f 14/14/14 24/24/24 15/15/15
f 24/24/24 16/16/16 15/15/15
f 3/3/3 4/4/4 21/21/21
f 25/1/1 26/2/2 27/3/3
f 27/3/3 26/2/2 28/4/4
f 26/2/2 29/5/5 28/4/4
f 28/4/4 29/5/5 30/6/6
f 29/5/5 31/7/7 30/6/6
f 30/6/6 31/7/7 32/8/8
f 31/7/7 33/9/9 32/8/8
f 32/8/8 33/9/9 34/10/10
f 33/9/9 35/11/11 34/10/10
f 34/10/10 35/11/11 36/12/25
f 37/13/13 38/14/14 26/2/2
f 26/2/2 38/14/14 29/5/5
f 38/14/14 39/15/15 29/5/5
f 29/5/5 39/15/15 31/7/7
f 39/15/15 40/16/26 31/7/7
f 31/7/7 40/16/26 33/9/9
f 40/16/26 35/11/11 33/9/9
f 41/17/27 42/18/18 43/19/19
f 43/19/19 42/18/18 44/20/20
f 42/18/18 45/21/28 44/20/20
f 44/20/20 45/21/28 30/6/6
f 45/21/28 28/4/4 30/6/6
f 46/22/29 43/19/19 34/10/10
f 34/10/10 43/19/19 32/8/8
f 43/19/19 44/20/20 32/8/8
f 32/8/8 44/20/20 30/6/6
f 47/23/23 48/24/24 38/14/14
f 38/14/14 48/24/24 39/15/15
f 48/24/24 40/16/26 39/15/15
f 27/3/3 28/4/4 45/21/28
o WS2_bwl_field_91.mo.027_WS2_bwl_field_91.md.001
v 0.685555 0.019564 -0.156689
v 0.679716 0.017756 -0.153314
v 0.685555 0.017756 -0.149939
v 0.679716 0.012814 -0.146564
v 0.673870 0.012814 -0.156689
v 0.673870 0.006064 -0.149939
v 0.673870 0.006064 -0.163439
v 0.673870 -0.000686 -0.156689
v 0.679716 -0.000686 -0.166814
v 0.679716 -0.005627 -0.160064
v 0.685555 -0.005627 -0.163439
v 0.685555 -0.007436 -0.156689
v 0.685555 0.019564 -0.156689
v 0.679716 0.017756 -0.160064
v 0.679716 0.012814 -0.166814
v 0.685555 0.006064 -0.170189
v 0.685555 -0.007436 -0.156689
v 0.685555 -0.005627 -0.149939
v 0.679716 -0.005627 -0.153314
v 0.679716 -0.000686 -0.146564
v 0.685555 0.006064 -0.143189
v 0.685555 -0.007436 -0.156689
v 0.685555 0.019564 -0.156689
v 0.685555 0.017756 -0.163439
v 0.685543 0.019564 -0.128396
v 0.679693 0.017756 -0.125021
v 0.685543 0.017756 -0.121646
v 0.679693 0.012814 -0.118271
v 0.673847 0.012814 -0.128396
v 0.673847 0.006064 -0.121646
v 0.673847 0.006064 -0.135146
v 0.673847 -0.000686 -0.128396
v 0.679693 -0.000686 -0.138521
v 0.679693 -0.005627 -0.131771
v 0.685543 -0.005627 -0.135146
v 0.685543 -0.007436 -0.128396
v 0.685543 0.019564 -0.128396
v 0.679693 0.017756 -0.131771
v 0.679693 0.012814 -0.138521
v 0.685543 0.006064 -0.141896
v 0.685543 -0.007436 -0.128396
v 0.685543 -0.005627 -0.121646
v 0.679693 -0.005627 -0.125021
v 0.679693 -0.000686 -0.118271
v 0.685543 0.006064 -0.114896
v 0.685543 -0.007436 -0.128396
v 0.685543 0.019564 -0.128396
v 0.685543 0.017756 -0.135146
vn -0.1479 0.9553 0.2559
vn -0.4803 0.8321 0.2772
vn -0.1668 0.8098 0.5624
vn -0.4264 0.4542 0.7822
vn -0.8930 0.4501 -0.0000
vn -0.8661 -0.0000 0.5000
vn -0.8661 -0.0000 -0.5000
vn -0.8929 -0.4502 -0.0000
vn -0.4264 -0.4542 -0.7822
vn -0.4803 -0.8321 -0.2772
vn -0.1668 -0.8098 -0.5625
vn -0.1480 -0.9553 -0.2560
vn -0.2958 0.9553 -0.0000
vn -0.4803 0.8321 -0.2772
vn -0.4264 0.4542 -0.7822
vn -0.2637 -0.0000 -0.9646
vn -0.1480 -0.9553 0.2560
vn -0.1668 -0.8098 0.5625
vn -0.4803 -0.8321 0.2772
vn -0.4264 -0.4542 0.7822
vn -0.2637 -0.0000 0.9646
vn -0.2959 -0.9552 -0.0000
vn -0.1479 0.9553 -0.2559
vn -0.1668 0.8098 -0.5624
vn -0.1476 0.9554 0.2559
vn -0.4802 0.8322 0.2773
vn -0.1664 0.8099 0.5625
vn -0.4265 0.4540 0.7823
vn -0.8660 -0.0000 0.5000
vn -0.8660 -0.0000 -0.5000
vn -0.4265 -0.4541 -0.7823
vn -0.4802 -0.8322 -0.2773
vn -0.1664 -0.8099 -0.5625
vn -0.1477 -0.9553 -0.2560
vn -0.2953 0.9554 -0.0000
vn -0.4802 0.8322 -0.2773
vn -0.4265 0.4540 -0.7823
vn -0.2632 -0.0000 -0.9647
vn -0.1477 -0.9553 0.2560
vn -0.1664 -0.8099 0.5625
vn -0.4802 -0.8322 0.2773
vn -0.4265 -0.4541 0.7823
vn -0.2632 -0.0000 0.9647
vn -0.2954 -0.9554 -0.0000
vn -0.1476 0.9554 -0.2559
vn -0.1664 0.8099 -0.5625
vt 0.819672 1.000000
vt 0.666687 0.933014
vt 1.000031 0.933014
vt 0.833374 0.750000
vt 0.500031 0.750000
vt 0.666687 0.500000
vt 0.333374 0.500000
vt 0.500031 0.250000
vt 0.166687 0.250000
vt 0.333374 0.066986
vt 0.000031 0.066986
vt 0.166687 0.000000
vt 0.500031 1.000000
vt 0.333374 0.933014
vt 0.166687 0.750000
vt 0.000031 0.500000
vt 0.833374 0.000000
vt 1.000031 0.066986
vt 0.666687 0.066986
vt 0.833374 0.250000
vt 1.000031 0.500000
vt 0.500031 0.000000
vt 0.166687 1.000000
vt 0.000031 0.933014
s 1
usemtl bwg_ball_alpha_green_2
f 49/25/30 50/26/31 51/27/32
f 51/27/32 50/26/31 52/28/33
f 50/26/31 53/29/34 52/28/33
f 52/28/33 53/29/34 54/30/35
f 53/29/34 55/31/36 54/30/35
f 54/30/35 55/31/36 56/32/37
f 55/31/36 57/33/38 56/32/37
f 56/32/37 57/33/38 58/34/39
f 57/33/38 59/35/40 58/34/39
f 58/34/39 59/35/40 60/36/41
f 61/37/42 62/38/43 50/26/31
f 50/26/31 62/38/43 53/29/34
f 62/38/43 63/39/44 53/29/34
f 53/29/34 63/39/44 55/31/36
f 63/39/44 64/40/45 55/31/36
f 55/31/36 64/40/45 57/33/38
f 64/40/45 59/35/40 57/33/38
f 65/41/46 66/42/47 67/43/48
f 67/43/48 66/42/47 68/44/49
f 66/42/47 69/45/50 68/44/49
f 68/44/49 69/45/50 54/30/35
f 69/45/50 52/28/33 54/30/35
f 70/46/51 67/43/48 58/34/39
f 58/34/39 67/43/48 56/32/37
f 67/43/48 68/44/49 56/32/37
f 56/32/37 68/44/49 54/30/35
f 71/47/52 72/48/53 62/38/43
f 62/38/43 72/48/53 63/39/44
f 72/48/53 64/40/45 63/39/44
f 51/27/32 52/28/33 69/45/50
f 73/25/54 74/26/55 75/27/56
f 75/27/56 74/26/55 76/28/57
f 74/26/55 77/29/34 76/28/57
f 76/28/57 77/29/34 78/30/58
f 77/29/34 79/31/59 78/30/58
f 78/30/58 79/31/59 80/32/37
f 79/31/59 81/33/60 80/32/37
f 80/32/37 81/33/60 82/34/61
f 81/33/60 83/35/62 82/34/61
f 82/34/61 83/35/62 84/36/63
f 85/37/64 86/38/65 74/26/55
f 74/26/55 86/38/65 77/29/34
f 86/38/65 87/39/66 77/29/34
f 77/29/34 87/39/66 79/31/59
f 87/39/66 88/40/67 79/31/59
f 79/31/59 88/40/67 81/33/60
f 88/40/67 83/35/62 81/33/60
f 89/41/68 90/42/69 91/43/70
f 91/43/70 90/42/69 92/44/71
f 90/42/69 93/45/72 92/44/71
f 92/44/71 93/45/72 78/30/58
f 93/45/72 76/28/57 78/30/58
f 94/46/73 91/43/70 82/34/61
f 82/34/61 91/43/70 80/32/37
f 91/43/70 92/44/71 80/32/37
f 80/32/37 92/44/71 78/30/58
f 95/47/74 96/48/75 86/38/65
f 86/38/65 96/48/75 87/39/66
f 96/48/75 88/40/67 87/39/66
f 75/27/56 76/28/57 93/45/72
o WS2_bwl_field_91.mo.028_WS2_bwl_field_91.md.001
v 0.685548 0.019564 -0.035373
v 0.679703 0.017756 -0.031998
v 0.685548 0.017756 -0.028623
v 0.679703 0.012814 -0.025248
v 0.673857 0.012814 -0.035373
v 0.673857 0.006064 -0.028623
v 0.673857 0.006064 -0.042123
v 0.673857 -0.000686 -0.035373
v 0.679703 -0.000686 -0.045498
v 0.679703 -0.005627 -0.038748
v 0.685548 -0.005627 -0.042123
v 0.685548 -0.007436 -0.035373
v 0.685548 0.019564 -0.035373
v 0.679703 0.017756 -0.038748
v 0.679703 0.012814 -0.045498
v 0.685548 0.006064 -0.048873
v 0.685548 -0.007436 -0.035373
v 0.685548 -0.005627 -0.028623
v 0.679703 -0.005627 -0.031998
v 0.679703 -0.000686 -0.025248
v 0.685548 0.006064 -0.021873
v 0.685548 -0.007436 -0.035373
v 0.685548 0.019564 -0.035373
v 0.685548 0.017756 -0.042123
v 0.685567 0.019564 -0.006373
v 0.679740 0.017756 -0.002998
v 0.685567 0.017756 0.000377
v 0.679740 0.012814 0.003752
v 0.673894 0.012814 -0.006373
v 0.673894 0.006064 0.000377
v 0.673894 0.006064 -0.013123
v 0.673894 -0.000686 -0.006373
v 0.679740 -0.000686 -0.016498
v 0.679740 -0.005627 -0.009748
v 0.685567 -0.005627 -0.013123
v 0.685567 -0.007436 -0.006373
v 0.685567 0.019564 -0.006373
v 0.679740 0.017756 -0.009748
v 0.679740 0.012814 -0.016498
v 0.685567 0.006064 -0.019873
v 0.685567 -0.007436 -0.006373
v 0.685567 -0.005627 0.000377
v 0.679740 -0.005627 -0.002998
v 0.679740 -0.000686 0.003752
v 0.685567 0.006064 0.007127
v 0.685567 -0.007436 -0.006373
v 0.685567 0.019564 -0.006373
v 0.685567 0.017756 -0.013123
vn -0.1478 0.9553 0.2559
vn -0.4802 0.8322 0.2773
vn -0.1666 0.8098 0.5625
vn -0.4265 0.4541 0.7823
vn -0.8930 0.4501 -0.0000
vn -0.8660 -0.0000 0.5000
vn -0.8660 -0.0000 -0.5000
vn -0.8929 -0.4502 -0.0000
vn -0.4264 -0.4541 -0.7822
vn -0.4802 -0.8322 -0.2773
vn -0.1666 -0.8098 -0.5625
vn -0.1478 -0.9553 -0.2560
vn -0.2955 0.9553 -0.0000
vn -0.4802 0.8322 -0.2773
vn -0.4265 0.4541 -0.7823
vn -0.2635 -0.0000 -0.9647
vn -0.1478 -0.9553 0.2560
vn -0.1666 -0.8098 0.5625
vn -0.4802 -0.8322 0.2773
vn -0.4264 -0.4541 0.7822
vn -0.2635 -0.0000 0.9647
vn -0.2957 -0.9553 -0.0000
vn -0.1478 0.9553 -0.2559
vn -0.1666 0.8098 -0.5625
vn -0.1482 0.9553 0.2559
vn -0.4805 0.8320 0.2772
vn -0.1673 0.8098 0.5624
vn -0.4264 0.4543 0.7822
vn -0.8661 -0.0000 0.4998
vn -0.8661 -0.0000 -0.4998
vn -0.4264 -0.4543 -0.7822
vn -0.4805 -0.8320 -0.2772
vn -0.1673 -0.8098 -0.5624
vn -0.1483 -0.9552 -0.2560
vn -0.2963 0.9551 -0.0000
vn -0.4805 0.8320 -0.2772
vn -0.4264 0.4543 -0.7822
vn -0.2643 -0.0000 -0.9644
vn -0.1483 -0.9552 0.2560
vn -0.1673 -0.8098 0.5624
vn -0.4805 -0.8320 0.2772
vn -0.4264 -0.4543 0.7822
vn -0.2643 -0.0000 0.9644
vn -0.2965 -0.9550 -0.0000
vn -0.1482 0.9553 -0.2559
vn -0.1673 0.8098 -0.5624
vt 0.819672 1.000000
vt 0.666687 0.933014
vt 1.000031 0.933014
vt 0.833374 0.750000
vt 0.500031 0.750000
vt 0.666687 0.500000
vt 0.333374 0.500000
vt 0.500031 0.250000
vt 0.166687 0.250000
vt 0.333374 0.066986
vt 0.000031 0.066986
vt 0.166687 0.000000
vt 0.500031 1.000000
vt 0.333374 0.933014
vt 0.166687 0.750000
vt 0.000031 0.500000
vt 0.833374 0.000000
vt 1.000031 0.066986
vt 0.666687 0.066986
vt 0.833374 0.250000
vt 1.000031 0.500000
vt 0.500031 0.000000
vt 0.166687 1.000000
vt 0.000031 0.933014
s 1
usemtl bwg_ball_alpha_blue_2
f 97/49/76 98/50/77 99/51/78
f 99/51/78 98/50/77 100/52/79
f 98/50/77 101/53/80 100/52/79
f 100/52/79 101/53/80 102/54/81
f 101/53/80 103/55/82 102/54/81
f 102/54/81 103/55/82 104/56/83
f 103/55/82 105/57/84 104/56/83
f 104/56/83 105/57/84 106/58/85
f 105/57/84 107/59/86 106/58/85
f 106/58/85 107/59/86 108/60/87
f 109/61/88 110/62/89 98/50/77
f 98/50/77 110/62/89 101/53/80
f 110/62/89 111/63/90 101/53/80
f 101/53/80 111/63/90 103/55/82
f 111/63/90 112/64/91 103/55/82
f 103/55/82 112/64/91 105/57/84
f 112/64/91 107/59/86 105/57/84
f 113/65/92 114/66/93 115/67/94
f 115/67/94 114/66/93 116/68/95
f 114/66/93 117/69/96 116/68/95
f 116/68/95 117/69/96 102/54/81
f 117/69/96 100/52/79 102/54/81
f 118/70/97 115/67/94 106/58/85
f 106/58/85 115/67/94 104/56/83
f 115/67/94 116/68/95 104/56/83
f 104/56/83 116/68/95 102/54/81
f 119/71/98 120/72/99 110/62/89
f 110/62/89 120/72/99 111/63/90
f 120/72/99 112/64/91 111/63/90
f 99/51/78 100/52/79 117/69/96
f 121/49/100 122/50/101 123/51/102
f 123/51/102 122/50/101 124/52/103
f 122/50/101 125/53/80 124/52/103
f 124/52/103 125/53/80 126/54/104
f 125/53/80 127/55/105 126/54/104
f 126/54/104 127/55/105 128/56/83
f 127/55/105 129/57/106 128/56/83
f 128/56/83 129/57/106 130/58/107
f 129/57/106 131/59/108 130/58/107
f 130/58/107 131/59/108 132/60/109
f 133/61/110 134/62/111 122/50/101
f 122/50/101 134/62/111 125/53/80
f 134/62/111 135/63/112 125/53/80
f 125/53/80 135/63/112 127/55/105
f 135/63/112 136/64/113 127/55/105
f 127/55/105 136/64/113 129/57/106
f 136/64/113 131/59/108 129/57/106
f 137/65/114 138/66/115 139/67/116
f 139/67/116 138/66/115 140/68/117
f 138/66/115 141/69/118 140/68/117
f 140/68/117 141/69/118 126/54/104
f 141/69/118 124/52/103 126/54/104
f 142/70/119 139/67/116 130/58/107
f 130/58/107 139/67/116 128/56/83
f 139/67/116 140/68/117 128/56/83
f 128/56/83 140/68/117 126/54/104
f 143/71/120 144/72/121 134/62/111
f 134/62/111 144/72/121 135/63/112
f 144/72/121 136/64/113 135/63/112
f 123/51/102 124/52/103 141/69/118
o WS2_bwl_field_91.mo.029_WS2_bwl_field_91.md.001
v 0.685656 0.019564 -0.092711
v 0.679810 0.017756 -0.089336
v 0.685656 0.017756 -0.085961
v 0.679810 0.012814 -0.082586
v 0.673964 0.012814 -0.092711
v 0.673964 0.006064 -0.085961
v 0.673964 0.006064 -0.099461
v 0.673964 -0.000686 -0.092711
v 0.679810 -0.000686 -0.102836
v 0.679810 -0.005627 -0.096086
v 0.685656 -0.005627 -0.099461
v 0.685656 -0.007436 -0.092711
v 0.685656 0.019564 -0.092711
v 0.679810 0.017756 -0.096086
v 0.679810 0.012814 -0.102836
v 0.685656 0.006064 -0.106211
v 0.685656 -0.007436 -0.092711
v 0.685656 -0.005627 -0.085961
v 0.679810 -0.005627 -0.089336
v 0.679810 -0.000686 -0.082586
v 0.685656 0.006064 -0.079211
v 0.685656 -0.007436 -0.092711
v 0.685656 0.019564 -0.092711
v 0.685656 0.017756 -0.099461
v 0.685544 0.019564 -0.063664
v 0.679693 0.017756 -0.060289
v 0.685544 0.017756 -0.056914
v 0.679693 0.012814 -0.053539
v 0.673848 0.012814 -0.063664
v 0.673848 0.006064 -0.056914
v 0.673848 0.006064 -0.070414
v 0.673848 -0.000686 -0.063664
v 0.679693 -0.000686 -0.073789
v 0.679693 -0.005627 -0.067039
v 0.685544 -0.005627 -0.070414
v 0.685544 -0.007436 -0.063664
v 0.685544 0.019564 -0.063664
v 0.679693 0.017756 -0.067039
v 0.679693 0.012814 -0.073789
v 0.685544 0.006064 -0.077164
v 0.685544 -0.007436 -0.063664
v 0.685544 -0.005627 -0.056914
v 0.679693 -0.005627 -0.060289
v 0.679693 -0.000686 -0.053539
v 0.685544 0.006064 -0.050164
v 0.685544 -0.007436 -0.063664
v 0.685544 0.019564 -0.063664
v 0.685544 0.017756 -0.070414
vn -0.1477 0.9553 0.2559
vn -0.4802 0.8322 0.2773
vn -0.1666 0.8099 0.5625
vn -0.4265 0.4541 0.7823
vn -0.8930 0.4501 -0.0000
vn -0.8660 -0.0000 0.5000
vn -0.8660 -0.0000 -0.5000
vn -0.8929 -0.4502 -0.0000
vn -0.4264 -0.4541 -0.7823
vn -0.4802 -0.8322 -0.2773
vn -0.1665 -0.8098 -0.5625
vn -0.1478 -0.9553 -0.2560
vn -0.2955 0.9554 -0.0000
vn -0.4802 0.8322 -0.2773
vn -0.4265 0.4541 -0.7823
vn -0.2634 -0.0000 -0.9647
vn -0.1478 -0.9553 0.2560
vn -0.1665 -0.8098 0.5625
vn -0.4802 -0.8322 0.2773
vn -0.4264 -0.4541 0.7823
vn -0.2634 -0.0000 0.9647
vn -0.2956 -0.9553 -0.0000
vn -0.1477 0.9553 -0.2559
vn -0.1666 0.8099 -0.5625
vn -0.1476 0.9554 0.2559
vn -0.1664 0.8099 0.5625
vn -0.4265 0.4540 0.7823
vn -0.8930 -0.4501 -0.0000
vn -0.4265 -0.4541 -0.7823
vn -0.1663 -0.8099 -0.5625
vn -0.1477 -0.9553 -0.2560
vn -0.2952 0.9554 -0.0000
vn -0.4265 0.4540 -0.7823
vn -0.2632 -0.0000 -0.9647
vn -0.1477 -0.9553 0.2560
vn -0.1663 -0.8099 0.5625
vn -0.4265 -0.4541 0.7823
vn -0.2632 -0.0000 0.9647
vn -0.2954 -0.9554 -0.0000
vn -0.1476 0.9554 -0.2559
vn -0.1663 0.8099 -0.5625
vt 0.819672 1.000000
vt 0.666687 0.933014
vt 1.000031 0.933014
vt 0.833374 0.750000
vt 0.500031 0.750000
vt 0.666687 0.500000
vt 0.333374 0.500000
vt 0.500031 0.250000
vt 0.166687 0.250000
vt 0.333374 0.066986
vt 0.000031 0.066986
vt 0.166687 0.000000
vt 0.500031 1.000000
vt 0.333374 0.933014
vt 0.166687 0.750000
vt 0.000031 0.500000
vt 0.833374 0.000000
vt 1.000031 0.066986
vt 0.666687 0.066986
vt 0.833374 0.250000
vt 1.000031 0.500000
vt 0.500031 0.000000
vt 0.166687 1.000000
vt 0.000031 0.933014
s 1
usemtl bwg_ball_alpha_pink_2
f 145/73/122 146/74/123 147/75/124
f 147/75/124 146/74/123 148/76/125
f 146/74/123 149/77/126 148/76/125
f 148/76/125 149/77/126 150/78/127
f 149/77/126 151/79/128 150/78/127
f 150/78/127 151/79/128 152/80/129
f 151/79/128 153/81/130 152/80/129
f 152/80/129 153/81/130 154/82/131
f 153/81/130 155/83/132 154/82/131
f 154/82/131 155/83/132 156/84/133
f 157/85/134 158/86/135 146/74/123
f 146/74/123 158/86/135 149/77/126
f 158/86/135 159/87/136 149/77/126
f 149/77/126 159/87/136 151/79/128
f 159/87/136 160/88/137 151/79/128
f 151/79/128 160/88/137 153/81/130
f 160/88/137 155/83/132 153/81/130
f 161/89/138 162/90/139 163/91/140
f 163/91/140 162/90/139 164/92/141
f 162/90/139 165/93/142 164/92/141
f 164/92/141 165/93/142 150/78/127
f 165/93/142 148/76/125 150/78/127
f 166/94/143 163/91/140 154/82/131
f 154/82/131 163/91/140 152/80/129
f 163/91/140 164/92/141 152/80/129
f 152/80/129 164/92/141 150/78/127
f 167/95/144 168/96/145 158/86/135
f 158/86/135 168/96/145 159/87/136
f 168/96/145 160/88/137 159/87/136
f 147/75/124 148/76/125 165/93/142
f 169/73/146 170/74/123 171/75/147
f 171/75/147 170/74/123 172/76/148
f 170/74/123 173/77/126 172/76/148
f 172/76/148 173/77/126 174/78/127
f 173/77/126 175/79/128 174/78/127
f 174/78/127 175/79/128 176/80/149
f 175/79/128 177/81/150 176/80/149
f 176/80/149 177/81/150 178/82/131
f 177/81/150 179/83/151 178/82/131
f 178/82/131 179/83/151 180/84/152
f 181/85/153 182/86/135 170/74/123
f 170/74/123 182/86/135 173/77/126
f 182/86/135 183/87/154 173/77/126
f 173/77/126 183/87/154 175/79/128
f 183/87/154 184/88/155 175/79/128
f 175/79/128 184/88/155 177/81/150
f 184/88/155 179/83/151 177/81/150
f 185/89/156 186/90/157 187/91/140
f 187/91/140 186/90/157 188/92/158
f 186/90/157 189/93/159 188/92/158
f 188/92/158 189/93/159 174/78/127
f 189/93/159 172/76/148 174/78/127
f 190/94/160 187/91/140 178/82/131
f 178/82/131 187/91/140 176/80/149
f 187/91/140 188/92/158 176/80/149
f 176/80/149 188/92/158 174/78/127
f 191/95/161 192/96/162 182/86/135
f 182/86/135 192/96/162 183/87/154
f 192/96/162 184/88/155 183/87/154
f 171/75/147 172/76/148 189/93/159
