# Blender 5.0.1
# www.blender.org
mtllib TableBot.mtl
o WS2_bwl_field_91.mo.017_WS2_bwl_field_91.md.001
v 0.618750 0.011430 0.169117
v 0.614901 0.010076 0.169117
v 0.618743 0.011430 0.321268
v 0.614894 0.010076 0.321268
v 0.612846 0.006647 0.169117
v 0.612846 0.006647 0.321268
v 0.613557 0.002748 0.169117
v 0.613557 0.002748 0.321268
v 0.616695 0.000203 0.169117
v 0.616695 0.000203 0.321268
v 0.620792 0.000203 0.169117
v 0.620792 0.000203 0.321268
v 0.623929 0.002748 0.169117
v 0.623929 0.002748 0.321268
v 0.624641 0.006647 0.169117
v 0.624641 0.006647 0.321268
v 0.622593 0.010076 0.169117
v 0.622593 0.010076 0.321268
v 0.536866 -0.008642 0.272016
v 0.540179 -0.008642 0.273929
v 0.536866 0.022858 0.272016
v 0.540179 0.022858 0.273929
v 0.543492 -0.008642 0.272016
v 0.543492 0.022858 0.272016
v 0.543492 -0.008642 0.268190
v 0.543492 0.022858 0.268190
v 0.540179 -0.008642 0.266278
v 0.540179 0.022858 0.266278
v 0.536866 -0.008642 0.268190
v 0.536866 0.022858 0.268190
v 0.536866 -0.008642 0.272016
v 0.536866 0.022858 0.272016
v 0.625021 -0.010115 0.191879
v 0.618750 -0.010115 0.188102
v 0.625021 -0.008301 0.191879
v 0.618750 -0.008301 0.188102
v 0.612479 -0.010115 0.191879
v 0.612479 -0.008301 0.191879
v 0.612479 -0.010115 0.199433
v 0.612479 -0.008301 0.199433
v 0.618750 -0.010115 0.203210
v 0.618750 -0.008301 0.203210
v 0.625021 -0.010115 0.199433
v 0.625021 -0.008301 0.199433
v 0.618750 -0.010115 0.191133
v 0.614995 -0.010115 0.193394
v 0.618750 0.004175 0.191133
v 0.614995 0.004175 0.193394
v 0.614995 -0.010115 0.197917
v 0.614995 0.004175 0.197917
v 0.618750 -0.010115 0.200179
v 0.618750 0.004175 0.200179
v 0.622505 -0.010115 0.197917
v 0.622505 0.004175 0.197917
v 0.622505 -0.010115 0.193394
v 0.622505 0.004175 0.193394
v 0.618750 -0.010115 0.287491
v 0.612479 -0.010115 0.291268
v 0.618750 -0.008301 0.287491
v 0.612479 -0.008301 0.291268
v 0.612479 -0.010115 0.298822
v 0.612479 -0.008301 0.298822
v 0.618750 -0.010115 0.302599
v 0.618750 -0.008301 0.302599
v 0.625021 -0.010115 0.298822
v 0.625021 -0.008301 0.298822
v 0.625021 -0.010115 0.291268
v 0.625021 -0.008301 0.291268
v 0.618750 -0.010115 0.238387
v 0.612479 -0.010115 0.242164
v 0.618750 -0.008301 0.238387
v 0.612479 -0.008301 0.242164
v 0.612479 -0.010115 0.249718
v 0.612479 -0.008301 0.249718
v 0.618750 -0.010115 0.253495
v 0.618750 -0.008301 0.253495
v 0.625021 -0.010115 0.249718
v 0.625021 -0.008301 0.249718
v 0.625021 -0.010115 0.242164
v 0.625021 -0.008301 0.242164
v 0.618750 -0.010115 0.290522
v 0.614995 -0.010115 0.292783
v 0.618750 0.004175 0.290522
v 0.614995 0.004175 0.292783
v 0.614995 -0.010115 0.297306
v 0.614995 0.004175 0.297306
v 0.618750 -0.010115 0.299568
v 0.618750 0.004175 0.299568
v 0.622505 -0.010115 0.297306
v 0.622505 0.004175 0.297306
v 0.622505 -0.010115 0.292783
v 0.622505 0.004175 0.292783
v 0.618750 -0.010115 0.241417
v 0.614995 -0.010115 0.243679
v 0.618750 0.004175 0.241417
v 0.614995 0.004175 0.243679
v 0.614995 -0.010115 0.248202
v 0.614995 0.004175 0.248202
v 0.618750 -0.010115 0.250464
v 0.618750 0.004175 0.250464
v 0.622505 -0.010115 0.248202
v 0.622505 0.004175 0.248202
v 0.622505 -0.010115 0.243679
v 0.622505 0.004175 0.243679
v 0.517494 -0.009969 0.290868
v 0.562865 -0.009969 0.290868
v 0.518744 -0.007612 0.289382
v 0.561614 -0.007612 0.289382
v 0.562865 -0.009969 0.249338
v 0.561614 -0.007612 0.250824
v 0.517494 -0.009969 0.249338
v 0.518744 -0.007612 0.250824
v 0.578772 0.021167 0.305428
v 0.501586 0.021167 0.305428
v 0.504505 0.017749 0.302092
v 0.504505 0.017749 0.238114
v 0.501586 0.021167 0.234778
v 0.575853 0.017749 0.238114
v 0.578772 0.021167 0.234778
v 0.575853 0.017749 0.302092
v 0.622593 0.010076 0.169117
v 0.624641 0.006647 0.169117
v 0.618750 0.011430 0.169117
v 0.614901 0.010076 0.169117
v 0.623929 0.002748 0.169117
v 0.616695 0.000203 0.169117
v 0.620792 0.000203 0.169117
v 0.618750 -0.008301 0.253495
v 0.625021 -0.008301 0.249718
v 0.612479 -0.008301 0.249718
v 0.612479 -0.008301 0.242164
v 0.625021 -0.008301 0.242164
v 0.618750 -0.008301 0.238387
v 0.618750 -0.008301 0.188102
v 0.612479 -0.008301 0.191879
v 0.625021 -0.008301 0.191879
v 0.625021 -0.008301 0.199433
v 0.612479 -0.008301 0.199433
v 0.618750 -0.008301 0.203210
v 0.618750 -0.008301 0.287491
v 0.612479 -0.008301 0.291268
v 0.625021 -0.008301 0.291268
v 0.625021 -0.008301 0.298822
v 0.612479 -0.008301 0.298822
v 0.618750 -0.008301 0.302599
v 0.624641 0.006647 0.321268
v 0.622593 0.010076 0.321268
v 0.623929 0.002748 0.321268
v 0.620792 0.000203 0.321268
v 0.618743 0.011430 0.321268
v 0.614894 0.010076 0.321268
v 0.612846 0.006647 0.321268
v 0.613557 0.002748 0.321268
v 0.616695 0.000203 0.321268
v 0.612846 0.006647 0.169117
v 0.613557 0.002748 0.169117
vn 0.0003 1.0000 -0.0000
vn -0.6323 0.7747 -0.0000
vn -0.0001 1.0000 -0.0000
vn -0.6329 0.7742 -0.0000
vn -0.9839 0.1788 -0.0000
vn -0.9840 0.1781 -0.0000
vn -0.8603 -0.5097 -0.0000
vn -0.3342 -0.9425 -0.0000
vn 0.3342 -0.9425 -0.0000
vn 0.8603 -0.5098 -0.0000
vn 0.9840 0.1780 -0.0000
vn 0.9840 0.1779 -0.0000
vn 0.6331 0.7741 -0.0000
vn 0.6329 0.7742 -0.0000
vn -0.5001 -0.0000 0.8660
vn -0.0000 -0.0000 1.0000
vn -0.5000 -0.0000 0.8660
vn 0.8660 -0.0000 0.5000
vn 0.8660 -0.0000 -0.5001
vn -0.0000 -0.0000 -1.0000
vn -0.8660 -0.0000 -0.5001
vn -1.0000 -0.0000 -0.0000
vn 0.8706 -0.0000 -0.4920
vn -0.8706 -0.0000 -0.4920
vn -0.8706 -0.0000 0.4920
vn 0.8706 -0.0000 0.4920
vn -0.8706 -0.0000 0.4919
vn 0.8706 -0.0000 0.4919
vn -0.8706 -0.0000 -0.4919
vn 0.8706 -0.0000 -0.4919
vn -0.5367 0.6350 0.5557
vn 0.5366 0.6351 0.5556
vn -0.4188 0.8227 0.3844
vn 0.4187 0.8228 0.3844
vn 0.5366 0.6351 -0.5556
vn 0.4187 0.8228 -0.3844
vn -0.5367 0.6350 -0.5557
vn -0.4189 0.8227 -0.3844
vn 0.4253 -0.7915 0.4388
vn -0.4253 -0.7915 0.4388
vn -0.3344 -0.8928 0.3019
vn -0.3344 -0.8928 -0.3019
vn -0.4253 -0.7915 -0.4388
vn 0.3344 -0.8928 -0.3019
vn 0.4253 -0.7915 -0.4388
vn 0.3344 -0.8928 0.3019
vn -0.0000 1.0000 -0.0000
vt 4.000000 1.000000
vt 4.000000 0.879395
vt 0.000000 1.000000
vt 0.000000 0.879395
vt 4.000000 0.573975
vt 0.000000 0.573975
vt 4.000000 0.226562
vt 0.000000 0.226562
vt 4.000000 0.000000
vt 0.000000 0.000000
vt -0.333252 -3.000000
vt 0.000000 -3.000000
vt -0.333252 1.000000
vt 0.333252 -3.000000
vt 0.333252 1.000000
vt 0.666748 -3.000000
vt 0.666748 1.000000
vt 1.000000 -3.000000
vt 1.000000 1.000000
vt 1.333252 -3.000000
vt 1.333252 1.000000
vt 1.666748 -3.000000
vt 1.666748 1.000000
vt 0.968750 0.750000
vt 1.000000 0.882080
vt 0.968750 1.000000
vt 0.906250 1.000000
vt 0.875000 0.882080
vt 0.906250 0.750000
vt 0.875000 0.507812
vt -0.983398 1.983398
vt -0.983398 -0.983398
vt -0.877197 1.901611
vt -0.877197 -0.901611
vt 1.983398 -0.983398
vt 1.877197 -0.901611
vt 1.983398 1.983398
vt 1.877197 1.901611
vt -1.985840 -1.985840
vt -1.985840 2.985840
vt -1.750977 2.797852
vt 2.750977 2.797852
vt 2.985840 2.985840
vt 2.750977 -1.797852
vt 2.985840 -1.985840
vt -1.750977 -1.797852
vt 0.173584 0.879395
vt 0.499512 1.000000
vt 0.825684 0.879395
vt 0.060303 0.226562
vt 0.673584 0.000000
vt 0.326416 0.000000
vt 0.500000 1.000000
vt 0.826416 0.879395
vt 1.000000 0.573975
vt 0.939697 0.226562
s 1
usemtl chair_cylinder_2
f 1/1/1 2/2/2 3/3/3
f 3/3/3 2/2/2 4/4/4
f 2/2/2 5/5/5 4/4/4
f 4/4/4 5/5/5 6/6/6
f 5/5/5 7/7/7 6/6/6
f 6/6/6 7/7/7 8/8/7
f 7/7/7 9/9/8 8/8/7
f 8/8/7 9/9/8 10/10/8
f 9/9/8 11/9/9 10/10/8
f 10/10/8 11/9/9 12/10/9
f 11/9/9 13/7/10 12/10/9
f 12/10/9 13/7/10 14/8/10
f 13/7/10 15/5/11 14/8/10
f 14/8/10 15/5/11 16/6/12
f 15/5/11 17/2/13 16/6/12
f 16/6/12 17/2/13 18/4/14
f 17/2/13 1/1/1 18/4/14
f 18/4/14 1/1/1 3/3/3
f 19/11/15 20/12/16 21/13/17
f 21/13/17 20/12/16 22/3/16
f 20/12/16 23/14/18 22/3/16
f 22/3/16 23/14/18 24/15/18
f 23/14/18 25/16/19 24/15/18
f 24/15/18 25/16/19 26/17/19
f 25/16/19 27/18/20 26/17/19
f 26/17/19 27/18/20 28/19/20
f 27/18/20 29/20/21 28/19/20
f 28/19/20 29/20/21 30/21/21
f 29/20/21 31/22/22 30/21/21
f 30/21/21 31/22/22 32/23/22
f 33/24/23 34/25/20 35/24/23
f 35/24/23 34/25/20 36/25/20
f 34/25/20 37/26/24 36/25/20
f 36/25/20 37/26/24 38/26/24
f 37/26/24 39/27/25 38/26/24
f 38/26/24 39/27/25 40/27/25
f 39/27/25 41/28/16 40/27/25
f 40/27/25 41/28/16 42/28/16
f 41/28/16 43/29/26 42/28/16
f 42/28/16 43/29/26 44/29/26
f 43/29/26 33/24/23 44/29/26
f 44/29/26 33/24/23 35/24/23
f 45/30/20 46/30/24 47/30/20
f 47/30/20 46/30/24 48/30/24
f 46/30/24 49/30/27 48/30/24
f 48/30/24 49/30/27 50/30/27
f 49/30/27 51/30/16 50/30/27
f 50/30/27 51/30/16 52/30/16
f 51/30/16 53/30/28 52/30/16
f 52/30/16 53/30/28 54/30/28
f 53/30/28 55/30/23 54/30/28
f 54/30/28 55/30/23 56/30/23
f 55/30/23 45/30/20 56/30/23
f 56/30/23 45/30/20 47/30/20
f 57/25/20 58/26/24 59/25/20
f 59/25/20 58/26/24 60/26/24
f 58/26/24 61/27/25 60/26/24
f 60/26/24 61/27/25 62/27/25
f 61/27/25 63/28/16 62/27/25
f 62/27/25 63/28/16 64/28/16
f 63/28/16 65/29/26 64/28/16
f 64/28/16 65/29/26 66/29/26
f 65/29/26 67/24/23 66/29/26
f 66/29/26 67/24/23 68/24/23
f 67/24/23 57/25/20 68/24/23
f 68/24/23 57/25/20 59/25/20
f 69/25/20 70/26/24 71/25/20
f 71/25/20 70/26/24 72/26/24
f 70/26/24 73/27/25 72/26/24
f 72/26/24 73/27/25 74/27/25
f 73/27/25 75/28/16 74/27/25
f 74/27/25 75/28/16 76/28/16
f 75/28/16 77/29/26 76/28/16
f 76/28/16 77/29/26 78/29/26
f 77/29/26 79/24/23 78/29/26
f 78/29/26 79/24/23 80/24/23
f 79/24/23 69/25/20 80/24/23
f 80/24/23 69/25/20 71/25/20
f 81/30/20 82/30/24 83/30/20
f 83/30/20 82/30/24 84/30/24
f 82/30/24 85/30/27 84/30/24
f 84/30/24 85/30/27 86/30/27
f 85/30/27 87/30/16 86/30/27
f 86/30/27 87/30/16 88/30/16
f 87/30/16 89/30/28 88/30/16
f 88/30/16 89/30/28 90/30/28
f 89/30/28 91/30/23 90/30/28
f 90/30/28 91/30/23 92/30/23
f 91/30/23 81/30/20 92/30/23
f 92/30/23 81/30/20 83/30/20
f 93/30/20 94/30/29 95/30/20
f 95/30/20 94/30/29 96/30/29
f 94/30/29 97/30/27 96/30/29
f 96/30/29 97/30/27 98/30/27
f 97/30/27 99/30/16 98/30/27
f 98/30/27 99/30/16 100/30/16
f 99/30/16 101/30/28 100/30/16
f 100/30/16 101/30/28 102/30/28
f 101/30/28 103/30/30 102/30/28
f 102/30/28 103/30/30 104/30/30
f 103/30/30 93/30/20 104/30/30
f 104/30/30 93/30/20 95/30/20
f 105/31/31 106/32/32 107/33/33
f 107/33/33 106/32/32 108/34/34
f 106/32/32 109/35/35 108/34/34
f 108/34/34 109/35/35 110/36/36
f 109/35/35 111/37/37 110/36/36
f 110/36/36 111/37/37 112/38/38
f 111/37/37 105/31/31 112/38/38
f 112/38/38 105/31/31 107/33/33
f 113/39/39 114/40/40 115/41/41
f 115/41/41 114/40/40 116/42/42
f 114/40/40 117/43/43 116/42/42
f 116/42/42 117/43/43 118/44/44
f 117/43/43 119/45/45 118/44/44
f 118/44/44 119/45/45 120/46/46
f 119/45/45 113/39/39 120/46/46
f 120/46/46 113/39/39 115/41/41
f 121/47/20 122/6/20 123/48/20
f 123/48/20 122/6/20 124/49/20
f 122/6/20 125/50/20 124/49/20
f 124/49/20 125/50/20 126/51/20
f 125/50/20 127/52/20 126/51/20
f 128/28/47 129/29/47 130/27/47
f 130/27/47 129/29/47 131/26/47
f 129/29/47 132/24/47 131/26/47
f 131/26/47 132/24/47 133/25/47
f 134/25/47 135/26/47 136/24/47
f 136/24/47 135/26/47 137/29/47
f 135/26/47 138/27/47 137/29/47
f 137/29/47 138/27/47 139/28/47
f 140/25/47 141/26/47 142/24/47
f 142/24/47 141/26/47 143/29/47
f 141/26/47 144/27/47 143/29/47
f 143/29/47 144/27/47 145/28/47
f 146/6/16 147/47/16 148/50/16
f 148/50/16 147/47/16 149/52/16
f 147/47/16 150/53/16 149/52/16
f 149/52/16 150/53/16 151/54/16
f 152/55/16 153/56/16 151/54/16
f 151/54/16 153/56/16 154/51/16
f 124/49/20 126/51/20 155/55/20
f 155/55/20 126/51/20 156/56/20
f 108/34/34 110/36/36 107/33/33
f 107/33/33 110/36/36 112/38/38
f 120/46/46 115/41/41 118/44/44
f 118/44/44 115/41/41 116/42/42
f 149/52/16 151/54/16 154/51/16
