# Blender 5.0.1
# www.blender.org
mtllib Bowling_Alley_Alley.mtl
o WS2_bwl_field_91.mo.007_WS2_bwl_field_91.md.001
v 0.457188 0.000000 0.382031
v 0.457188 -0.010000 0.382031
v 0.457188 0.000000 0.193438
v 0.457188 -0.010000 0.193438
v 0.457188 -0.000000 -0.000937
v 0.457188 -0.010000 -0.000937
v 0.457188 -0.000000 -0.195312
v 0.457188 -0.010000 -0.195312
v 0.457188 -0.010000 -0.389688
v 0.457188 -0.000000 -0.389688
v -2.754688 0.000000 0.229375
v -2.754688 -0.000000 -0.228281
v -3.487969 0.000000 0.229375
v -3.487969 -0.000000 -0.228281
v 0.000000 0.000000 0.229375
v 0.000000 -0.000000 -0.228281
v -0.536719 0.000000 0.229375
v -0.536719 -0.000000 -0.228281
v -1.073281 0.000000 0.229375
v -1.073281 -0.000000 -0.228281
v -1.610000 0.000000 0.229375
v -1.610000 -0.000000 -0.228281
v -2.146563 0.000000 0.229375
v -2.146563 -0.000000 -0.228281
v -2.549844 0.000000 0.229375
v -2.549844 -0.000000 -0.228281
v -2.620625 0.000000 0.229375
v -2.620625 -0.000000 -0.228281
v -2.687656 0.000000 0.229375
v -2.687656 -0.000000 -0.228281
v -2.754688 0.000000 0.229375
v -2.754688 -0.000000 -0.228281
vn 1.0000 -0.0000 -0.0000
vn -0.0000 1.0000 -0.0000
vt -10.732422 10.480469
vt -10.732422 8.666016
vt -5.115234 10.480469
vt -5.115234 8.666016
vt 0.500000 10.480469
vt 0.500000 8.666016
vt 6.115234 10.480469
vt 6.115234 8.666016
vt 11.732422 8.666016
vt 11.732422 10.480469
vt -14.500000 0.000000
vt 14.500000 0.000000
vt -14.500000 8.000000
vt 14.500000 8.000000
vt 14.500000 6.607422
vt -14.500000 6.607422
vt 14.500000 13.212891
vt -14.500000 13.212891
vt 14.500000 19.820312
vt -14.500000 19.820312
vt 14.500000 26.425781
vt -14.500000 26.425781
vt 14.500000 29.728516
vt -14.500000 29.728516
vt 14.500000 31.380859
vt -14.500000 31.380859
vt 14.500000 32.207031
vt -14.500000 32.207031
vt 14.500000 33.033203
vt -14.500000 33.033203
s 1
usemtl floor_2.001
f 1/1/1 2/2/1 3/3/1
f 3/3/1 2/2/1 4/4/1
f 3/3/1 4/4/1 5/5/1
f 5/5/1 4/4/1 6/6/1
f 5/5/1 6/6/1 7/7/1
f 7/7/1 6/6/1 8/8/1
f 9/9/1 10/10/1 8/8/1
f 8/8/1 10/10/1 7/7/1
f 11/11/2 12/12/2 13/13/2
f 13/13/2 12/12/2 14/14/2
f 15/12/2 16/11/2 17/15/2
f 17/15/2 16/11/2 18/16/2
f 17/15/2 18/16/2 19/17/2
f 19/17/2 18/16/2 20/18/2
f 19/17/2 20/18/2 21/19/2
f 21/19/2 20/18/2 22/20/2
f 21/19/2 22/20/2 23/21/2
f 23/21/2 22/20/2 24/22/2
f 23/21/2 24/22/2 25/23/2
f 25/23/2 24/22/2 26/24/2
f 25/23/2 26/24/2 27/25/2
f 27/25/2 26/24/2 28/26/2
f 27/25/2 28/26/2 29/27/2
f 29/27/2 28/26/2 30/28/2
f 31/29/2 29/27/2 32/30/2
f 32/30/2 29/27/2 30/28/2
o WS2_bwl_field_91.mo.008_WS2_bwl_field_91.md.001
v 0.000000 0.000000 0.382051
v 0.228594 0.000000 0.382051
v 0.000000 0.000000 0.193438
v 0.228594 0.000000 0.193438
v 0.457207 0.000000 0.382051
v 0.457207 0.000000 0.193438
v 0.000000 -0.000000 -0.000957
v 0.228594 -0.000000 -0.000957
v 0.457207 -0.000000 -0.000957
v 0.000000 -0.000000 -0.195352
v 0.228594 -0.000000 -0.195352
v 0.457207 -0.000000 -0.195352
v 0.000000 -0.000000 -0.389746
v 0.228594 -0.000000 -0.389746
v 0.457207 -0.000000 -0.389746
vn -0.0000 1.0000 -0.0000
vt -32.000000 5.000000
vt -32.000000 2.500000
vt -16.000000 5.000000
vt -16.000000 2.500000
vt -32.000000 0.000000
vt -16.000000 0.000000
vt 0.000000 5.000000
vt 0.000000 2.500000
vt 0.000000 0.000000
vt 16.000000 5.000000
vt 16.000000 2.500000
vt 16.000000 0.000000
vt 32.000000 5.000000
vt 32.000000 2.500000
vt 32.000000 0.000000
s 1
usemtl floor_2.001
f 33/31/3 34/32/3 35/33/3
f 35/33/3 34/32/3 36/34/3
f 34/32/3 37/35/3 36/34/3
f 36/34/3 37/35/3 38/36/3
f 35/33/3 36/34/3 39/37/3
f 39/37/3 36/34/3 40/38/3
f 36/34/3 38/36/3 40/38/3
f 40/38/3 38/36/3 41/39/3
f 39/37/3 40/38/3 42/40/3
f 42/40/3 40/38/3 43/41/3
f 40/38/3 41/39/3 43/41/3
f 43/41/3 41/39/3 44/42/3
f 42/40/3 43/41/3 45/43/3
f 45/43/3 43/41/3 46/44/3
f 43/41/3 47/45/3 46/44/3
f 47/45/3 43/41/3 44/42/3
