# Blender 5.0.1
# www.blender.org
mtllib TableTop.mtl
o WS2_bwl_field_91.mo.016_WS2_bwl_field_91.md.001
v 0.511973 0.020723 0.226484
v 0.504668 0.020723 0.229102
v 0.511973 0.023477 0.226484
v 0.504668 0.023477 0.229102
v 0.499180 0.020723 0.234590
v 0.499180 0.023477 0.234590
v 0.496543 0.020723 0.241895
v 0.496543 0.023477 0.241895
v 0.496543 0.023477 0.298320
v 0.511973 0.023477 0.313730
v 0.504668 0.023477 0.311094
v 0.511973 0.020723 0.313730
v 0.504668 0.020723 0.311094
v 0.499180 0.023477 0.305605
v 0.499180 0.020723 0.305605
v 0.496543 0.020723 0.298320
v 0.568398 0.023477 0.226484
v 0.575684 0.023477 0.229102
v 0.568398 0.020723 0.226484
v 0.575684 0.020723 0.229102
v 0.581172 0.023477 0.234590
v 0.581172 0.020723 0.234590
v 0.583809 0.023477 0.241895
v 0.583809 0.020723 0.241895
v 0.583809 0.020723 0.298320
v 0.568398 0.020723 0.313730
v 0.575684 0.020723 0.311094
v 0.568398 0.023477 0.313730
v 0.575684 0.023477 0.311094
v 0.581172 0.020723 0.305605
v 0.581172 0.023477 0.305605
v 0.583809 0.023477 0.298320
v 0.581172 0.020723 0.234590
v 0.583809 0.020723 0.241895
v 0.575684 0.020723 0.229102
v 0.568398 0.020723 0.226484
v 0.568398 0.020723 0.313730
v 0.511973 0.020723 0.226484
v 0.496543 0.020723 0.241895
v 0.496543 0.023477 0.241895
v 0.496543 0.023477 0.298320
v 0.511973 0.023477 0.226484
v 0.511973 0.023477 0.313730
v 0.504668 0.023477 0.311094
v 0.583809 0.023477 0.241895
v 0.568398 0.023477 0.226484
v 0.583809 0.023477 0.298320
v 0.568398 0.023477 0.313730
v 0.499180 0.020723 0.234590
v 0.504668 0.020723 0.229102
v 0.504668 0.023477 0.229102
v 0.499180 0.023477 0.234590
v 0.511973 0.020723 0.313730
v 0.504668 0.020723 0.311094
v 0.496543 0.020723 0.298320
v 0.499180 0.020723 0.305605
v 0.581172 0.023477 0.234590
v 0.575684 0.023477 0.229102
v 0.575684 0.023477 0.311094
v 0.581172 0.023477 0.305605
v 0.581172 0.020723 0.305605
v 0.575684 0.020723 0.311094
v 0.583809 0.020723 0.298320
v 0.511973 0.023477 0.313730
v 0.511973 0.020723 0.313730
v 0.568398 0.023477 0.313730
v 0.568398 0.020723 0.313730
v 0.568398 0.023477 0.226484
v 0.568398 0.020723 0.226484
v 0.511973 0.023477 0.226484
v 0.511973 0.020723 0.226484
v 0.511973 0.020723 0.313730
v 0.496543 0.020723 0.298320
v 0.499180 0.023477 0.305605
vn -0.3374 -0.0000 -0.9414
vn -0.5352 -0.0000 -0.8447
vn -0.8441 -0.0000 -0.5362
vn -0.9850 -0.0000 -0.1723
vn -0.9850 -0.0000 0.1728
vn -0.3394 -0.0000 0.9406
vn -0.5362 -0.0000 0.8441
vn -0.8439 -0.0000 0.5365
vn 0.3382 -0.0000 -0.9411
vn 0.5356 -0.0000 -0.8445
vn 0.8441 -0.0000 -0.5362
vn 0.9850 -0.0000 -0.1723
vn 0.9850 -0.0000 -0.1724
vn 0.9850 -0.0000 0.1728
vn 0.3402 -0.0000 0.9404
vn 0.5365 -0.0000 0.8439
vn 0.3402 -0.0000 0.9403
vn 0.8439 -0.0000 0.5365
vn -0.0000 -1.0000 -0.0000
vn -0.0000 1.0000 -0.0000
vn -0.0000 -0.0000 1.0000
vn -0.0000 -0.0000 -1.0000
vt 0.770752 1.000000
vt 0.770752 0.969849
vt 0.729248 1.000000
vt 0.729248 0.969849
vt 0.770752 0.906952
vt 0.729248 0.906952
vt 0.770752 0.823303
vt 0.729248 0.823303
vt 0.729248 0.176697
vt 0.729248 0.000000
vt 0.729248 0.030151
vt 0.770752 0.000000
vt 0.770752 0.030151
vt 0.729248 0.093048
vt 0.770752 0.093048
vt 0.770752 0.176697
vt 0.546509 0.030151
vt 0.588348 0.000000
vt 0.515076 0.093048
vt 0.500000 0.176697
vt 1.000000 0.176697
vt 0.500000 0.823303
vt 0.588348 1.000000
vt 0.911652 0.000000
vt 0.984924 0.093048
vt 0.911652 1.000000
vt 1.000000 0.823303
vt 0.546509 0.969849
vt 0.515076 0.906952
vt 0.984924 0.906952
vt 0.953491 0.969849
vt 0.953491 0.030151
s 1
usemtl dust_table_2
f 1/1/1 2/2/2 3/3/1
f 3/3/1 2/2/2 4/4/2
f 2/2/2 5/5/3 4/4/2
f 4/4/2 5/5/3 6/6/3
f 5/5/3 7/7/4 6/6/3
f 6/6/3 7/7/4 8/8/4
f 7/7/4 9/9/5 8/8/4
f 10/10/6 11/11/7 12/12/6
f 12/12/6 11/11/7 13/13/7
f 11/11/7 14/14/8 13/13/7
f 13/13/7 14/14/8 15/15/8
f 14/14/8 9/9/5 15/15/8
f 15/15/8 9/9/5 16/16/5
f 9/9/5 7/7/4 16/16/5
f 17/3/9 18/4/10 19/1/9
f 19/1/9 18/4/10 20/2/10
f 18/4/10 21/6/11 20/2/10
f 20/2/10 21/6/11 22/5/11
f 21/6/11 23/8/12 22/5/11
f 22/5/11 23/8/12 24/7/13
f 23/8/12 25/16/14 24/7/13
f 26/12/15 27/13/16 28/10/17
f 28/10/17 27/13/16 29/11/16
f 27/13/16 30/15/18 29/11/16
f 29/11/16 30/15/18 31/14/18
f 30/15/18 25/16/14 31/14/18
f 31/14/18 25/16/14 32/9/14
f 25/16/14 23/8/12 32/9/14
f 33/17/19 34/18/19 35/19/19
f 35/19/19 34/18/19 36/20/19
f 34/18/19 37/21/19 36/20/19
f 36/20/19 37/21/19 38/22/19
f 37/21/19 39/23/19 38/22/19
f 40/18/20 41/24/20 42/20/20
f 42/20/20 41/24/20 43/21/20
f 41/24/20 44/25/20 43/21/20
f 45/23/20 46/22/20 47/26/20
f 47/26/20 46/22/20 48/27/20
f 46/22/20 43/21/20 48/27/20
f 49/28/19 50/29/19 39/23/19
f 39/23/19 50/29/19 38/22/19
f 51/19/20 52/17/20 42/20/20
f 42/20/20 52/17/20 40/18/20
f 53/12/19 54/13/19 55/16/19
f 55/16/19 54/13/19 56/15/19
f 57/28/20 58/29/20 45/23/20
f 45/23/20 58/29/20 46/22/20
f 48/27/20 59/30/20 47/26/20
f 47/26/20 59/30/20 60/31/20
f 61/32/19 62/25/19 63/24/19
f 63/24/19 62/25/19 37/21/19
f 64/21/21 65/21/21 66/27/21
f 66/27/21 65/21/21 67/27/21
f 68/22/22 69/22/22 70/20/22
f 70/20/22 69/22/22 71/20/22
f 72/27/19 73/26/19 37/21/19
f 37/21/19 73/26/19 39/23/19
f 41/24/20 74/32/20 44/25/20
f 43/21/20 46/22/20 42/20/20
f 37/21/19 34/18/19 63/24/19
